<?xml version="1.0" standalone="no"?>
<?xml-stylesheet type="text/css" media="screen" href="../css/style.css"?>
    <svg xmlns="http://www.w3.org/2000/svg" version="1.1" x="0" y="0" id="cerebro" viewBox="0 0 93 118.5" xml:space="preserve">
        <path class="st0" d="M46.5 109c-0.4 0.7-0.8 1.4-1.2 2.1 -0.3 0.5-0.7 1-1.1 1.5 -0.8 0.9-1.6 1.7-2.4 2.5 -0.2 0.2-0.3 0.5-0.4 0.7 -0.8 1-1.9 1.7-3 2.3 -1.2 0.6-2.6 0.7-3.8 0.2 -0.6-0.2-1.1-0.6-1.7-0.7 -1-0.2-2-0.3-3-0.4 -0.9-0.1-1.7-0.5-2.6-0.8 -1-0.4-1.7-1.2-2.6-1.7 -1-0.6-2-1.1-3.1-1.5 -1.6-0.7-3.2-1.5-4.4-2.9 -1-1.2-2.1-2.3-3.3-3.3 -1.3-1.1-2.6-2.2-3.7-3.5 -1.1-1.2-1.9-2.5-2.6-4 -0.5-1-0.6-2.1-0.9-3.2 -0.2-0.7-0.6-1.4-1-2.1 -0.4-0.9-0.8-1.7-1.1-2.6 -0.2-0.5-0.1-1-0.2-1.6 0-1 0.1-2.1-0.1-3.1 -0.1-0.7-0.7-1.4-1-2 -0.4-0.7-0.9-1.4-1.2-2.2C1.9 82.1 1.9 81.5 2 81c0.1-1.1 0.3-2.1 0.3-3.2 0.1-1.5-0.3-2.9-1.1-4.2 -0.6-1-0.9-2.1-1.1-3.2 -0.1-1.1-0.2-2.2-0.1-3.3 0.1-1 0.5-2 0.8-3 0.2-0.7 0.5-1.4 0.7-2.1 0.2-0.8 0.5-1.7 0.6-2.6 0.1-0.6-0.2-1.2-0.2-1.9 -0.1-0.9-0.1-1.8-0.1-2.7 0-0.5 0.2-1 0.4-1.5 0-0.1 0-0.1 0-0.2 -0.8-1.6-0.8-3.3-0.3-5 0.2-0.6 0.4-1.1 0.8-1.6 0.8-1.1 1.1-2.4 1-3.8 -0.3-2.1 0.1-4 1.3-5.8 0.6-0.9 1-1.9 1.3-2.9 0.3-1-0.1-2 0-2.9 0.1-1 0-1.9 0.2-2.9 0.3-1.1 0.7-2.1 1.2-3.2 0.7-1.6 1.8-2.9 3-4.2 0.9-0.9 1.8-1.8 2.7-2.6 1.3-1.3 2.4-2.6 3.1-4.3 0.7-1.6 1.8-2.9 3-4.3 0.3-0.3 0.5-0.7 0.7-1.1 0.6-1.4 1.5-2.6 2.9-3.3 0.4-0.2 0.8-0.4 1.2-0.5 1.1-0.2 2-0.9 2.9-1.4 0.3-0.1 0.5-0.3 0.8-0.4 1.3-0.6 2.7-0.5 4.1-0.8 1-0.2 1.9-0.5 2.8-1 2.3-1.3 4.7-1.7 7.2-0.9 1.1 0.3 2 0.9 2.8 1.8 0.7 0.7 1.3 1.4 1.7 2.3 0.2 0.4 0.7 0.5 1 0.2 0.7-0.7 1.5-1.2 2.1-2 0.5-0.7 1.3-1.1 2-1.7 0.3-0.2 0.7-0.4 1-0.6 0.5-0.3 1-0.2 1.5-0.1 1.4 0.3 2.7 0.7 4.1 1.1 0.6 0.2 1.1 0.4 1.7 0.6 0.1 0 0.3 0.1 0.4 0 1.1-0.1 2.2 0.3 3.2 0.8 0.6 0.3 1.2 0.6 1.9 0.7 1.2 0.2 2.4 0.7 3.4 1.2 1.1 0.6 2 1.4 2.7 2.3 1.1 1.5 2.2 3 3.2 4.6 0.8 1.3 1.5 2.7 2.4 4 0.8 1.3 1.7 2.4 2.6 3.6 0.9 1.2 1.7 2.4 2.6 3.6 0.4 0.6 0.9 1.1 1.4 1.6 1.3 1.4 2.2 3 2.6 4.9 0.2 0.9 0.4 1.8 0.5 2.7 0 0.3 0 0.5 0 0.8 -0.1 0.8 0 1.5 0.2 2.3 0.1 0.8 0.3 1.6 0.7 2.4 0.5 1.1 1 2.1 1.4 3.2 0.3 0.8 0.5 1.6 0.7 2.3 0.3 0.9 0.3 1.9 0.3 2.8 0 0.3 0 0.7-0.1 1 -0.2 0.7 0 1.4 0.4 2.1 0.6 1.1 1.2 2.3 1.5 3.5 0.1 0.5 0.2 0.9 0.2 1.4 0.1 1.6 0.2 3.2 0.2 4.8 0 1.1-0.1 2.2-0.2 3.2 -0.1 0.9-0.1 1.7 0.2 2.6 0.4 1.5 0.9 3 0.8 4.6 -0.1 1.3-0.1 2.5-0.6 3.8 -0.1 0.2 0 0.5-0.1 0.7 -0.2 1-0.4 2-0.5 3 -0.1 0.4-0.1 0.8-0.1 1.2 0 1.2-0.3 2.3-0.6 3.4 -0.4 1.3-1 2.5-1.6 3.7 -0.2 0.5-0.5 0.9-0.7 1.3 -0.1 0.5-0.1 1.1-0.2 1.7 0 0.3 0 0.6-0.1 0.8 0 0.6-0.1 1.3-0.1 1.9 0.1 1.3-0.3 2.6-0.8 3.8 -0.4 1-0.9 2-1.3 3 -0.4 1-1.3 1.7-2 2.6 -0.5 0.7-1.1 1.3-1.2 2.2 -0.1 0.8-0.7 1.3-1.1 1.9 -0.8 1.2-1.9 1.9-3.2 2.4 -1.1 0.5-2 1.2-2.6 2.2 -1.5 2.1-3.4 3.5-5.7 4.6 -2.3 1.1-4.6 2.3-6.8 3.6 -1.1 0.6-2.4 0.9-3.7 1 -1.3 0.2-2.5-0.1-3.7-0.2 -0.9-0.1-1.8-0.3-2.7-0.7 -2-0.8-3.4-2.2-4.4-4 -0.5-0.8-1.1-1.6-1.6-2.4 -0.4-0.6-0.8-1.2-1.1-1.8C46.6 109 46.5 109 46.5 109zM35.5 72.7c0.8 0.2 1.6 0.4 2.4 0.5 1 0.2 2.1 0.6 2.9-0.7 0.3-0.5 0.7-0.9 0.7-1.5 0-0.3-0.1-0.4-0.4-0.3 -0.4 0.2-0.6 0.5-0.8 0.9 -0.3 1-0.9 1.4-2 1.2C37.4 72.7 36.4 72.7 35.5 72.7c-0.3-0.1-0.5-0.2-0.8-0.3 -0.7-0.3-1-0.5-1-1.2 0-0.5 0-1 0-1.7 -0.3 0-0.6 0-0.9 0 -0.6 0.1-1.1-0.1-1.5-0.6 -0.1-0.1-0.2-0.3-0.3-0.4 -0.5-0.5-1.1-0.9-1.8-1 -0.1 0.9-0.6 1.5-1.2 2 -0.6 0.5-0.6 0.5-0.2 1.2 0 0.1 0.1 0.2 0.1 0.3 0.3 0.7 0.6 1.5 0.3 2.3 -0.3 0.8 0 1.5 0.8 1.7 0.2 0.1 0.5 0.2 0.7 0.3 0.5 0.5 1 0.9 1.5 1.5 0.1-0.2 0.1-0.3 0.2-0.5 0.2-0.8 0.3-1.6 0.5-2.4 0-0.1 0.1-0.3 0.2-0.4 0.4-0.3 0.8-0.7 1.3-0.8C34.1 72.5 34.8 72.5 35.5 72.7zM76.3 89.7c0.6 0 1.4-0.1 2.1 0 0.8 0.1 1.4 0.2 1.7-0.7 0 0 0 0 0.1-0.1 1-1 2.1-1.7 3.3-2.4 0.7-0.4 1.4-0.8 1.7-1.6 0.2-0.7 0.4-1.4 0.5-2.1 0.1-0.7 0-1.4 0.1-2.1 0-0.1 0.2-0.2 0.3-0.3 0.1 0 0.2 0.1 0.3 0.2 0.1 0.6 0.3 1.3 0.3 1.9 0 0.9-0.1 1.7-0.2 2.6 -0.2 0.9-0.6 1.6-1.5 2 -0.4 0.2-0.8 0.4-1.3 0.5 -1.2 0.4-2.2 1-2.7 2.3 -0.2 0.5-0.3 1 0 1.4 0.3 0.5 0.6 1 0.6 1.6 0 1.9-1.9 3-3.5 2.6 -0.8-0.2-1.4-0.6-2.3-0.4 -0.2 0-0.4 0.1-0.4 0.3 -0.5 1.1-1.4 1.5-2.5 1.7 -0.8 0.2-1.8-0.1-2.2-0.8 -0.3-0.4-0.5-0.9-0.8-1.4 -0.5-0.9-0.8-1-1.5-0.8 -0.2 0.1-0.3 0.1-0.5 0.2 -0.1 0-0.3 0-0.4 0 0 0-0.1-0.2 0-0.2 0.2-0.2 0.4-0.4 0.6-0.5 0.3-0.1 0.6-0.1 0.8-0.1 1.1-0.1 1.6 0.3 2.1 1.3 0.2 0.5 0.4 0.9 1 1.1 0.8 0.3 1.8 0 2.3-0.8 0.5-0.8 1.1-1.1 2-1 0.7 0.1 1.3 0.3 1.9 0.4 0.4 0.1 1 0.2 1.4 0 1.3-0.7 1.5-2.2 0.6-3.2 -0.5-0.6-1.3-0.8-2.1-0.8 -1.1 0-2.1-0.1-3.2 0.3 -1.3 0.5-2.6 0.5-3.8-0.4 -0.5-0.4-1.1-0.6-1.8-0.7 -1.6-0.2-2.8 0.7-3.4 1.9 -0.7 1.3-0.7 2.6-0.4 4 0.2 0.8 0.7 1.5 1.3 2.1 0.5 0.4 0.9 1 1.3 1.5 0.3 0.4 0.5 0.9 0.8 1.2 0.2 0.2 0.5 0.5 0.7 0.6 0.7 0.2 1.4 0.3 2.2 0.4 0.6 0.1 1.2 0.2 1.8-0.3 1.2-1 2.7-0.9 4.2-0.8 1.3 0.1 2.4 0 3.3-1.1 0.3-0.4 0.7-0.9 1.2-1.2 0.9-0.6 1.9-1 2.9-1.5 0.9-0.5 1.6-1.2 2.1-2 0.5-1 0.7-2 0.6-3.1 0-0.6-0.1-1.3-0.1-2 -0.6 0.8-1 1.6-1.6 2.2 -0.4 0.5-0.9 1-1.1 1.7 -0.2 0.5-0.3 1.1-0.5 1.6 0 0.1-0.2 0.3-0.3 0.3 -0.1 0-0.3-0.1-0.4-0.3 -0.1-0.1 0-0.3 0-0.5 0.1-1.2 0.7-2.3 1.3-3.4 0.6-1.1 1.3-2.2 1.9-3.4 0.5-0.8 0.9-1.7 1.4-2.5 0.1-0.2 0.3-0.4 0.4-0.6 0.3-0.6 0.5-1.2 0.7-1.8 0.4-1.4 0.9-2.8 1.2-4.2 0.2-1.1 0.3-2.3 0.5-3.4 0 0-0.1 0-0.1-0.1 -0.2 0.4-0.4 0.7-0.6 1.1 -0.3 0.7-0.4 1.4-0.7 2.1 -0.1 0.4-0.3 0.8-0.9 1 0-0.2 0-0.3 0.1-0.5 0.1-0.2 0.2-0.4 0.2-0.6 0.3-1.8 1.1-3.5 1.9-5.1 0.7-1.3 1-2.7 1.1-4.2 0-0.4 0-0.8-0.1-1.2 -0.3-1.1-0.7-2.1-1.1-3.2 -0.5-1.5-0.6-3-0.4-4.6 0.1-0.6 0.2-1.1 0.2-1.7 0-1-0.2-1.9-0.3-2.9 -0.1-1.8-0.3-3.5-1-5.2 -0.1-0.2-0.2-0.4-0.3-0.6 -0.5 0.4-0.6 1.1-0.5 1.7 0.1 0.6 0.2 1.3 0.2 2 0 0.2-0.2 0.4-0.3 0.7 -0.1 0-0.1 0-0.2-0.1 0.3-0.8 0.2-1.7-0.2-2.4 -0.5-1.1-0.3-2.1 0.1-3.2 0.1-0.2 0.2-0.5 0.2-0.7 0.1-0.8 0.3-1.6 0.4-2.3 0-0.7 0-1.4-0.1-2.1 -0.1-0.7-0.3-1.5-0.5-2.2 -0.2-0.5-0.4-1-0.6-1.5 -0.2-0.5-0.5-1-0.7-1.6 -0.3-1-0.6-2-0.8-3 -0.5 1-1.1 2-1.6 2.9 -0.3 0.5-0.2 0.9 0.2 1.3 0.1 0.1 0.1 0.2 0.1 0.3 0 0.1 0 0.3-0.1 0.3 -0.1 0-0.3 0-0.3 0 -0.1-0.2-0.3-0.3-0.3-0.5 -0.4-1.1 0-2.1 0.4-3.1 0.3-0.8 0.6-1.6 0.5-2.5 -0.1-1.3-0.2-2.5-0.4-3.8 -0.1-0.8-0.3-1.7-0.6-2.5 -0.4-1-0.8-2-1.6-2.8 -0.5-0.4-0.8-1.1-1.2-1.6 -0.7-0.9-1.5-1.7-2.3-2.5 -0.1-0.1-0.2-0.2-0.4-0.3 0 0.4 0 0.6 0.1 0.9 0 1 0.3 1.8 1.2 2.3 0.3 0.2 0.5 0.6 0.6 1 0.1 0.8 0.2 1.7 0.2 2.6 0 0.8 0 1.7 0.6 2.3 0.3 0.3 0.5 0.6 0.7 1 0 0 0.1-0.1 0.1-0.1 -0.1-0.1-0.2-0.1-0.3-0.2 -0.4-0.4-1.1-0.8-1.3-1.3 -0.4-0.9-0.6-2-0.6-3 0-0.6-0.3-1-0.8-1.2 -0.6-0.2-1-0.6-1-1.2 -0.1-0.6-0.2-1.2-0.1-1.8 0-0.8 0-1.5-0.5-2.2 -0.5-0.9-1.2-1-1.9-0.2 -1 1.1-1.3 3.4 0 4.4 0.3 0.2 0.6 0.5 0.9 0.8 -0.4-0.1-0.8-0.2-1.1-0.3 -0.6-0.3-1.1-0.6-1.6-1.1 -0.7-0.6-0.5-2 0-2.6 0.5-0.8 1-1.5 1.3-2.4 0.3-0.8 0.5-1.6 0.2-2.4 -0.1-0.3-0.3-0.6-0.5-0.8 -0.6-1.2-1.5-2.2-2.7-2.8C71 11 69.9 10.6 68.7 11c-0.2 0.1-0.5 0.3-0.7 0.4 -0.2 0-0.4-0.1-0.7-0.1 0.1-0.1 0.1-0.4 0.2-0.4 1.1-0.5 2.2-0.6 3.4-0.6 0.4 0 0.8 0 1.3 0C72.1 10 72 9.8 71.9 9.7c-0.4-0.4-0.8-0.8-1.1-1.3 -0.5-0.7-1.1-1.3-1.8-1.8 -0.2-0.2-0.4-0.4-0.6-0.5 -0.9-0.3-1.8-0.3-2.8 0.1 -0.7 0.3-0.9 0.8-0.5 1.5 0.2 0.4 0.6 0.6 0.9 1 0.1 0.1 0.2 0.2 0.3 0.3 0 0.1 0 0.2 0 0.2 0 0-0.2 0.1-0.2 0 -0.9-0.4-1.7-0.9-2-2 -0.2-0.7 0.2-1.7 0.9-2 0.3-0.1 0.6-0.2 1-0.4 -0.1-0.1-0.2-0.1-0.3-0.1 -0.8-0.3-1.6-0.5-2.3-0.9 -1.4-0.6-2.8-0.7-4.3-0.4 -1.2 0.2-2.4 0.4-3.5 0.5 -0.4 0-0.9 0-1.2-0.6 0.7-0.1 1.3 0 1.9-0.2 0.6-0.1 1.2-0.4 1.8-0.6 0 0 0-0.1 0-0.1 -0.4-0.2-0.8-0.4-1.2-0.6 -1.4-0.6-2.9-0.2-4.3 0.2 -0.3 0.1-0.6 0.3-0.9 0.4 -1.4 0.9-2.2 2.4-3.5 3.4 0.4 0.6 1.5 0.6 2 0.2 0.4-0.3 0.8-0.6 1.2-0.8 0.3-0.2 0.6-0.4 1-0.4 1.7 0 3.2 0.8 4.5 1.7 0.9 0.6 1.6 1.4 2 2.4 0.1 0.3 0.2 0.6 0.3 1 0.1-0.1 0.2-0.2 0.3-0.3C59.6 9.4 60 9 60.5 8.8c1-0.4 2-0.2 3 0.2 1.1 0.5 1.6 1.6 2.1 2.5 0.2 0.3 0.3 0.6 0.5 0.8 0.4 0.4 0.9 0.8 1.2 1.2 0.2 0.4 0.5 0.5 0.8 0.4 0.5 0 1.1 0 1.5 0.4 0.5 0.5 1.1 0.9 1.4 1.6 0.3 0.6 0.8 1.1 1.6 0.9 0.2 0 0.5-0.2 0.7-0.2 0.2 0 0.3 0 0.5 0 0 0.1 0 0.1 0 0.2 -0.1 0.1-0.3 0.3-0.4 0.4 -0.9 0.6-2.7 0.2-3.2-0.9 -0.2-0.5-0.6-0.9-1-1.2 -0.8-0.5-1.8-0.2-2.1 0.7 -0.4 1.3 0 2.4 0.7 3.5 0.6 0.9 1.6 1.3 2.6 1.7 0.5 0.2 1 0.3 1.4 0.8 0.1 0.2 0.2 0.5 0.3 0.6 0.4 0.4 0.5 0.8 0.5 1.3 0 0.1-0.1 0.3-0.2 0.4 -0.1-0.1-0.3-0.2-0.4-0.3 -0.2-0.4-0.4-0.9-0.5-1.3 -0.2-0.7-0.8-1.1-1.5-1.1 -0.8 0-1.5-0.3-2.1-0.8 -1-0.8-1.5-1.9-1.6-3.2 -0.1-0.8 0-1.6 0-2.5 0-0.6-0.2-1.1-0.5-1.7 -0.4-0.7-0.8-1.4-1.2-2.2 -0.2-0.4-0.5-0.9-0.8-1.2 -0.9-0.8-2.4-0.7-3.4-0.2 -0.5 0.3-1 0.7-1 1.4 0 0.6 0.2 1 0.5 1.5 0.5 0.8 1.3 1.5 1.4 2.5 0.1 0.8 0 1.6-0.6 2.2 -1.1 1.2-2.6 1.1-3.7-0.2 -0.4-0.5-1.1-0.6-1.6-0.1 -0.4 0.4-0.8 0.8-1.1 1.2 -0.5 0.6-1.2 1-2 0.9 -1.3-0.1-2.5-0.5-3.6-1 -0.3-0.1-0.5-0.2-0.8-0.3 0 0.1-0.1 0.1-0.1 0.2 0.2 0.2 0.4 0.4 0.7 0.5 0.4 0.3 0.9 0.5 1.3 0.8 0.3 0.2 0.4 0.9 0.1 1.2 -0.2 0.2-0.4 0.2-0.6 0.4 0.2 0.2 0.4 0.4 0.5 0.6 0.3 0.4 0.6 0.6 1.1 0.7 0.6 0.1 1 0.5 1.3 1 0.3 0.6 0.1 1-0.6 1.1 -0.2 0-0.4 0.1-0.7 0.2 0.4 0.2 0.7 0.4 0.9 0.4 0.7 0.1 1 0.5 1 1.3 0 0.3-0.1 0.6-0.4 0.7 -0.6 0.1-1.3 0.3-1.9-0.1 0.1 0.1 0.1 0.3 0.2 0.3 0.6 0.3 1.1 0.6 1.7 0.9 0.1 0.1 0.3 0.1 0.4 0.1 0.5 0 0.8 0.2 1 0.6 0.3 0.4 0.3 0.8 0 1.2 -0.2 0.2-0.6 0.4-0.9 0.3 -0.4 0-0.9-0.3-1.3-0.4 -0.1 0-0.2 0-0.3 0 0 0 0 0.1 0 0.1 0.3 0.1 0.5 0.3 0.8 0.4 0.7 0.4 1.4 0.5 2.1 0 0.1 0 0.2-0.1 0.3 0 0.5 0.4 1.3 0.4 1.4 1.2 0.4-0.4 0.4-0.9 0.2-1.2 -0.6-1-1.2-1.9-1.7-2.9 -0.2-0.3-0.3-0.8-0.3-1.1 0.1-1.3 0.8-2.1 2-2.6 0.3-0.2 0.7-0.3 1-0.5 0.4-0.2 0.5-0.5 0.6-0.8 0-0.5-0.4-0.8-0.7-1.2 -0.1-0.2-0.2-0.4-0.3-0.6 0.9 0.1 1.8 1.3 1.8 2.3 0 0.2-0.1 0.5-0.3 0.7 -0.5 0.4-1 0.8-1.6 1.1 -0.9 0.4-1.4 1-1.5 2 0 0.2 0 0.4 0.1 0.5 0.4 0.7 0.7 1.4 1.2 2 0.5 0.5 0.7 1.1 0.8 1.8 0.1 1.2-0.2 1.9-1.3 2.5 -0.3 0.1-0.5 0.3-0.8 0.4 0.1 0.1 0.2 0.2 0.2 0.3 0.3 0.5 0.6 1.1 0.9 1.6 0.2 0.4-0.1 0.5-0.4 0.6 -0.1 0-0.3 0-0.4 0 -0.5 0-0.6 0.1-0.6 0.7 0 0.2 0 0.4 0 0.6 0 0.2 0 0.4 0.2 0.6 0.4 0.4 0.8 0.8 1 1.4 0.2 0.7 0.9 1.1 1.4 1.5 0.5 0.5 0.4 1.1-0.2 1.3 -0.2 0.1-0.4 0.2-0.6 0.4 -0.6 0.5-0.5 1.3 0.2 1.6 0.5 0.2 1.1 0.2 1.6-0.1 0.3-0.2 0.5-0.5 0.5-0.9 0-0.4-0.1-0.8-0.2-1.2 -0.3-1 0.2-2.1 1.2-2.3 0.1 0 0.3 0.1 0.4 0.1 -0.1 0.1-0.1 0.3-0.2 0.3 -0.6 0.3-0.8 0.8-0.7 1.4 0 0.3 0.1 0.5 0.3 0.8 0.5 1.2-0.2 2.5-1.5 2.7 -0.6 0.1-1.2 0-1.8 0.1 -0.3 0.1-0.6 0.3-0.8 0.6 -0.2 0.2 0 0.5 0.2 0.6 0.1 0.1 0.2 0.3 0.3 0.4 0.1 0.6 0.2 1.2 0.1 1.8 0 0.5 0 1 0.3 1.5 0.2 0.2 0.5 0.5 0.8 0.5 0.2 0 0.4-0.3 0.6-0.5 0.1-0.1 0.2-0.2 0.2-0.3 0.8-0.8 1.8-1.1 2.9-1.2 0.6-0.1 1.3-0.1 1.9-0.3 0.8-0.3 1.2-0.9 1.5-1.6 0.2-0.4 0.3-0.7 0-1.1 -0.8-1.1-1.3-2.3-1.8-3.5 -0.3-0.9-0.4-1.9-0.5-2.9 0-0.2-0.1-0.4-0.3-0.4 -1.5-0.6-2.4-1.7-2.9-3.2 -0.4-1.1-0.3-2.2 0.5-3.2 0.5-0.7 1-1.3 1.5-2 0.5-0.7 0.4-1.3-0.1-1.9 -0.3-0.4-0.7-0.7-1-1C58.9 27 58.9 26 59.1 25c0-0.1 0.3-0.2 0.4-0.3 0.1 0.2 0.2 0.3 0.2 0.5 0 0.3-0.1 0.7 0 1 0.2 0.4 0.5 0.7 0.8 1 0.4 0.5 1 0.9 1.4 1.4 0.6 0.8 0.7 1.7 0.1 2.4 -0.5 0.5-1 1.1-1.6 1.5 -0.7 0.4-1.1 1.7-0.9 2.4 0.2 0.9 0.8 1.5 1.5 2 0.7 0.5 1.1 0.4 1.7-0.2 0.5-0.5 1.1-0.9 1.7-1.2 0.6-0.3 1.2-0.4 1.8-0.7 1.3-0.6 1.7-2.2 0.7-3.3 -0.1-0.1-0.2-0.3-0.3-0.5 0.2 0 0.5-0.1 0.5 0 0.5 0.5 1.2 0.9 1.2 1.7 0 0.3 0 0.6 0 0.8 0.1 0.8-0.4 1.3-1 1.6 -0.6 0.3-1.3 0.5-1.9 0.8 -0.6 0.3-1.3 0.6-1.8 1.2 -0.5 0.6-0.7 1.5-0.6 2.3 0.2 1.6 0.4 3.1 1.2 4.6 0.7 1.3 1.5 2.5 3.1 2.9 0.5 0.1 1 0.3 1.5 0.1 1-0.3 2-0.5 3.1-0.6 0.9-0.1 1.6 0.2 2.3 0.6 0.1 0.1 0.2 0.3 0.2 0.5 -0.2 0-0.2 0-0.2 0 -1.4-0.7-2.8-0.6-4.2 0.1 -0.3 0.1-0.6 0.3-0.9 0.3 -1.3 0.2-2.5 0.2-3.6-0.6 -0.2-0.2-0.4-0.1-0.5 0.1 -0.2 0.4-0.4 0.8-0.6 1.1 -0.3 0.4-0.6 0.9-1.1 1.1 -0.6 0.3-1.4 0.3-2.1 0.3 -1.3 0-2.3 0.5-3.1 1.4 -0.2 0.3-0.6 0.4-0.8 0.7 -0.1 0.1-0.3 0.3-0.3 0.5 -0.1 0.6-0.5 0.9-1.1 0.9 -0.1 0-0.2 0-0.4 0 0 0.5 0 0.9 0.1 1.3 0.1 0.8 0.3 1.5 0.9 2 0.6 0.5 1 1.2 1.2 2 0.2 0.8 0.8 1.3 1.6 1.4 0.1 0 0.3 0.2 0.4 0.2 -0.1 0.1-0.3 0.4-0.4 0.4 -1 0.1-2.1-0.9-2.3-1.9 -0.1-0.3-0.2-0.6-0.5-0.9 -0.5-0.5-1-0.9-1.5-1.4 -0.2-0.3-0.4-0.7-0.5-1.1 -0.1-0.4-0.2-0.9-0.3-1.3 -0.1 0-0.1 0-0.2-0.1 -0.2 0.3-0.5 0.6-0.6 0.9 -0.1 0.4-0.1 0.8-0.2 1.2 -0.1 0.4-0.2 0.7-0.2 1.1 0 0.2 0 0.4 0.1 0.5 0.1 0.1 0.2 0.2 0.4 0.3 0.7 0.6 0.7 1.7 0 2.3 -0.1 0.1-0.2 0.2-0.4 0.4 0.1 0.1 0.2 0.1 0.3 0.1 1.3 0.3 2.5 0.8 3.3 1.9 0.2 0.3 0.5 0.6 0.7 1.1 0.2 0.8 0.9 1 1.5 0.4 0.2-0.2 0.4-0.5 0.7-0.6 1-0.5 1.3-1.5 1.6-2.5 0.2-0.8 0-1.5-0.5-2.1 -0.2-0.3-0.4-0.7-0.6-1 -0.2-0.6-0.1-1.2 0.3-1.7 0.5-0.6 1.2-0.8 1.9-1.1 0.7-0.3 1.3-0.6 1.5-1.5 0.1-0.6 0.2-1.2 0.2-1.8 0-0.7 0.3-1.2 0.8-1.6 0.1-0.1 0.2-0.1 0.4-0.1 0 0.1 0 0.3 0 0.4 -0.6 0.6-0.5 1.3-0.2 1.9 0.3 0.6 0.2 1.2-0.1 1.7 -0.5 1-1.4 1.5-2.4 1.6 -0.5 0.1-1.1 0.2-1.3 0.8 -0.3 0.7-0.2 1.3 0.3 1.9 0.8 0.9 1.3 1.9 1.2 3.2 0 0.1 0.2 0.4 0.3 0.4 0.6 0 1.3 0.1 1.9-0.1 0.8-0.3 1.1-1.1 1.1-1.9 0-0.3-0.1-0.7 0-1 0.4-1 0.8-1.9 1.9-2.4 0.5-0.2 0.7-0.6 0.7-1.1 0-0.4-0.1-0.9-0.2-1.3 -0.1-0.6-0.1-1.2 0.2-1.9 0.6-1.1 1.6-1.4 2.6-1.7 0.9-0.3 1.8-0.6 2.2-1.5 0.4-0.8 1-1.3 1.8-1.6 0.3-0.1 0.6-0.3 0.9-0.5 0.4-0.3 0.8-0.7 1.2-1.1 -0.2 0.7-0.3 1.4-1 1.9 -0.3 0.2-0.9 0.5-0.8 1.1 0.1 0.6 0.5 0.9 1 1 0.9 0.2 1.7 0.3 2.5-0.2 0.9-0.5 1.9-0.6 2.9-0.2 0.3 0.1 0.7 0.2 1.1 0.2 1.2 0 1.7-0.7 1.4-1.8 -0.2-0.7-0.3-1.4-0.4-2.1 -0.1-0.5 0.2-0.7 0.5-0.7 0 0.4 0 0.8 0.1 1.2 0.2 0.6 0.5 1.2 0.7 1.9 0.4 1.1 0.1 1.8-0.8 2.4 -0.9 0.6-2.1 0.6-3-0.1 -0.4-0.3-1-0.4-1.4-0.2 -1.4 1-2.9 0.8-4.4 0.2 -0.2-0.1-0.4-0.3-0.6-0.5 -0.4-0.6-0.8-0.6-1.2 0 -0.5 0.6-1 1.2-1.7 1.5 -0.4 0.2-0.9 0.4-1.3 0.6 -0.5 0.2-0.8 0.7-1.1 1.2 -0.4 0.7-0.4 1.4-0.4 2.1 -0.1 1.1-0.7 1.8-1.5 2.2 -0.7 0.4-1 0.9-1 1.6 0 0.4 0.1 0.8 0.2 1.1 0.1 0.7 0.1 1.4-0.4 1.9 -0.4 0.4-1 0.6-1.5 0.8 -0.7 0.2-1.5 0.2-2.2 0.3 -0.7 0.1-1.3 0.4-1.9 0.8 -0.5 0.4-0.9 0.8-1.5 1.1 -0.5 0.3-1.1 0.3-1.7 0 -0.7-0.3-1.1-1-1.5-1.6 -0.2-0.3-0.4-0.7-0.6-1 -1.1-1-2.4-1.3-3.9-1.1 -0.8 0.1-0.9 0.9-1.4 1.4 -0.1 0.1 0 0.6 0.1 0.9 0.1 0.2 0.2 0.4 0.3 0.6 0 0.1 0.1 0.3 0 0.4 -0.3 0.7-0.6 0.9-1.4 0.8 -0.1 0-0.3 0-0.4 0.1 -0.2 0.4-0.5 0.7-0.9 0.8 -0.1 0-0.1 0.2-0.1 0.3 -0.1 0.1-0.1 0.3-0.1 0.4 -0.2 0.5-0.5 1-0.3 1.6 0.5 1.5 1.5 2.5 3.1 2.7 1.3 0.2 2.2 0.7 2.7 2 0.2 0.6 0.6 1.3 1.5 1.1 0.5-0.1 0.7 0.1 0.7 0.7 -0.4 0-0.7 0-1 0 -1.3-0.2-2-0.9-2.4-2.1 -0.2-0.7-0.6-1-1.3-1 -0.8 0-1.6 0.3-2.3-0.1 -0.3-0.1-0.6-0.2-0.8-0.4 -0.3 0.8-0.8 1-1.6 0.6 -0.1-0.1-0.2-0.1-0.4-0.1 -0.5 0-0.9-0.1-1.1-0.6 -0.2-0.3-0.4-0.3-0.7-0.2 -0.2 0.1-0.3 0.2-0.5 0.3 -0.1 0.1-0.2 0.2-0.1 0.3 0.1 0.6 0.2 1.2 0.3 1.8 0 0.3 0.2 0.5 0.5 0.5 0.6 0.1 1.1 0.3 1.7 0.5 0.6 0.2 1.3 0.8 1 1.7 -0.1 0.3-0.2 0.7-0.2 1.1 -0.1 0.7-0.5 1.2-1.1 1.4 -0.6 0.3-1.2 0.3-1.7-0.1 -0.2-0.2-0.4-0.4-0.7-0.6 -0.1-0.1-0.3-0.2-0.4-0.2 -1 0.2-1.3 0.8-1 1.7 0.1 0.3 0.3 0.4 0.6 0.5 1.1 0.1 2.2 0.2 3.3 0.3 0.2 0 0.6 0.2 0.6 0.4 0.4 1.1 0.3 2.1-0.2 3.2 -0.5 0.9-1.4 1.3-2.4 0.9 -0.8-0.3-1.5-0.5-2.3-0.6 -0.1 0-0.3 0-0.4 0.1 -0.1 0.1-0.1 0.3 0 0.4 0.1 0.1 0.3 0.3 0.4 0.3 0.7 0.1 1.4 0.2 2.1 0.3 0.7 0.1 1.4 0.2 2.1 0.4 0.3 0.1 0.5 0.3 0.7 0.5 0.2 0.4 0.5 0.4 0.8 0.2 0.8-0.4 1.5-1.5 1.4-2.2 -0.1-0.9-0.1-1.8-0.1-2.6 0-0.9 0.3-1.8 1.1-2.5 0.2-0.2 0.5-0.4 0.8-0.7 -1.1-0.5-1.4-1.4-1.4-2.5 0-0.6-0.2-1.1-0.9-1.3 -0.1 0-0.2-0.2-0.2-0.3 0.2 0 0.3-0.1 0.4-0.1 1 0.3 1.5 1.3 1.6 2.3 0.1 0.4 0.5 1.1 0.9 1.3 0.1 0 0.3 0.1 0.4 0 1.2-0.4 2.5-0.7 3.8-0.5 0.6 0.1 0.8-0.1 1.1-0.6 0.6-1 1.3-1.9 2.7-1.9 0.6 0 1.3-0.7 1.4-1.3 0-0.2 0.3-0.3 0.5-0.5 0.1 0.2 0.2 0.5 0.1 0.6 -0.2 0.4-0.4 0.8-0.6 1.1 -0.4 0.6-0.9 0.8-1.6 0.9 -0.7 0-1.1 0.4-1.2 1.1 -0.1 0.7-0.3 1.3-1 1.5 -0.5 0.2-1 0.2-1.5 0.2 -0.7 0.1-1.5 0-2.2 0.2 -0.7 0.2-1.3 0.7-2 1 -0.4 0.3-0.7 0.7-0.8 1.2 -0.1 0.4-0.2 0.9-0.3 1.3 -0.1 0.9-0.1 1.8-0.2 2.7 0.9 0.2 1.8 0.3 2.6 0.5 1 0.3 2.1 0.6 2.9 1.4 1.1 1.1 0.8 2.4-0.6 2.8 -0.3 0.1-0.5 0.2-0.8 0.3 -0.9 0.4-1.3 1.2-1.8 1.9 -0.4 0.5-0.5 1-0.5 1.6 0 0.3 0.1 0.6 0.1 0.9 0.1 0.8 0.4 1.5 1.1 1.9 0.7 0.5 1.5 1 2.2 1.4 0.6 0.4 1 1 1.3 1.6 0.2 0.4 0.1 0.8-0.2 1.2 -0.2-0.9-0.7-1.7-1.6-2.1 -1.4-0.7-2.6-1.6-3.5-2.9 -0.3-0.5-0.7-1.1-0.8-1.6 -0.2-1.2 0.2-2.3 1-3.2 0.8-0.9 1.9-1.5 3-2 0.2-0.1 0.4-0.2 0.4-0.3 0-0.2-0.2-0.3-0.3-0.5 -0.1-0.1-0.2-0.1-0.3-0.1 -1.7-0.6-3.4-0.8-5.2-0.5 -0.1 0-0.2 0-0.3 0.1 -0.3 0.2-0.7 0.4-1 0.7 -0.3 0.2-0.6 0.4-0.7 0.7C46 89.7 46 90 45.7 90.2c-0.3 0.1-0.6 0.3-0.9 0.3 -0.6 0-1.3-0.1-1.9-0.1 -0.3 0-0.6 0.1-0.8 0.2 0.1 0.3 0.1 0.7 0.3 1 0 0.1 0.3 0.1 0.5 0.1 0.6 0.2 1.2 0.3 1.8 0.5 0.4 0.1 0.7 0.4 1.1 0.6 1.1 0.5 2 1.2 1.4 2.7C47.1 95.7 47 96 47 96.2c0.3 0.3 0.7 0.5 0.8 0.8 0.4 0.7 1 1.4 1 2.3 0 0.6 0.2 1.3 0 1.9 -0.2 0.6-0.5 1-0.2 1.6 0 0 0 0 0 0 -0.1 0.5-0.1 1-0.3 1.5 -0.3 0.9-0.2 1.8-0.7 2.6 0 0.1 0 0.3 0.1 0.4 0.5 0.7 1 1.4 1.5 2.2 0.8 1.2 1.6 2.5 2.3 3.7 0.8 1.4 2 2.5 3.5 3.1 1.5 0.6 3 1 4.6 0.9 0.1 0 0.2 0 0.4 0 1.3 0.2 2.5-0.2 3.6-0.9 0.2-0.1 0.4-0.4 0.4-0.5 0-0.2-0.3-0.3-0.5-0.4 -0.8-0.3-1.6-0.1-2.3 0.4 -1.2 0.9-2.5 0.5-3.7 0.1 -0.1 0-0.1-0.1-0.2-0.2 0.1-0.1 0.2-0.2 0.3-0.2 0.1 0 0.2 0 0.3 0.1 0.8 0.2 1.7 0.4 2.5-0.2 0.4-0.3 0.9-0.6 1.4-0.9 0.9-0.5 1.9-0.5 2.9-0.6 0.6 0 1.3 0 1.9 0 1.3 0 2.3-0.7 3.5-1.2 0.9-0.4 1.7-1 2.6-1.4 1.2-0.6 2.4-1.4 3.2-2.5 0.8-1.1 2-1.9 3.2-2.6 0.6-0.4 1.2-0.6 1.8-1 0.9-0.7 1.7-1.4 2.1-2.5 0.3-0.7 0.6-1.4 1-2 0.5-0.8 1.2-1.5 1.8-2.2 0.2-0.3 0.4-0.7 0.6-1.1 -0.7 0.2-1.3 0.5-2 0.7 -1.1 0.2-1.8 0.8-2.3 1.8 -0.2 0.4-0.6 0.9-1.1 1.1 -1.3 0.8-2.8 1.1-4.4 0.7 -1.1-0.3-2.8 0.3-3.4 1.3 -0.3 0.4-0.6 0.8-0.7 1.3 -0.3 1-0.6 2.1-1.1 3.1 -0.5 1.1-1.4 1.6-2.5 1.7 -0.4 0-0.9 0-1.3 0.1 -0.8 0.1-1.2 0.7-1.6 1.3 -0.7 1.2-1.7 1.7-3.1 1.5 -0.3 0-0.6 0-0.9-0.1 -1.3-0.3-2.2 0.2-3.2 1 -0.6 0.4-1.1 1-1.8 1.1 -1.4 0.3-2.7-0.1-3.9-1 -0.6-0.5-0.9-1.4-0.6-2 0.1 0.2 0.3 0.3 0.4 0.5 0.2 0.6 0.6 1 1.2 1.3 1 0.5 2 0.7 3.1 0 1-0.6 2-1.4 3.2-1.6 0.8-0.1 1.5-0.2 2.3-0.1 1.1 0.1 2.2-0.3 2.8-1.2 0.2-0.3 0.5-0.7 0.8-0.8 0.9-0.4 1.8-0.6 2.7-0.9 0.8-0.3 1.7-0.6 2-1.5 0.3-1.1 0.6-2.2 0.9-3.3 -0.6-0.2-1.1-0.3-1.7-0.5 -0.1 0.6-0.2 1.3-0.3 1.9 0 0.2-0.1 0.4-0.1 0.6 -0.6 1.1-1.5 1.5-2.7 1.3 -1.1-0.2-1.9 0.1-2.6 1 -0.7 0.8-1.3 1.6-2.5 1.7 -0.7 0.1-1.5 0.2-2.1-0.2 -0.7-0.4-1.4-1-2.1-1.4 -0.4-0.3-1-0.4-1.5-0.2 -0.4 0.2-0.7 0.3-1.1 0.5 -1.2 0.6-2.5 0.6-3.7 0.1 -1.2-0.5-1.7-1.4-1-2.7 0.1-0.2 0.3-0.2 0.5-0.3 0 0.2 0 0.4 0.1 0.6 0 0.2-0.1 0.4 0 0.6 0.3 0.7 0.9 0.9 1.6 1 0.9 0.1 1.8-0.1 2.7-0.5 1.5-0.6 2.4-0.4 3.5 0.7 0.3 0.3 0.7 0.5 1.1 0.6 0.7 0 1.4 0.2 2 0.1 0.9-0.2 1.7-0.8 2.3-1.5 0.7-0.9 1.7-1.1 2.7-1.1 1.8 0.1 2.5-1.4 2.6-2.9 -0.2-0.1-0.5-0.2-0.7-0.3 -0.9-0.4-1.3-1.2-1.6-2.1 -0.5-1.3-1.2-2.5-2.2-3.4 -0.2-0.1-0.3-0.3-0.4-0.5 -0.1-0.4-0.3-0.3-0.6-0.3 -0.4 0-0.8 0-1.1-0.1 -0.3-0.1-0.6-0.1-0.9 0.2 -0.6 0.5-1.3 0.9-2.1 1.2 -1.3 0.4-2.3-0.1-2.7-1.3 -0.1-0.2 0-0.5 0.1-0.5 0.3-0.2 0.3 0.1 0.4 0.3 0.2 0.5 0.5 0.8 1.1 0.8 0.7 0 1.3-0.2 1.8-0.6 0.7-0.5 1.4-0.9 2.3-0.9 0.9 0 1.3-0.4 1.6-1.3 0.3-0.8 0.5-1.7 0.9-2.4 0.4-0.9 0.9-1.7 1.4-2.5 -0.2-0.4-0.3-0.8-0.5-1.2 0-0.1-0.2-0.2-0.2-0.2 -1.1 0-2.2-0.1-3.3 0.3 -1.1 0.4-2.2 0.3-3.2-0.5 -0.3-0.3-0.8-0.5-1.2-0.3 -0.4 0.1-0.8 0.3-1.3 0.5 -0.1 0-0.2 0-0.4 0 0-0.1-0.1-0.2 0-0.3 0.2-0.3 0.4-0.6 0.7-0.8 0.8-0.5 1.7-0.5 2.5 0 0.7 0.4 1.4 0.7 2.3 0.6 1.3-0.1 2.2-0.8 3-1.7 -1.3-0.3-2.3-1.1-3-2.2 -0.5-0.7-1.1-1.3-1.9-1.4 -0.8-0.1-1.5-0.1-2.3 0.3 -0.4 0.2-0.9 0.3-1.4 0.5 -0.8 0.2-1.5 0.2-2.2-0.2 -0.1-0.1-0.1-0.2-0.2-0.2 0.1-0.1 0.2-0.1 0.3-0.1 0.1 0 0.2 0.1 0.3 0.1 0.4 0 0.8 0.2 1.2 0.1 0.7-0.1 1.4-0.4 2.1-0.6 1.1-0.3 2.2-0.6 3.2 0.1 0.4 0.3 0.8 0.6 1.3 0.8 1.2 0.6 2.5 0.8 3.8 0.2 0.1-0.1 0.3-0.2 0.3-0.3 0.3-0.8 0.8-1.6 1.4-2.2 1.6-1.8 3.4-3.2 5.9-3.6 1-0.2 2.1-0.2 3 0.5 0.7 0.6 1.3 1.3 2 1.8 0.6 0.5 1 1.2 1.4 1.8 0.4 0.7 0.8 1.3 1.2 1.9 0.3 0.4 0.8 0.6 1.2 0.3 0.5-0.4 1.1-0.4 1.6-0.4 0.5 0 1 0.1 1.3 0.5C85 82.8 85 83 85 83.1c-0.1 0-0.3 0.1-0.4 0.1 -0.2 0-0.4-0.1-0.5-0.2 -0.5-0.3-1.1-0.2-1.3 0.1 -0.6 1-1.5 1.4-2.6 1.3 -1 0-1.1 0.4-1.4 1.2 -0.2 0.6-0.5 1.2-0.8 1.8 -0.2 0.3-0.5 0.6-0.9 0.5 -0.2 0-0.4-0.2-0.2-0.4 0.4-0.3 0.5-0.7 0.5-1.1 0.2-1.3 0.7-2.5 2.1-3 0.1 0 0.2-0.3 0.2-0.4 -0.2-0.4-0.3-0.9-0.6-1.2 -0.5-0.7-1.2-1.4-1.8-2.1 -0.1 0.1-0.3 0.3-0.5 0.4 -1 0.8-2 1.6-3.4 1.6 -0.9 0-1.6 0.6-2 1.3 -0.3 0.4-0.3 1-0.5 1.6 -0.1 0.2-0.2 0.3-0.2 0.5 -0.1-0.2-0.3-0.3-0.3-0.5 -0.1-0.5 0-1.1 0.3-1.6 0.7-1.3 1.7-2.2 3.1-2.5 0.6-0.1 1.1-0.3 1.6-0.7 0.4-0.4 0.8-0.9 0.6-1.5 -0.2-0.6-0.7-1-1.3-1.2 -1.2-0.3-2.4-0.1-3.4 0.7 -1 0.8-2 1.6-2.8 2.5 -0.6 0.7-1 1.6-1.5 2.5 -0.5 0.9-0.5 1.9-0.5 2.9 0 0.8 0.3 1.5 0.8 2.1 0.2 0.2 0.4 0.4 0.6 0.5 0.5 0.2 1.1 0.2 1.6 0.4 0.7 0.3 1.4 0.8 2.2 1.2 0.9 0.4 1.8 0.7 2.7-0.2 0.1-0.2 0.4-0.3 0.5-0.4 0.2-0.8 0.3-1.6-0.3-2.2 -0.4-0.4-0.8-0.6-1.3-1 -0.1-0.1-0.1-0.2-0.2-0.3 0.1 0 0.3-0.1 0.4-0.1 0.4 0.1 0.9 0.3 1.3 0.4 0.7 0.3 1.1 0.8 1.2 1.5C76.1 88 76.2 88.8 76.3 89.7zM29.8 81.2c0.1-0.4 0.2-0.6 0.2-0.9 0.1-0.4 0.3-0.8 0.7-0.8 0.3 0 0.5 0 0.8 0 1 0.1 2 0.1 2.9 0.2 -0.3 0-0.5-0.2-0.8-0.3 -0.5-0.1-0.9-0.3-1.4-0.2 -0.9 0.1-1.8-0.4-2.1-1.3 -0.2-0.7-0.5-1.2-1.1-1.5 -0.4-0.2-0.8-0.4-1.1-0.6 -0.2-0.1-0.4-0.3-0.5-0.4 -0.4-0.5-0.4-1.1-0.3-1.7 0.1-0.6 0.3-1.2-0.2-1.8 -0.2-0.2-0.4-0.5-0.6-0.8 -1-1.1-2.9-1.6-4.2 0 -0.4 0.5-1 0.9-1.6 1.3 -0.3 0.2-0.7 0.8-0.6 1.1 0.1 0.7 0.3 1.4 0.4 2 0.2 0.7 0.7 1.1 1.4 0.9 1.3-0.4 2.7 0.4 3 1.9 0.2 0.9 0.6 1.4 1.3 1.9 1 0.7 1.7 1.6 1.8 2.8 0.1 1.3-0.2 2.5-0.4 3.7 -0.2 1.1-0.3 2.1 0.2 3.2 0.3 0.6 0.3 1.2 0.1 1.8 -0.4 1-0.2 1.5 0.6 2.1 0.1 0.1 0.2 0.1 0.2 0.2 0.5 0.5 0.7 1.2 0.5 1.8 -0.2 0.6-0.6 1-1.3 1.1 -0.9 0.2-1.6 0.6-1.9 1.6 -0.1 0.5-0.3 1-0.5 1.4 -0.1 0.2-0.1 0.3-0.3 0.4 -1.1 0.8-2.3 1.4-3.8 1 -0.3-0.1-0.4 0-0.5 0.2 -0.2 0.5-0.4 0.9-0.6 1.4 -0.5 1.2-0.4 2.3 0.7 3.2 0.1 0.1 0.1 0.3 0.1 0.6 -2.1-0.9-2.5-2.7-1.4-4.3 0.4-0.6 0.6-1.2 0.6-1.9 0-0.2 0-0.4-0.1-0.5 -0.5-0.5-1-1-1.9-0.9 -0.2 0-0.5 0.1-0.5-0.3 0-0.3 0.3-0.4 0.5-0.4 0.4 0 0.8 0.1 1.1 0.2 0.7 0.3 1.5 0.6 1.7 1.5 0 0.1 0.1 0.2 0.2 0.2 0.7 0 1.5 0.1 2.2-0.3 0.9-0.5 1.5-1.3 1.9-2.2 0.4-1 1.2-1.5 2.2-1.7 0.6-0.1 0.9-0.5 0.7-1.1 -0.2-0.4-0.4-0.7-0.8-1 -0.6-0.5-0.9-1.1-0.7-1.8 0.3-1.2 0.3-2.4-1-3.2 -1 0.5-2.1 0.5-3.3 0.4 -0.9-0.1-1.7 0.2-1.9 1.3 -0.1 0.3-0.1 0.6-0.3 0.9 -0.1 0.2-0.2 0.3-0.3 0.4 -0.1-0.2-0.2-0.3-0.2-0.5 0-0.2 0.1-0.4 0.2-0.6 0.3-1.5 1.1-2 2.5-2 1.6 0 2.6-0.8 3.5-2 0.4-0.6 0.6-1.2 0.9-1.9 0.3-0.5 0.3-1.1 0.2-1.7 -0.1-0.4-0.1-0.8-0.3-1.2 -0.3-0.7-0.6-1.4-1.2-1.8 -0.6-0.4-1.2-0.8-1.5-1.5 -0.2-0.4-0.4-0.8-0.6-1.2 -0.4-0.6-1-0.9-1.5-0.6 -0.7 0.5-1.5 0.6-2.3 0.3 -0.9-0.3-1.8-0.8-2.9-0.5 -0.7 0.2-1.4 0.4-1.7 1 -0.4 0.8-0.7 1.6-0.9 2.4 -0.1 0.4-0.3 0.9-0.2 1.2 0.3 0.7 0.4 1.3 0.5 2 0.2 0.9 0.8 1.2 1.6 0.8 0.2-0.1 0.5-0.2 0.7-0.3 -0.1 0.3-0.2 0.6-0.4 0.7 -0.7 0.4-1.6 0.7-2.4-0.2 -0.3-0.3-0.6-0.6-0.7-1 -0.4-1-1.3-1.3-2.2-1.4 -0.4 0-0.9 0-1.3 0.1 -0.7 0.1-1.5 0.2-2-0.4 -0.3-0.4-0.5-0.8-0.8-1.2 -0.1-0.1 0-0.3 0-0.5 0 0 0.1 0 0.1 0 0.1 0.1 0.3 0.3 0.4 0.4 0.4 1 1.1 1.1 2 0.7 1-0.4 2.1-0.6 3.2-0.6 0.1-0.3 0.2-0.5 0.3-0.8 0.2-0.6 0.2-1.2 0.5-1.7 0.4-0.7 0.2-1.1-0.2-1.6 -0.5-0.6-1.1-0.9-1.8-0.7 -0.4 0.1-0.9 0.3-1.3 0.4 -0.5 0.1-0.8 0-1-0.5C9.1 76 9 75.9 9 75.8c-0.2-0.3-0.5-0.4-0.7-0.1C8 76 7.8 76.3 7.6 76.6c-0.2 0.5-0.5 0.7-1 0.8 -0.2 0.1-0.5 0.1-0.7 0.2 -0.1 0-0.3 0.2-0.3 0.3 -0.1 0.4-0.2 0.9-0.3 1.4 -0.1 1.3 0.4 2.5 0.9 3.7 0.4 1.2 1.5 1.8 2.5 2.5 0.6 0.4 1.1 0.7 1.7 1.2 0.8 0.6 0.9 1.5 1.1 2.4 0.2 0.6 0.3 1.1 0.7 1.6 0.2 0.2 0.3 0.2 0.6 0.1 0.8-0.4 1.7-0.8 2.6-1 1.1-0.2 1.6-0.9 1.8-1.9 0.1-0.4 0.3-0.8 0.4-1.2 0.3-0.6 0.6-1.2 1-1.8 0-0.1 0-0.2 0.1-0.3 0.1-0.5 0.2-0.9 0.4-1.4 0.1-0.3 0.2-0.6 0.2-0.8 0-0.8-0.3-1.5-0.7-2.2 -0.1-0.2-0.1-0.4-0.2-0.6 0 0 0.1-0.1 0.1-0.1 0.2 0.1 0.4 0.2 0.5 0.3 0.2 0.3 0.5 0.6 0.6 0.9 0.4 0.7 0.6 1.4 0.5 2.3 -0.1 0.4-0.2 0.9-0.3 1.3 0 0.2 0.1 0.4 0.3 0.4 0.6 0 1.2 0 1.7 0 0.3 0 0.6-0.1 0.8-0.3 0.3-0.3 0.5-0.7 0.7-1.1 0.2-0.3 0.2-0.6 0.3-1 0-0.1 0.2-0.2 0.3-0.2 0.1 0.1 0.2 0.2 0.2 0.3 -0.1 0.9-0.4 1.6-1 2.3 -0.8 0.9-1.8 0.9-2.8 0.7 -0.7-0.1-1.2 0.1-1.6 0.7 -0.6 0.7-0.6 1.6-0.6 2.4 -0.1 1-0.7 1.8-1.7 2 -0.6 0.1-1.2 0.2-1.7 0.4 -0.8 0.3-1.6 0.8-1.9 1.7 -0.2 0.5-0.1 0.9 0.3 1.3 0.3 0.4 0.7 0.6 1.3 0.4 0.7-0.3 1.4-0.5 2.1-0.7 1-0.3 2-0.2 2.9 0.4 0.3 0.3 0.7 0.5 1.1 0.7 0.8 0.4 1.3 0.2 1.6-0.6 0.2-0.5 0.4-1.1 0.6-1.7 0.2-0.5 0.5-0.8 1-0.9 0.5-0.1 1.1 0 1.5 0.5C25.1 92 25 92 24.9 92c-0.9-0.1-1.7 0.6-1.7 1.5 0 0.4-0.1 0.8-0.1 1.2 -0.1 0.8-0.9 1.6-1.7 1.6 -1.1 0.1-1.7-0.6-2.4-1.4 -0.4-0.5-1-0.8-1.7-0.6 -0.7 0.2-1.5 0.4-2.2 0.6 -0.4 0.1-0.9 0.2-1.3 0.1 -1.6-0.3-2.5-1.9-1.9-3.5 0.1-0.3 0.1-0.5-0.2-0.7 -0.5-0.4-0.9-0.9-1.1-1.6 -0.1-0.6-0.4-1.2-1-1.6C9 87.1 8.2 86.5 7.4 86c-0.5-0.4-1.1-0.7-1.4-1.3 -0.2-0.4-0.3-0.8-0.5-1.1 -0.7-1.3-0.8-2.7-0.8-4.1 0-0.4 0.1-0.8 0.1-1.2 -0.3 0.4-0.5 0.7-0.7 1.1 0 0.1-0.2 0.1-0.3 0.2 0-0.1-0.1-0.1-0.1-0.2 -0.1-0.7 0.4-1.8 1.1-2 0.5-0.1 0.9-0.3 1.4-0.5 0.2-0.1 0.5-0.3 0.6-0.5 0.4-0.7 0.8-1.5 1.6-1.9 0.1 0 0.1-0.1 0.1-0.2 0-0.8 0.1-1.7-0.5-2.4 -0.5-0.5-1-1-1.5-1.5 -0.4-0.4-0.7-0.9-0.8-1.5 -0.2-0.9 0-1.8 0.2-2.7 0.2-0.7 0.2-1.5-0.5-2 -0.6-0.5-1.1-0.9-1.6-1.4 0 0-0.1-0.1-0.1-0.1 0-0.1 0-0.2 0-0.3 0-0.1 0.2-0.1 0.3-0.1 0.6 0.3 1.3 0.4 1.7 0.8 1.1 1 1.6 2.3 1.2 3.8 -0.2 0.9-0.2 1.8 0.4 2.6 0.3 0.4 0.6 0.7 0.8 1.1 0.3 0.5 0.6 0.9 0.8 1.5 0.4 1 0.2 2.1 0.8 3 0.4 0.6 0.3 0.7 1 0.6 0.2 0 0.3-0.1 0.5-0.1 0.7-0.1 1.5-0.1 2.1 0.5 0.4 0.4 0.8 0.9 1.2 1.3 1.7-1.5 3.6-1.4 5.6-0.5 -0.1-0.8-0.2-1.5-0.3-2.3 -0.1-0.9-1.1-1.2-1.5-1.9 0 0-0.1 0-0.1 0 -0.6-0.2-1.2-0.3-1.8-0.5 -0.8-0.2-1.4-0.7-1.9-1.4 -0.2-0.3-0.4-0.5-0.5-0.7 -0.3 0.5-0.5 1-0.8 1.5 -0.4 0.4-0.9 0.7-1.3 1 -0.4 0.3-0.6 0.5-0.6 1 0 0.1 0 0.3 0 0.4 0 0.1-0.1 0.2-0.2 0.2 -0.1 0-0.2-0.1-0.2-0.2 -0.3-1.1 0-2 1.1-2.5 1-0.4 1.3-1 1.1-2.1 -0.1-0.9-0.1-1.8 0.3-2.6 0.2-0.4 0.5-0.8 0.8-1.3 0.4-0.7 0.4-1.4 0.5-2.1 0-0.5 0.1-1 0.2-1.6 0.1-0.3 0.1-0.4-0.1-0.7 -0.2-0.2-0.3-0.6-0.3-0.8 0-0.6-0.2-1.1-0.6-1.5 -0.3-0.3-0.5-0.6-0.7-0.9 -0.4-0.5-0.5-1-0.1-1.3 0.7 1 1.7 1.7 2.1 2.9 0.1 0.3 0.5 0.5 0.7 0.6 0.2 0 0.6-0.2 0.7-0.5 0.5-0.8 0.8-1.6 1.3-2.4 0.1-0.1 0.3-0.2 0.5-0.2 0 0.2 0 0.4 0 0.5 -0.3 0.7-0.6 1.5-1 2.2 -0.3 0.5-0.5 1.1-0.9 1.5 -0.4 0.4-0.7 0.8-0.7 1.3 -0.1 0.7-0.2 1.5-0.2 2.3 0 0.9-0.2 1.8-0.8 2.5 -0.3 0.3-0.3 0.7-0.1 1 0.3 0.5 0.6 1 0.9 1.4 0.7 0.8 1.5 1.5 2.5 1.7 0.6 0.1 1.3 0 1.9 0 1.1 0 2-0.5 2.6-1.5 0.5-0.8 1.4-1 2.3-0.9 0.6 0 1.2 0.3 1.8 0 0.9-0.4 1.4-1 1.8-1.8 0.1-0.1 0.1-0.3 0-0.4 -0.1-0.5-0.3-0.9-0.5-1.4 0-0.2 0-0.4 0-0.6 0.2 0 0.4 0 0.5 0.1 0.2 0.4 0.5 0.7 0.6 1.1 0.1 0.4 0.2 0.6 0.6 0.8 0.8 0.2 1.6 0.6 2.2 1.2 0.5 0.5 1.1 0.5 1.7 0.3 0.4-0.1 0.8-0.2 1-0.7 0.1-0.4 0.4-0.8 0.5-1.2 -0.5-0.5-1.1-0.9-1.6-1.5 -0.3-0.3-0.6-0.8-0.9-1.1 -0.6-0.6-1.4-0.6-2.2-0.6 -1 0-2-0.1-2.9-0.8 -0.7-0.4-1.4-0.7-2.3-0.6 -0.6 0.1-1.3 0.2-1.8 0.3 -0.1 0.6-0.2 1.1-0.3 1.7 0 0.1-0.2 0.3-0.2 0.4 -0.1 1.1-0.3 2.2-0.4 3.4 0 1.8-2.1 3-3.5 2.3 -0.2-0.1-0.3-0.3-0.5-0.3 -0.4-0.2-0.9-0.2-1.3-0.4 -0.2-0.1-0.3-0.3-0.4-0.4 0.2-0.1 0.3-0.3 0.5-0.3 0.2 0 0.4 0 0.6 0.1 0.5 0.2 1.1 0.1 1.5 0.7 0.1 0.1 0.3 0.1 0.5 0.1 0.7-0.2 1.3-0.9 1.3-1.7 0-0.2 0.1-0.3 0.1-0.5 0-0.5 0.1-0.9 0.1-1.4 0.1-0.7 0.1-1.4 0.6-2 0.4-0.4 0.7-0.8 0.4-1.4 -0.1-0.3-0.4-0.6-0.6-0.8 -1.5-1-1.8-1.9-1.3-3.6 0.1-0.4 0.3-0.9 0.2-1.3 -0.2-1-0.4-1.9-0.7-2.8 -0.1-0.4-0.1-0.5 0.3-0.7 0.1 0.1 0.2 0.3 0.3 0.4 0.2 0.4 0.4 0.9 0.6 1.3 0.4 1 0.8 2.1 0.6 3.1 -0.2 1 0.2 1.7 0.9 2.4C23 61 23.4 61.1 24 61c0.6-0.1 1.2-0.2 1.9-0.3 -0.1-0.6-0.2-1.4-0.4-2.1 -0.1-0.4-0.3-0.8-0.6-1.2 -0.1-0.3-0.4-0.5-0.6-0.7 -0.5-0.6-0.7-1.2-0.4-2 0.2-0.6 0.2-1.3 0-1.8 -0.3-1.1-1.7-2.1-2.9-2.1 -0.4 0-0.7-0.2-0.9-0.6 -0.1-0.2-0.2-0.4-0.4-0.5 -0.6-0.3-1.1-0.7-1.7-0.8 -0.7-0.2-1.3-0.5-1.8-1 -0.5-0.5-0.7-1.5-0.4-2.1 0.5 0.1 0.5 0.1 0.5 0.6 -0.1 0.6 0 0.8 0.6 1 0.4 0.2 0.8 0.3 1.2 0.4 1.1 0.2 2 0.5 2.7 1.5 0.1 0.1 0.3 0.2 0.5 0.2 0.8 0 1.5 0.4 2.2 0.7 1.7 0.8 2.1 2 1.7 3.8 -0.3 1.1-0.2 2 0.5 2.8 0 0.1 0.1 0.1 0.1 0.2 0.4 0.7 0.9 1.4 1 2.3 0.1 1.6 1.3 2.5 3 2.8 -0.2-1.1 0.4-1.8 1.1-2.5 0.3-0.4 0.7-0.7 1-1.2 0.4-0.8 0.1-2.1-0.6-2.7 -0.8-0.7-1.7-1.4-2.2-2.5 -0.4-0.9-0.4-2.1 0.2-2.8 0.1-0.1 0.2-0.1 0.4-0.2 0 0.2 0.2 0.4 0.1 0.5 -0.4 1.1-0.1 2.4 0.8 3.1 0.6 0.5 1.2 1 1.8 1.5 0.9 0.8 1.1 2.6 0.3 3.5 -0.6 0.8-0.8 1.7-0.5 2.7 0.2 0.6 0.4 1.3 1.1 1.6 0.2 0.1 0.3 0.3 0.4 0.5 0.5 0.6 0.9 1.2 1.4 1.8 0.3 0.3 0.7 0.6 1.1 0.8 0.7 0.3 1.4 0.5 2.1 0.8 0.8 0.3 1.5 0.7 2.3 0.8 1.1 0.3 2.3-0.1 3.3-0.4 0.8-0.3 1.1-0.5 0.8-1.4 0-0.1-0.2-0.3-0.3-0.3 -0.2 0-0.3 0.1-0.5 0.2 -0.1 0.1-0.1 0.2-0.1 0.3 -0.4 1-0.9 1.4-2.3 1.1 -1.1-0.3-2.2-0.7-3.3-0.9 -0.8-0.2-1.4-1.2-1.5-1.8 -0.2-1.5 0.6-2.6 1.7-3.6 0.1-0.1 0.4-0.2 0.5-0.2 0.4 0 0.9 0.1 1.3 0.2 0.6 0.2 1.2 0.5 1.9 0.8 0.7 0.2 1.3 0.5 2 0.2 0.2-0.1 0.4 0 0.6 0 0.6 0 1.1 0.1 1.7 0.1 0.3 0 0.7-0.2 1-0.4 0.2-0.1 0.5-0.3 0.6-0.6 0.1-0.3 0.2-0.6 0.1-0.9 0-0.2-0.3-0.3-0.5-0.1 -0.2 0.3-0.4 0.6-0.5 0.9 -0.3 0.5-0.9 0.9-1.4 0.7 -1-0.4-2-0.5-3.1-0.4 -0.8 0.1-1.6 0-2.3-0.6 -0.3-0.3-0.5-0.6-0.5-1 0-0.5 0.3-0.9 0.5-1.3 0.1-0.3 0.3-0.6 0.4-0.9 0.1-0.3 0.2-0.6 0.4-0.9 0.3-0.6 1-0.9 1.7-0.7 0.1 0 0.3 0.1 0.4 0.1 -1.1-0.7-0.5-1.6-0.3-2.4 -0.5 0-1.2 0.3-1.4 0.7 -0.5 0.9-1 1.8-1.5 2.8 -0.4 0.7-1.1 0.9-1.8 0.4 -0.5-0.4-0.6-0.4-1.1 0 -0.4 0.3-0.6 0.7-0.6 1.2 0 0.4 0.1 0.8 0 1.1 -0.3 1.1-1.2 1.5-2.2 1.8 -0.1 0-0.3-0.1-0.4-0.1 0.1-0.1 0.1-0.3 0.2-0.3 1-0.6 1.4-1.5 1.6-2.6 0.2-1 0.7-1.6 1.5-2 0.4-0.2 0.7-0.1 1 0.2 0.1 0.1 0.2 0.2 0.3 0.3 0.3 0.3 0.5 0.2 0.7-0.1 0.1-0.1 0.1-0.3 0.1-0.5 0.1-1 0.5-1.9 1.1-2.7 0.5-0.6 1.1-1 1.9-1.3 0.5-0.2 0.6-0.4 0.4-0.9 -0.2-0.6-0.4-1.2-0.5-1.9 -0.1-0.3 0-0.6 0-0.9 0-0.4-0.2-0.7-0.5-0.9 -0.6-0.5-1.3-0.4-2-0.3 -0.5 0.1-1.1 0.2-1.5 0.1 -1-0.3-1.7-1-2-2.1 -0.1-0.6-0.2-0.6 0.5-0.8 0.1 0.1 0.1 0.2 0.2 0.4 0.2 1 0.5 1.2 1.5 1.2 0.6 0 1.1-0.1 1.7-0.2 1.9-0.3 3.3 1.2 2.9 3.1 -0.2 0.9-0.3 1 0.7 1.8 0.6-0.5 0.6-0.5 1.4-0.3 0.3 0.1 0.6 0.1 0.9 0.2 0.9 0.1 1.8 0.3 2.7 0.4 0.8 0.2 1.6 0.1 2.3-0.5 0.3-0.3 0.5-0.5 0.8-0.8 -0.1-0.1-0.2-0.2-0.3-0.3 -0.4-0.5-0.8-0.5-1.3-0.1 -0.3 0.3-0.7 0.6-1.1 0.6 -0.9 0-1.9-0.1-2.8-0.2 -0.4-0.1-0.8-0.3-0.9-0.9 -0.2-1.1 0.1-2.1 0.5-3.1 0 0 0.1-0.1 0.1-0.1 0.3-0.1 0.6-0.3 0.9-0.3 1.1 0 2.1-0.3 3.2 0.2 0.4 0.2 0.7 0.4 1 0.6 0.1 0.1 0.4 0.3 0.4 0.2 0.2-0.1 0.3-0.3 0.4-0.5 0.1-0.4 0.2-0.7 0.5-1 0.1-0.1 0.1-0.4 0.2-0.6 -0.5 0.1-0.9 0.3-1.3 0.3 -1.1 0.1-2.2 0.2-3.3 0.4 -0.9 0.1-1.2-0.1-1.5-0.9 -0.1-0.1-0.1-0.3-0.1-0.4 -0.1-0.9 0.3-1.6 0.6-2.3 0.1-0.3 0.5-0.5 0.6-0.7 -0.3-0.4-0.6-0.8-0.9-1.2 -0.5-0.7-0.9-1.4-1.3-2.1 -0.4-0.6-0.8-0.6-1.4-0.3 -0.2 0.1-0.5 0.2-0.7 0.2 -0.5 0.1-1.1-0.2-1.3-0.7 0.2 0 0.4-0.1 0.6 0 0.6 0.2 1 0 1.4-0.3 0.2-0.1 0.4-0.3 0.6-0.4 0.7-0.1 1.5-0.2 2 0.6 -0.5-0.9-0.6-1-0.5-2.5 0-0.2 0-0.4-0.1-0.5 -1.1-1.1-1.3-1.9-0.7-3.3 -1.1-1.2-1.1-2.5-0.4-3.8 -1.1-0.3-1.5-1.7-1-3.3 -0.8-0.3-1-1-1.2-1.6 -0.1-0.3-0.1-0.6-0.3-0.8 -1.5-1.2-3-2.1-5-2.3 -1.6-0.1-2.9 0.4-4.1 1.2 -0.9 0.6-1.4 1.7-2 2.6 -0.4 0.7-0.7 1.6-1.1 2.3 -0.4 0.7-0.8 1.3-1.3 1.8 -0.5 0.5-1.2 0.7-1.8 1.1 -1.2 0.8-2.3 1.7-3.5 2.6 -0.6 0.5-1.1 1-1.2 1.8 -0.2 0.9-0.4 1.9-0.5 2.8 -0.2 0.9-0.6 1.5-1.3 2.1 -0.7 0.6-1.6 0.8-2.5 1 -0.7 0.1-1.5 0.2-2.1-0.3 -0.6-0.5-0.9-1.1-1.3-1.8 -0.1-0.2-0.1-0.5-0.2-0.7 0-0.2 0-0.3 0.3-0.4 0.5-0.1 0.6 0.3 0.6 0.6 0 0.4 0.2 0.7 0.6 1 0.5 0.4 1.1 0.6 1.8 0.7 1.4 0.1 2.4-0.5 2.8-1.9 0.1-0.3 0.1-0.7 0.2-1 0.3-1.3 0.4-2.6 1.2-3.7 0.6-0.8 1.1-1.6 1.8-2.4 0.8-0.8 1.3-1.7 1.1-2.9 -0.5-2 1.1-3 2.6-3.2 0.4 0 0.4 0.1 0.4 0.3 -0.6 0.2-1.1 0.4-1.6 0.6 -0.5 0.3-1 0.8-0.9 1.5 0.1 0.8 0.2 1.6 0.4 2.4 0.3-0.1 0.5-0.1 0.7-0.2 0.7-0.4 1.3-0.9 2-1.4 0.7-0.5 1.2-1.2 1.6-2 0.4-0.8 0.8-1.6 1.3-2.3 0.5-0.8 1.1-1.7 2-2.2 0.3-0.2 0.5-0.3 0.9-0.5 -0.7-0.6-1.2-1.4-1.4-2.3 -0.2-0.8-0.2-1.7 0.2-2.4 0.4-0.8 1-1.5 1.4-2.2 0.4-0.7 0.7-1.4 1-2.2 0.3-0.8-0.1-1.4-0.9-1.5 -0.7-0.1-1.3-0.4-1.6-1.1 -0.2-0.4-0.3-0.8-0.4-1.3 -0.2-0.9 0.2-1.8 1.2-2.2 0 0.2 0 0.4 0 0.6 -0.1 0.2-0.2 0.5-0.2 0.7 0.1 0.6 0.3 1.1 0.5 1.6 0.3 0.7 0.9 1 1.6 0.8 0.8-0.2 1.5-0.6 2.2-1 1.5-0.9 2.9-0.9 4.4-0.1 0.6 0.3 1.2 0.7 1.9 1.1 0-0.1 0-0.1 0-0.2 0.6-0.8 0.3-1.6-0.1-2.3 -0.5-1-1.5-1.6-2.5-2 -1-0.5-2-0.6-3-0.7C37.4 1.1 36.2 1.5 35 2c-0.5 0.2-0.9 0.4-1.4 0.6 -1.3 0.3-2.7 0.6-4 0.9 -1.1 0.3-2.2 0.5-3.2 1.3 0.7 0.7 1.7 1.1 1.9 2.2 0.2 0.9 0.4 1.9-0.1 2.8 -0.1-0.3-0.1-0.7-0.2-1 -0.1-0.8-0.4-1.4-1-1.9 -1.1-0.9-2.8-1-4-0.1 -0.8 0.6-1.6 1.3-2.2 2.3 -0.7 1-1.4 1.9-2.2 2.9 -0.4 0.5-0.7 1-1 1.4 -0.5 0.7-0.9 1.4-1.3 2 -0.4 0.7-0.8 1.4-1.3 2.1 -0.7 0.9-1.4 1.7-2.2 2.5 -1.5 1.5-2.9 3.1-3.8 5.1 -0.4 0.9-0.8 1.7-1 2.7 -0.3 1.2-0.4 2.4-0.6 3.7 -0.3 1.4-0.1 2.8 0.5 4.1 0.5 1.2 1.2 2.3 1.8 3.4 0.2 0.3 0.1 0.5-0.2 0.6 -1.1-1.1-2.1-2.4-2.7-3.7 -0.3 0.5-0.7 1-1 1.5 -0.4 0.6-0.8 1.2-1 1.9 -0.2 0.6-0.2 1.3-0.3 2C4.4 42 4.4 43 4.3 44.1c0 0.4-0.2 0.8-0.3 1.1 0.8-0.4 1.5-0.8 1.8-1.6 0.2-0.6 0.5-1.2 0.8-1.7C7.1 41 8.1 40.7 9 40.2c0.9-0.4 1.9-0.4 2.8-0.4 0.6 0 0.7 0 0.5-0.7 -0.2-0.7-0.4-1.4-0.7-2.2 -0.2-0.5-0.4-1-0.5-1.6 -0.1-0.5-0.1-0.9 0-1.4 0.1-1.2 0.6-2.2 1.6-3 0.7-0.6 1.5-1.1 2.3-1.7 0.7-0.4 1.3-0.9 2-1.3 0.9-0.5 1.8-1.1 2.3-2 0.6-1 1.1-2.1 1.7-3.2 0.4-0.7 1.1-1.2 1.7-1.6 0.8-0.4 1.6-0.8 2.4-1.2 1-0.5 1.2-0.8 1.1-1.9 -0.1-0.9-0.2-1.8-0.3-2.6 0-0.4-0.1-0.8-0.1-1.3 -1.1 0.6-2.2 1.2-2.8 2.3 -0.5 1-0.9 2-1.3 2.9 -0.4 0.8-1.4 1.7-2.5 1.1 -0.2-0.1-0.3-0.2-0.5-0.3 -0.5-0.3-1.1-0.4-1.7 0 -0.5 0.4-0.6 0.8-0.5 1.5 0.1 1.1-0.2 2.1-1.2 2.8 -0.4 0.3-0.8 0.6-1.1 1 -0.1 0.1-0.2 0.3-0.2 0.5 0 0.5 0 0.9 0 1.4 -0.1 0.8-0.4 1.5-1.2 1.9 -0.5 0.3-1.1 0.5-1.7 0.7 -0.1 0-0.3-0.1-0.3-0.2 0-0.1 0-0.3 0.1-0.3 0.3-0.2 0.6-0.3 0.9-0.4 0.8-0.3 1.1-0.9 1-1.7 -0.2-1.4 0.2-2.6 1.7-3.2 0.6-0.2 1.2-0.4 1.2-1.1 0.1-0.6 0.1-1.2 0-1.8 -0.2-1.1 0.3-2.1 1.3-2.6 0.8-0.4 1.5-0.2 2.2 0.2 0.8 0.5 1.1 0.4 1.6-0.5 0 0-0.1 0-0.1 0 -1.6 0.1-2.6-1.7-2.2-3.1 0.4-1.3 1.4-2 2.6-2.4 0.3-0.1 0.6-0.2 0.7 0.2 -0.8 0.1-1.5 0.6-2 1.1 -0.9 1-0.8 2.6 0.2 3.3 0.5 0.4 1.5 0.2 1.6-0.3 0.2-0.6 0.4-1.3 0.7-1.9 0.5-1.1 1.1-2.2 2.3-2.7 0.6-0.3 1.2-0.6 1.6-1 0.5-0.5 0.9-1.1 1.5-1.5 1.5-1.2 3.1-1.8 5-1.5 0.1 0 0.2 0.1 0.3 0.2 -0.1 0.1-0.2 0.2-0.3 0.2 -2 0.2-3.3 1.3-4.4 2.8 -0.9 1.2-1.3 2.6-1.3 4.1 0 1.1 0.1 2.1-0.3 3.2 -0.3 1-1 1.7-1.9 2 -2 0.7-3.5 1.8-4.1 3.9 -0.2 0.8-0.5 1.5-1.2 2 -1.2 0.8-2.4 1.6-3.7 2.4 -1 0.6-1.7 1.4-2.2 2.4 -0.8 1.5-1 3.2-1.1 4.9 0 0.4 0.1 0.8 0.1 1.2 0.1 0.5 0.2 1 0.3 1.5 0 0.2 0.1 0.4 0.2 0.4 1.2 0.7 1.9 1.8 2.4 3.1 0.2-0.1 0.3-0.1 0.5-0.2 1.7-1.1 3.6-1.1 5.5-0.8 0.7 0.1 1.2 0 1.8-0.2 0.8-0.2 1.2-1 1.8-1.5 0.4-0.3 0.5-0.7 0.6-1.2 0-0.4 0.3-0.5 0.6-0.5 0.1 0.9 0 1.8-0.6 2.4 -0.4 0.4-0.8 0.9-1.3 1.3 -0.5 0.3-1 0.7-1.6 0.7 -1.3 0.1-2.6 0-3.9 0 -0.5 0-1 0.1-1.4 0.4 -1.1 0.7-2.3 1.3-3.6 1.5 -1.1 0.2-1.9 0.8-2.3 1.8 -0.1 0.4-0.4 0.7-0.7 1.1 0-0.2-0.1-0.3 0-0.3 0.2-0.5 0.3-1.1 0.5-1.6 0.3-0.7 0.8-1.2 1.5-1.5 0.7-0.3 1.4-0.7 2.2-1.1 -0.7-0.7-1.2-1.3-1.7-1.8 -0.4-0.3-0.9-0.6-1.4-0.8 -0.6-0.2-1.2-0.3-1.8-0.3 -1.3 0-2.4 0.4-3.2 1.4 -0.4 0.5-0.6 1.2-0.8 1.7 -0.4 1-0.9 1.7-1.8 2.2 -0.6 0.4-1 0.9-1.4 1.6 -0.4 0.7-0.5 1.5-0.6 2.3 -0.2 1-0.1 1.6 0.3 2.1 0.6-0.8 0.2-1.9 0.6-2.9 0.5 0.3 0.5 0.7 0.6 1.2 0.1 1.2-0.3 2.3-0.8 3.4 -0.5 1.1-0.7 2.2-0.4 3.4 0.3 1.3 0.3 2.5 0 3.8 -0.3 1.2-0.6 2.4-0.9 3.6 -0.3 0.9-0.4 1.7-0.1 2.5C2 67.3 2 67.5 2.1 67.7c0.2 0.8 0.5 1.5 1.1 2.1 0.6 0.5 1.1 1.2 1.6 1.8 0.4 0.6 0.6 1.3 0.5 2 0 0.1-0.2 0.3-0.4 0.4 -0.1-0.1-0.2-0.3-0.2-0.4 0-0.2 0.1-0.5 0-0.6 -0.4-1.1-1-2.1-2.2-2.6 -0.5-0.2-0.9-0.6-1.4-0.9 0.2 0.9 0.3 1.8 0.5 2.7 0.3 1.1 0.7 2.2 1 3.2 0.4 1.5 0.3 3 0.1 4.5 -0.1 0.6-0.2 1.3-0.2 1.9 0 1.1 0.4 2.1 1.3 2.9 0.6 0.5 0.9 1.1 1.1 1.9 0.2 0.8 0.4 1.6 1 2.3 0.2 0.2 0.5 0.4 0.6 0.6 0.2 0.6 0.3 1.2 0.5 1.8 0.1 0.5 0.2 0.9 0.4 1.4 0.1 0.2 0.4 0.4 0.5 0.7 0.1 0.2 0 0.4 0 0.6 -0.2-0.1-0.4-0.1-0.5-0.3 -0.7-0.7-0.8-1.8-1.2-2.7 -0.2-0.6-0.6-0.9-1.3-1.2 0.2 1 0.2 1.9 0.7 2.6 0.7 1 1.4 2.1 1.6 3.4 0.3 1.7 1 3.3 1.9 4.7 0.8 1.3 1.8 2.4 2.7 3.7 1 1.4 2.4 2.4 3.8 3.4 1.2 0.8 1.9 2 2.8 3 0.4 0.4 0.8 0.9 1.3 1.2 0.5 0.3 1 0.4 1.5 0.6 0.7 0.3 1.4 0.7 2.1 1.1 0.9 0.6 1.8 1.3 2.7 1.9 1.1 0.8 2.4 1.1 3.8 1.3 0.9 0.1 1.8 0.3 2.8 0.4 0 0 0-0.1 0-0.1 -0.7-0.8-1.5-1.1-2.5-1.1 -0.4 0-0.9 0-1.3-0.1 -0.1 0-0.2-0.2-0.3-0.3 0.1-0.1 0.2-0.2 0.3-0.2 0.5 0 1.1-0.1 1.6 0 0.8 0.1 1.6 0.2 2.4 0.4 0.2 0 0.4 0.1 0.6 0.2 0.6 0.5 1.3 0.7 1.9 0.9 1.3 0.5 2.5 0.3 3.5-0.4 1.1-0.8 2.1-1.8 3.2-2.8 0 0-0.1-0.1-0.1-0.1 -0.3 0.1-0.6 0.2-0.9 0.3 -0.2 0.1-0.5 0.2-0.5 0.3 -0.5 0.8-1.2 1.2-2.1 1.4 -0.8 0.1-1.6 0.2-2.4-0.1 -0.7-0.3-1.4-0.7-1.6-1.6 -0.1-0.6-0.4-1.2-1.1-1.5 -0.8-0.4-1.5-0.1-2.1 0.2 -0.7 0.3-1.3 0.8-2 1.2 -0.8 0.5-1.4 0.4-2-0.2 -0.8-0.9-1.3-1.9-1.4-3.1 -0.2-0.9-0.7-1.5-1.5-1.9 -0.7-0.3-1.4-0.6-1.7-1.3 -0.4-1.1-0.6-2.2-0.2-3.3 0.6 0.1 0.5 0.5 0.4 0.9 -0.1 0.8 0.3 1.3 0.9 1.7 0.5 0.5 1.1 0.9 1.5 1.4 0.6 0.7 1 1.6 1.2 2.6 0.2 0.9 0.6 1.4 1.4 1.7 0.5 0.2 1 0.3 1.4 0.4 0.1 0 0.3 0 0.5-0.1 0.4-0.2 0.8-0.4 1.3-0.7 1.6-0.9 3.7 0.1 4.2 1.7 0.1 0.2 0.3 0.5 0.5 0.6 0.9 0.5 1.8 0.2 2.7-0.1 0.1 0 0.2-0.4 0.3-0.6 0.1-0.2 0-0.4 0.1-0.5 0.7-0.7 1.1-1.6 2.1-2 0.7-0.3 0.9-1 0.5-1.6 -0.1-0.1-0.2-0.3-0.3-0.4 -1.1-1.4-2-1.6-3.4-0.8 -0.8 0.4-1 1-0.8 1.7 0.1 0.3 0.3 0.6 0.4 0.9 0.3 0.6 0.2 1.4-0.4 1.8 -0.2 0.1-0.4 0.1-0.7 0.2 0-0.1 0-0.1-0.1-0.2 0.1-0.1 0.1-0.2 0.2-0.3 0.6-0.5 0.6-0.7 0.3-1.5 -0.3-0.5-0.5-1-0.6-1.6 -0.2-0.8 0-1.5-0.8-2.1 -0.6-0.4-1.7-0.7-2.2-0.2 -0.4 0.4-0.8 0.8-1.2 1.3 -0.8 0.9-1.3 0.9-2.3 0.7 -0.8-0.2-1.9-2.1-1.8-3 0-0.6-0.2-1-0.7-1.3 -0.5-0.4-1.1-0.7-1.8-0.8 -0.1 0-0.2-0.2-0.3-0.3 0.1-0.1 0.3-0.2 0.4-0.2 0.3 0 0.5 0.1 0.8 0.1 1 0.1 1.7 0.6 2 1.6 0.2 0.6 0.4 1.1 0.7 1.7 0.4 0.9 1.7 1.2 2.5 0.6 0.3-0.3 0.6-0.5 0.9-0.8 0.9-0.8 2.7-1 3.7 0 0.6 0.6 1.3 0.6 1.9 0.5 1.4-0.2 2.7-0.1 3.8 0.9 0.1 0.1 0.3 0.2 0.5 0.3 0-0.9 0-1.7 0-2.5 0-0.6-0.4-0.9-0.9-1.2 -0.6-0.3-1.3-0.7-1.5-1.4 -0.8 0.6-1.6 0.3-2.5 0.3 -0.1 0-0.2 0-0.2 0 -0.7-0.5-1.4-0.2-2.1 0 -0.5 0.1-1 0.3-1.5 0.4 -0.9 0.2-1.5-0.2-2-1 -0.4-0.7-1-1.1-1.8-0.9 -0.6 0.1-1.2 0.3-1.8 0.5 -0.2 0-0.4 0.1-0.5 0 -0.2-0.2-0.1-0.4 0.2-0.6 1.4-1.2 4-0.9 5 0.1 0.3 0.3 0.6 0.6 1 0.6 0.8 0 1.6-0.2 2.5-0.3 -0.4-0.3-0.7-0.6-0.9-0.9 -0.6-0.6-1.3-1.3-1.2-2.2 0.1-0.6-0.1-0.8-0.6-1.1 -0.9-0.4-1.4-1.6-1.1-2.6 0.2-0.5 0.4-1 0.6-1.5 -0.1 0-0.2 0-0.3 0 -0.5 0.1-1 0-1.5-0.3 -0.5-0.3-0.6-0.6-0.7-1.1 0-1-0.1-2-0.6-2.8 -0.1-0.2-0.1-0.4-0.2-0.6 -0.5-0.8 0.1-1.8 1.1-2 0.7-0.2 1.4-0.3 2.1-0.5 0.2 0 0.4-0.1 0.6-0.2 -0.4-0.1-0.8-0.1-1.2-0.1 -0.4 0-0.8 0-1.2 0 -1.4-0.1-1.8-0.7-1.5-2 0.1-0.4 0.1-0.9-0.1-1.2 -0.5-0.8-0.7-1.6-0.9-2.4 -0.1-0.3-0.2-0.7-0.5-0.9 -0.4-0.4-0.9-0.8-1.4-1.1 -0.8-0.5-1.4-2.5-0.6-3.3 0.1-0.1 0.2-0.2 0.4-0.3 0 0.3-0.1 0.5-0.1 0.7 0 0.5-0.1 1.1 0.1 1.5 0.2 0.5 0.7 0.9 1.2 1.3 0.7 0.5 1.3 1.1 1.6 1.9C29.5 80.5 29.6 80.8 29.8 81.2zM38.8 84.4c0 0.1 0 0.2 0 0.2 0.1 0.8-0.3 1.5-0.8 2 -0.1 0.1-0.3 0.3-0.5 0.3 -0.5 0-1-0.1-1.6-0.1 -0.2 0-0.5 0-0.7 0.1 -0.8 0.6-1.7 1.1-2.7 1.4 -0.7 0.2-1.3 0.3-2 0.5 0.2 0.5 0.4 0.9 0.6 1.4 0 0.1 0.1 0.2 0.1 0.2 0.4 0 0.8 0 1.2 0 0.1 0 0.2 0.1 0.2 0.1 -0.1 0.1-0.1 0.2-0.2 0.2 -0.2 0-0.4 0-0.7 0 -0.2 0-0.4 0.1-0.6 0.1 0 0 0 0.1 0 0.1 0.4 0 0.9 0 1.4 0 -0.3 0.5-0.8 0.3-1.2 0.5 0.4 0 0.7-0.1 1.1-0.1 0.1 0 0.2 0 0.3 0.1 -0.1 0.1-0.2 0.1-0.3 0.2 -0.4 0.1-0.8 0.2-1.2 0.3 0 0 0 0.1 0 0.1 1.2 0.1 2.3-0.1 3.4-0.9 -0.6 1.3-1.9 1-3 1.5 0.9 0.2 1.6 0 2.2-0.3 0.5-0.3 1-0.4 1.5-0.7 0.7-0.3 1.4-0.6 2-0.9 0-0.1 0-0.1 0-0.2 -0.2-0.1-0.5-0.1-0.7-0.2 -0.5-0.2-1-0.4-1.5-0.7 -0.2-0.1-0.2-0.4-0.3-0.6 0.1 0 0.1-0.1 0.2-0.1 0.2 0.2 0.5 0.4 0.7 0.5 0.8 0.3 1.6 0.5 2.4 0.7 0.5 0.1 1.1-0.1 1.3-0.6 0.1-0.3 0.2-0.7 0.1-1 0-0.1-0.3-0.2-0.5-0.4 -0.5-0.3-0.7-1.2-0.4-1.7 0.1 0.2 0.3 0.3 0.3 0.5 0.1 0.4 0.3 0.6 0.7 0.8 0.2 0.1 0.3 0.4 0.4 0.6 0.1 0.2 0.1 0.4 0.1 0.6 0 0.6 0.1 0.7 0.7 0.6 0.3 0 0.7-0.1 0.9-0.3 0.8-0.6 1.7-0.8 2.7-0.9 0.1 0 0.2 0.2 0.4 0.3 -0.1 0.1-0.2 0.2-0.3 0.2 -0.2 0.1-0.5 0-0.7 0.1 -0.4 0.1-0.8 0.3-1.2 0.4 0 0.1 0 0.2 0.1 0.2 0.7 0 1.3-0.1 1.9-0.1 0.5 0 0.9-0.3 1-0.9 0.1-0.8-0.1-1.6-0.7-1.8 -0.4-0.1-0.8-0.1-1.2-0.1 0.2 0.3 0.4 0.6 0.6 0.9 -0.1 0-0.1 0.1-0.2 0.1 -0.3-0.3-0.6-0.5-0.8-0.9 -0.2-0.4-0.5-0.5-0.9-0.3 0.3 0.4 0.6 0.8 0.9 1.1 -0.1 0-0.1 0.1-0.2 0.1 -0.3-0.2-0.5-0.4-0.8-0.6 0 0.2-0.1 0.3-0.1 0.4 -0.1 0-0.1-0.1-0.2-0.1 -0.5-0.5-0.9-1.1-1.5-1.4 -0.1-0.1-0.2-0.2-0.3-0.3 -0.3-0.4-0.4-0.9-0.2-1.3 0.2-0.3 0.7-0.4 1.1-0.4 0.9 0.1 1.8 0.3 2.7 0.5 0.9 0.2 1.4-0.1 1.7-0.9 0.1-0.3 0.1-0.5 0.2-0.8 0.1-0.6-0.2-1.1-0.8-1.3 0.2 0.2 0.3 0.4 0.4 0.6 0 0.1 0 0.2 0 0.3 -0.1 0-0.2-0.1-0.3-0.1 -0.1-0.2-0.2-0.5-0.4-0.7 -0.1-0.1-0.2-0.2-0.4-0.2 0 0-0.1 0.1-0.1 0.1 0.2 0.3 0.5 0.7 0.7 1 0.1 0.1 0.1 0.3 0.1 0.5 -0.1-0.1-0.3-0.1-0.4-0.2 -0.3-0.3-0.5-0.7-0.7-1.1 -0.1-0.1-0.2-0.1-0.4-0.2 0 0.1-0.1 0.1-0.1 0.2 0.2 0.3 0.5 0.6 0.7 0.9 0.1 0.1 0 0.2 0 0.4 -0.1 0-0.2-0.1-0.3-0.1 -0.3-0.3-0.5-0.7-0.8-1 -0.1-0.1-0.3-0.2-0.5-0.3 0 0-0.1 0.1-0.1 0.1 0.2 0.3 0.5 0.6 0.7 0.9 0 0-0.1 0.1-0.1 0.1 -0.1-0.1-0.3-0.1-0.4-0.2 -0.3-0.4-0.6-0.8-1-1.1 -0.5-0.3-0.7-0.7-0.9-1.3 -0.3-0.9-0.1-1.5 0.7-2 0.1-0.1 0.2-0.1 0.3-0.2C41.7 78 41.7 78 41.6 78c-0.6-0.4-0.8-0.4-1.2 0.3 -0.1 0.2-0.3 0.4-0.5 0.6 -0.3 0.4-0.6 0.9-0.8 1.3 -0.1 0.2-0.2 0.5-0.3 0.8 -0.4 0.7-1.3 0.9-1.9 0.3 -0.1-0.1-0.4-0.1-0.5 0 -0.4 0.3-0.8 0.5-1.4 0.6 -1.4 0.3-2.7 0.2-4-0.5 -0.6-0.3-0.8-0.2-0.8 0.5 0 0.7 0 1.3 0 2 0 0.7 0.3 1 1 1 0.5 0 1-0.1 1.5-0.2 0.2 0 0.3 0 0.5 0.1 0 0.1 0 0.3-0.1 0.3 -0.9 0.1-1.8 0.5-2.7 0.1 -0.1 0-0.2 0-0.4-0.1 0.2 0.2 0.3 0.3 0.4 0.3 0.6 0.1 1.2 0.2 1.8 0.2 0.9 0 1.8-0.3 2.7 0 0.4 0.1 0.6-0.1 0.7-0.4 0.1-0.4 0.2-0.7 0.2-1.1 0.1-0.7 0.7-1.4 1.5-1.3 0.4 0.1 0.8 0.4 1.1 0.7 0.4 0.4 1.2 0.6 1.7 0.3 0.2-0.1 0.4-0.5 0.4-0.7 0-0.3-0.2-0.5-0.6-0.5 -0.3 0-0.3-0.2-0.3-0.5 1-0.1 1.4 0.3 1.4 1.1C41.1 84.1 40.6 84.4 38.8 84.4zM43.2 105.8c0 0-0.1 0-0.1 0 0 0.6 0 1.2-0.1 1.8 -0.1 0.7-0.1 1.5-0.4 2.1 -0.5 1.2-1.2 2.1-2.4 2.7 -0.4 0.2-0.6 0.7-0.5 1.1 0.2 0 0.4-0.1 0.6-0.2 0.8-0.5 1.7-0.9 2.1-1.9 0.1-0.2 0.2-0.3 0.4-0.5 0.6-0.5 1-1.2 1.4-1.9 0.1-0.1 0.1-0.3 0.1-0.4 0.1-0.5 0.3-1.1 0.4-1.6 0.2-0.8 0.3-1.6 0-2.4 -0.3-0.8-0.3-1.6-0.4-2.4 0-0.1 0.1-0.3 0.2-0.4 0.1 0.1 0.3 0.2 0.3 0.4 0.1 0.3 0 0.7 0.1 1 0.2 0.6 0.4 1.3 0.6 1.9 0.1 0.4 0.2 0.8 0.3 1.3 0 0 0.1 0 0.1 0 0.1-0.1 0.1-0.2 0.2-0.3 0.3-0.4 0-0.9 0.1-1.3 0-1.1-0.4-1.9-0.9-2.8 -0.4-0.7-0.8-1.5-0.6-2.4 0.3-1.1-0.3-1.9-0.9-2.7 -0.3-0.4-0.8-0.7-1.2-0.7 -1.3-0.2-1.9-1.1-2.5-2 -0.2-0.3 0-0.9 0.4-1 0 0.1 0 0.2 0 0.2 0.1 0.8 0.5 1.3 1.1 1.7 0.6 0.3 1.2 0.4 1.8 0.5 0.5 0.1 1 0.3 1.3 0.8 0.3 0.4 0.6 0.7 0.7 1.2 0.2 0.6 0.5 1.2 0.2 1.9 -0.2 0.5-0.1 1 0.2 1.4 0.2 0.4 0.5 0.7 0.7 1.1 0.4 0.7 0.7 1.4 1 2.1 0.4-1 0.1-1.9-0.4-2.7 -0.6-1-0.7-1.9-0.6-3 0-0.3 0-0.7 0.5-0.9 0.1 1.3-0.1 2.6 0.8 3.7 0.4-0.6 0.3-1.2 0.3-1.9 -0.1-0.7-0.4-1.3-1-1.7 -0.4-0.3-0.9-0.5-1.3-0.7 -0.6-0.3-0.9-0.7-1.1-1.3 -0.1-0.3 0-0.6 0.1-0.8 0-0.2 0.1-0.5 0.2-0.7 0.1 0 0.1 0 0.2 0 0.1 0.2 0.1 0.3 0.2 0.5 0.1 0.6 0.3 1.2 0.8 1.7 0.8-1.2 1.2-2.1-0.5-2.8 -0.2 0.1-0.4 0.1-0.6 0.1 -0.2 0-0.4-0.1-0.6 0 -0.3 0.1-0.6 0.2-0.9 0.3 -0.1 0-0.3-0.1-0.4-0.1 0.1-0.1 0.1-0.3 0.2-0.4 0.2-0.2 0.5-0.3 0.8-0.5 -0.4-0.2-0.8-0.4-1.1-0.4 -0.5 0-1 0.3-1.5 0.4 -0.1 0-0.2 0.2-0.4 0.2 -0.1 0-0.4 0.1-0.4 0 -0.1-0.2-0.1-0.4-0.1-0.7 0-0.1 0.2-0.2 0.3-0.2 0.3-0.1 0.6-0.2 0.9-0.3 -0.1-0.5-0.3-0.9-0.8-0.9 -0.5 0-0.9 0.2-1.1 0.6 -0.3 0.6-0.7 1.2-0.9 1.8 -0.1 0.3-0.2 0.7-0.2 1 0 0.9 0 1.7 0 2.6 0 0.2-0.1 0.5-0.1 0.7 0 0-0.1 0-0.1 0 0-0.5 0.1-1 0.1-1.5 0-0.5-0.1-1.1-0.1-1.6 0 0-0.1 0-0.1 0 -0.1 0.3-0.2 0.7-0.2 1 0 0.5 0.1 0.9 0.1 1.4 0 0.3 0 0.3-0.3 0.3 -0.1-0.6-0.1-1.1-0.2-1.6 -0.1 0-0.1 0-0.2 0 0 0.3 0 0.7 0 1 -0.1 0.7-0.1 0.7-0.4 0.7 0.1-0.4 0.1-0.7 0.2-1.1 -0.1 0-0.1 0-0.2 0 -0.1 0.2-0.2 0.4-0.2 0.6 0 0.2 0 0.5 0 0.7 0 0.1-0.2 0.2-0.3 0.3 0-0.1-0.1-0.2 0-0.3 0-0.3 0.1-0.5 0.1-0.9 -0.6 0.4-1.1 0.7-1.6 1 0 0.1 0 0.3 0.1 0.5 0.1 0.5 0.2 1 0.5 1.4 0.4 0.7 1.1 0.8 1.8 1 0.7 0.2 1.5 0.4 2.2 0.7 0 0.1 0 0.1 0 0.2 -0.2 0.1-0.3 0.2-0.5 0.2 -0.6 0-1.1 0-1.7 0 -0.2 0-0.4 0.1-0.6 0.2 0.2 0.2 0.4 0.4 0.6 0.6 0 0 0.1 0 0.2 0 0.3 0.1 0.7 0.1 1 0.2 0.2 0.1 1.4-0.3 1.5-0.5 0 0 0-0.1 0.1-0.2 0.1-0.8-0.1-1.5-0.8-1.9 -0.3-0.2-0.4-0.4-0.2-0.7 0.9 0 1.2 0.8 1.7 1.3 0.1 0.1 0.1 0.4 0.1 0.6 0 0.4 0 0.7 0 1.1 0 0.4 0.2 0.7 0.7 0.7 0.1-0.6 0.2-1.2 0.4-1.8 0 0 0.1 0 0.1 0 0 0.6-0.1 1.3-0.1 1.9 0.1-0.3 0.2-0.6 0.2-1 0-0.3 0.1-0.6 0.1-0.9 0.1 0 0.1 0 0.2 0 0 0.6-0.1 1.3-0.1 1.9 0.1-0.1 0.2-0.1 0.2-0.2 0.1-0.7 0.1-1.4 0.3-2 0.1-0.4 0.2-0.8 0.1-1.2 0-0.1 0.1-0.2 0.2-0.4 0.1 0.2 0.3 0.3 0.3 0.4 0.3 1.2 0.6 2.4 0.5 3.6 0 0.6 0 1.1 0.1 1.7 0 0.4 0.2 0.7 0.2 1 0 0.6 0 1.3 0 1.9 0 0.1-0.1 0.3-0.1 0.5 -0.3-0.3-0.7-0.4-0.6-1C43.5 106.9 43.3 106.3 43.2 105.8zM44.5 8.2c-0.6-0.5-1.2-1.2-1.9-1.7 -1.1-0.8-2.4-1-3.7-0.4 -0.7 0.3-1.4 0.7-2.1 1.1 -0.3 0.1-0.4 0.2-0.2 0.6 0.5 1.2 0.5 2.3-0.4 3.4 -0.5 0.6-1 1.2-1.4 1.9 -0.4 0.7-0.7 1.4-0.9 2.1 -0.2 1 0.4 1.8 0.9 2.6 0.1 0.1 0.3 0.1 0.5 0.1 0.5-0.1 1.1-0.3 1.6-0.3 1.3 0 2.6 0.2 3.8 0.7 0.6 0.2 1.2 0.5 1.8 0.7 0-0.1 0-0.1 0-0.2 0.1-0.6-0.1-1.2 0.3-1.7 0.1-0.1 0-0.3-0.1-0.4 -0.3-0.8-0.3-1.4 0.3-2 0.1-0.1 0.1-0.3 0.1-0.5 -0.1-0.9-0.2-1.8 0.3-2.6 0-0.1 0-0.2 0-0.3 -0.2-0.6-0.7-0.8-1.2-1.1 -0.1-0.1-0.3-0.1-0.5-0.1 -1 0-1.7 0.6-2.5 1.2 -0.6 0.4-1.3 0.6-1.9 0.2 -0.1-0.1-0.2-0.3-0.2-0.4 0-0.1 0.2-0.2 0.3-0.2 0.7 0.1 1.2-0.2 1.7-0.6 0.6-0.4 1.3-0.8 2-1.1 0.4-0.2 0.9-0.2 1.3 0.2 0.2 0.2 0.4 0.3 0.6 0.3C43.8 9.2 44.1 8.7 44.5 8.2zM48.6 15.9c0 0-0.1 0.1-0.1 0.1 0.2 0.3 0.4 0.6 0.7 0.8 0.1 0.1 0.3 0.2 0.4 0.4 0.2 0.6 0.8 0.8 1.3 1 0.2 0.1 0.5 0.1 0.7 0 1-0.1 1.7-0.8 2.4-1.4 0.5-0.4 0.9-0.8 1.6-0.8 0.8 0 1.5 0.3 2 0.9 0.3 0.4 1.2 0.6 1.6 0.4 0.9-0.5 1.3-1.5 0.7-2.4 -0.2-0.4-0.5-0.7-0.8-1 -0.7-0.8-1.3-1.7-1.4-2.9 0-0.6-0.1-1.2-0.3-1.7 -0.7-1.7-2-2.8-3.8-3.3 -0.5-0.1-1.2-0.2-1.6 0 -0.9 0.4-1.8 1-2.6 1.5 0.5 0.3 1 0.6 1.5 0.9 0.5 0.3 0.6 0.7 0.3 1.1C51 10 50.7 10 50.2 9.7c-0.1-0.1-0.2-0.2-0.4-0.2 -0.6-0.3-1.2-0.3-1.8-0.1 0.4 0.2 0.8 0.4 1.2 0.5 0 0 0.1 0.1 0.1 0.1 0.2 0.3 0.9 0.6 1.3 0.5 0.4-0.1 0.7-0.2 1.1-0.2 1.4-0.1 2.3 0.8 3.1 1.8 0.4 0.6 0.8 1.1 1.6 1.2 0.3 0 0.5 0.1 0.8 0.2 0.1 0.1 0.2 0.2 0.4 0.3 -0.1 0.1-0.2 0.1-0.3 0.2 -0.9 0.1-1.8 0-2.6-0.7 -0.3-0.2-0.5-0.5-0.8-0.7 -0.4-0.4-0.7-0.9-1.3-1.1 -0.5-0.1-1.4 0.2-1.5 0.6 -0.2 0.9-1 1.1-1.7 0.5 -0.2-0.2-0.4-0.4-0.6-0.5 -0.6-0.4-1.3-0.6-2-0.5 0.3 0.3 0.7 0.6 1 1 0.4 0.4 0.8 0.7 1.3 0.9 0.3 0.1 0.6 0.2 0.9 0.4 0.4 0.3 0.7 1.1 0.5 1.5 -0.3 0.6-0.8 0.8-1.4 0.6C48.9 16 48.8 16 48.6 15.9zM43.5 78.2c0.1 0.2 0.2 0.4 0.3 0.5 0.3 0.5 0.6 0.5 1 0.2 0.2-0.2 0.5-0.4 0.7-0.7 0.6-0.7 0.6-1.5-0.1-2.1 -0.5-0.4-1.2-0.7-1.9-0.5 -0.1 0-0.2 0-0.3-0.1 -0.2-0.2-0.3-0.4-0.5-0.6 -0.4-0.5-0.9-1-1.6-0.9 -0.7 0.1-1.3 0.2-2 0.5 -1.2 0.5-2.4 0.6-3.7 0.4 -0.3 0-0.5-0.1-0.8-0.1 -0.7 0-1.3-0.2-1.9-0.8 0 0.2 0.1 0.4 0.2 0.5 0.4 0.3 0.9 0.5 1.4 0.7 0.4 0.1 0.8 0.1 1.1 0.3 0.1 0 0.2 0.2 0.3 0.3 -0.1 0-0.3 0.2-0.4 0.1 -0.9-0.2-1.8-0.3-2.6-0.9 -0.1-0.1-0.2-0.1-0.3-0.1 -0.1 0.4-0.1 0.8-0.2 1.2 -0.3 1.3 0.3 2.1 1.6 2.4 0.5 0.1 1.1 0.2 1.6 0.3 0.4 0.1 0.7 0.1 1.1 0.1 0.3 0 0.6-0.1 0.6-0.5 0.1-0.3 0.1-0.6 0.2-0.9 0.3-0.8 0.6-1 1.5-0.9 0.4 0.1 0.7 0.3 1.1 0.4 0.3 0.1 0.6 0.2 0.9 0.2 0.5 0 0.9-0.2 1.4-0.3 0.6-0.1 1.1-0.1 1.7-0.1 0 0 0 0.1 0 0.1 -0.3 0.2-0.7 0.2-1 0.2 -0.4 0-0.8 0.1-1.2 0.1 0 0 0 0.1 0 0.1 0.1 0.1 0.3 0.3 0.4 0.3 0.5 0 1.1 0 1.6 0 0.5 0 0.7 0.3 0.9 0.7C44.2 78.2 43.9 78.2 43.5 78.2zM34.4 70.7c0 0.6 0.3 1 0.9 1 1.1 0.1 2.2 0.2 3.2 0.2 0.2 0 0.5-0.1 0.6-0.3 0.3-0.3 0.5-0.6 0.7-0.9 0.4-0.7 1.1-0.9 1.8-0.6 0.2 0.1 0.4 0.3 0.5 0.6 0.2 0.7 0.3 0.8 1 0.5 0.2-0.1 0.4-0.2 0.6-0.2 0.1 0 0.2-0.1 0.3 0 0.7 0.2 1.5 0.5 2.2 0.7 0.1 0 0.4 0 0.5-0.1 0.1-0.1 0.1-0.3 0-0.5 -0.1-0.3-0.2-0.7-0.3-1 -0.2-0.5-0.2-1-0.8-1.3 -0.2-0.1-0.3-0.4-0.4-0.6 -0.1-0.1-0.1-0.3-0.2-0.4 -0.2 0.1-0.4 0.3-0.6 0.4 0.4 0.7 0.8 1.4 1.3 2.1 0 0-0.1 0.1-0.1 0.1 -0.1 0-0.1-0.1-0.2-0.1 -0.4-0.5-0.7-1.1-1.1-1.6 -0.1-0.1-0.2-0.2-0.3-0.3 0 0-0.1 0.1-0.1 0.1 0.3 0.5 0.6 1 0.9 1.5 -0.1 0-0.1 0.1-0.2 0.1 -0.4-0.5-0.8-1-1.1-1.6 0 0.2 0.1 0.4 0.2 0.5 0.1 0.2 0.1 0.3 0.2 0.6 -0.2-0.1-0.2-0.1-0.2-0.1 0-0.1-0.1-0.1-0.1-0.2 -0.4-0.5-0.7-1-1.4-0.6 -0.1 0-0.2 0-0.3 0 -1.1 0-2.2-0.3-3.2-0.7 -0.7-0.3-1.4-0.4-2.1-0.6 0 0.1 0 0.1-0.1 0.2 0.5 0.1 1 0.2 1.5 0.4 0.1 0 0.2 0.2 0.3 0.3 -0.1 0.1-0.3 0.2-0.4 0.2 -0.6-0.2-1.2-0.4-1.8-0.6 -0.3-0.1-0.6-0.2-0.8-0.4 -0.1 0.3-0.2 0.6-0.2 1 -0.1 0.6 0 0.7 0.7 0.8 0.1 0 0.3 0.1 0.4 0.2 0 0.1 0 0.1-0.1 0.2 -0.4-0.1-0.8-0.2-1.2-0.3 0 0-0.1 0.1-0.1 0.1 0.1 0.1 0.1 0.3 0.3 0.4 0.2 0.1 0.4 0.1 0.6 0.1 0.1 0 0.1 0.1 0.2 0.2 0 0 0 0.1-0.1 0.1 -0.4-0.1-0.8-0.1-1.1-0.2 0 0 0 0.1 0 0.1 0.7 0.5 1.3 1.1 2.4 0.7 -0.3 0.5-0.7 0.6-1 0.4C35.4 71.2 34.9 71 34.4 70.7zM50.4 59.3c0.1-0.2 0.2-0.4 0.3-0.6 0.1-0.1 0.2-0.1 0.3-0.2 0.1 0.1 0.2 0.2 0.2 0.3 0.1 0.4 0.1 0.8 0.2 1.1 0.1 0.4 0.4 0.5 0.7 0.3 0.2-0.2 0.4-0.4 0.6-0.6 0.5-0.3 0.3-0.5 0-0.8 -0.5-0.6-1-1.3-1.5-2 -0.1-0.1-0.4-0.2-0.5-0.1 -0.6 0.3-1.1 0.6-1.6 0.9 -0.2 0.1-0.3 0.2-0.5 0.2 -1.5 0.2-3-0.2-4.4-0.7 -0.5-0.2-0.9-0.6-1.4-0.5 -0.4 0.1-0.8 0.4-0.8 0.8 0 0.4 0.4 0.4 0.7 0.4 0.1 0 0.1 0 0.2 0.1 -0.4 0.7-0.7 0-1.1 0 0.1 0.2 0.1 0.4 0.3 0.5 0.3 0.2 0.7 0.2 1 0.4 0.1 0 0.2 0.2 0.3 0.2 -0.1 0-0.3 0.1-0.4 0.1 -0.4-0.1-0.8-0.3-1.1-0.4 -0.1 0-0.2 0-0.3 0 0 0 0 0.1 0 0.1 0.6 0.3 1.3 0.6 2 0.9 -0.1 0.3-0.3 0.3-0.5 0.2 -0.9-0.5-1.1-0.6-1.5-0.4 0.6 0.3 1.3 0.7 2 0.8 0.9 0.2 1.8 0.3 2.5 0.8 0.4 0.2 0.6 0.1 0.8-0.3 0.2-0.4 0.5-0.8 0.8-1.2 0.4-0.6 1.4-0.3 1.6 0.4 0.1 0.4 0.1 0.8 0.1 1.1 0 0.3 0.1 0.7 0.2 1 0 0.1 0.2 0.2 0.2 0.2 0.2-0.2 0.5-0.4 0.7-0.7 0-0.1-0.2-0.3-0.3-0.5 -0.1-0.1-0.2-0.2-0.3-0.3 0 0 0.1-0.1 0.1-0.1 0.2 0.1 0.4 0.3 0.6 0.3 0.1 0 0.2 0 0.4 0 -0.1-0.1-0.1-0.2-0.2-0.3 -0.2-0.2-0.4-0.3-0.6-0.5 0 0 0.1-0.1 0.1-0.1 0.3 0.1 0.5 0.2 0.8 0.4 0 0 0.1-0.1 0.1-0.1 -0.2-0.2-0.5-0.5-0.7-0.7 0 0 0.1-0.1 0.1-0.1 0.2 0 0.3 0.1 0.6 0.2C50.5 59.6 50.5 59.4 50.4 59.3zM44.3 52.4c0 0.1-0.1 0.1-0.1 0.2 0.1 0.1 0.2 0.2 0.3 0.2 0.2 0 0.5-0.1 0.7 0 0.2 0 0.3 0.1 0.5 0.1 -0.1 0.1-0.3 0.2-0.4 0.2 -0.3 0-0.7 0-1 0 0 0.1 0 0.1 0 0.2 0.3 0.1 0.7 0.1 1 0.2 0 0.1 0 0.1 0 0.2 -0.4 0-0.7 0.1-1.1 0.1 0 0 0 0.1 0 0.1 0.5 0.1 0.9 0.2 1.4 0.3 0 0.1 0 0.1 0 0.2 -0.2 0-0.4 0.1-0.6 0 -0.3 0-0.6-0.2-0.9-0.1 -0.2 0-0.4 0.2-0.5 0.4 0 0.1 0.2 0.4 0.3 0.5 0.5 0.1 1.1 0.3 1.6 0.2 1-0.1 2-0.1 3 0.1 0.6 0.2 1.1-0.1 1.5-0.6 0.1-0.1 0.1-0.2 0.2-0.4 0.3-0.4 0.9-0.6 1.3-0.3 0.4 0.3 0.5 0.6 0.2 1.1 -0.2 0.5-0.1 1.2 0.4 1.5 0.1 0.1 0.4 0 0.4 0 0.1-0.5 0.3-1.1 0.1-1.6 -0.1-0.4-0.1-0.6 0.3-0.6 -0.2-0.3-0.4-0.5-0.6-0.8 0 0 0.1-0.1 0.1-0.1 0.2 0.2 0.5 0.4 0.7 0.6 0.1-0.2 0.1-0.3 0-0.4 -0.2-0.3-0.5-0.6-0.7-0.9 -0.1-0.1-0.1-0.2-0.2-0.3 0 0 0.1 0 0.1-0.1 0.4 0.4 0.8 0.8 1.3 1.2 0.1 0 0.1-0.1 0.2-0.1 -0.4-0.5-0.8-1-1.1-1.5 0.1 0 0.2 0 0.3 0.1 0.3 0.4 0.7 0.7 1 1.1 0.1 0.1 0.2 0.1 0.3 0.1 0-0.1-0.1-0.2-0.1-0.3 -0.2-0.3-0.4-0.6-0.6-0.9 -0.1-0.1-0.1-0.3-0.1-0.4 0 0 0.1 0 0.1 0 0.3 0.4 0.6 0.7 0.8 1.1 0-0.3-0.2-0.5-0.3-0.7 -0.1-0.2-0.2-0.4-0.3-0.6 0.1 0 0.1-0.1 0.2-0.1 0.3 0.4 0.6 0.8 0.9 1.1 0 0 0.1 0 0.1-0.1 0-0.2 0-0.4-0.1-0.5 -0.3-0.5-0.6-0.9-0.9-1.4 -0.2-0.2-0.4-0.2-0.6-0.1 -0.4 0.2-0.8 0.5-1.1 0.8 -0.9 0.8-1.8 1.4-3.1 0.8 -0.5-0.2-1.1-0.2-1.6-0.3 -0.9-0.2-1.8-0.4-2.7-0.5 -0.1 0-0.3 0.3-0.5 0.4 0.1 0.1 0.3 0.2 0.4 0.2 0.3 0.1 0.5 0 0.8 0.1 0.5 0.1 1 0.3 1.5 0.5 0 0.1 0 0.1 0 0.2C46.2 52.7 45.2 52.5 44.3 52.4zM43.4 63.1c0 0 0 0.1 0.1 0.1 -0.1 0.1-0.2 0.4-0.3 0.4 -0.5 0-1 0.1-1.4-0.1 -0.7-0.2-1.4-0.6-2.1-0.9 -0.2-0.1-0.4-0.1-0.6-0.1 -0.2 0-1.1 1.3-1.1 1.5 -0.1 1.3 0.8 2.3 2.1 2.3 0.8 0 1.6 0.2 2.3 0.6 0.4 0.3 0.6 0.2 0.8-0.3 0.1-0.3 0.2-0.5 0.4-0.8 0.2-0.3 0.5-0.5 0.9-0.5 0.3 0 0.6 0.1 0.9 0.2 0.7 0.1 1.4 0.2 2.1 0.3 0.1 0 0.4 0 0.5-0.1 0.8-0.7 0.8-0.9 0.3-1.8 0-0.1-0.1-0.2-0.1-0.3 0 0 0 0-0.1-0.1 -0.1 0.1-0.1 0.2-0.2 0.3 -0.3-0.4-0.5-0.7-0.8-1 0 0-0.1 0.1-0.1 0.1 0.2 0.4 0.4 0.7 0.6 1.1 0 0-0.1 0.1-0.1 0.1 -0.1-0.1-0.3-0.1-0.3-0.2 -0.2-0.3-0.3-0.6-0.5-0.8 -0.1-0.1-0.3-0.2-0.4-0.3 0 0-0.1 0.1-0.1 0.1 0.2 0.4 0.4 0.7 0.5 1.1 0 0.1 0 0.2 0 0.3 -0.1-0.1-0.2-0.1-0.3-0.2 -0.2-0.4-0.4-0.7-0.6-1.1 -0.1-0.1-0.2-0.2-0.3-0.2C44.8 62.9 44.1 63 43.4 63.1zM53.4 45.2c-0.4 0.4-0.9 0.8-0.8 1.5 0 0.1-0.1 0.2-0.1 0.2 -0.5 0.5-1.4 0.5-2 0 -0.2-0.2-0.5-0.4-0.8-0.5 -0.8-0.1-1.7-0.1-2.5 0 -0.6 0-0.8 0.3-0.8 0.9 0.9 0.1 1.7 0.2 2.6 0.3 0 0.1 0 0.1 0 0.2 -0.1 0-0.3 0.1-0.4 0 -0.6 0-1.2-0.1-1.8-0.2 -0.2 0-0.5-0.1-0.5 0.4 1 0.2 2.1 0.3 3.2 0.5 -0.2 0.1-0.3 0.2-0.5 0.2 -0.6-0.1-1.3-0.1-1.9-0.2 -0.2 0-0.5-0.1-0.7-0.1 0 0 0 0.1 0 0.1 0.8 0.3 1.7 0.6 2.5 0.9 -0.1 0.1-0.2 0.2-0.3 0.2 -0.2-0.1-0.4-0.2-0.6-0.3 -0.6-0.3-1.2-0.4-1.6-0.3 0.6 0.6 1.4 0.7 2.2 0.7 0.2 0 0.3 0 0.5 0 0.4 0 0.7-0.1 0.9-0.5 0.1-0.1 0.2-0.2 0.4-0.3 1-0.4 1.7 0.1 2.4 0.8 0.2 0.2 0.6 0.3 0.9 0 0.4-0.3 0.8-0.6 1.2-0.9 0.1-0.1 0.3-0.1 0.5-0.2 0.2-0.1 0.5-0.1 0.5-0.2 0-0.3 0.1-0.8-0.1-1C54.8 46.6 54.1 45.9 53.4 45.2zM50.5 43.1c0-0.1 0-0.1 0-0.2 1.1 0.1 2.1 0.2 3.2 0.2 -0.1-0.2-0.3-0.5-0.3-0.7 0-0.2 0.1-0.6 0.2-0.7 0.1-0.1 0.5 0 0.7 0.1 0.4 0.4 0.8 0.8 0.8 1.4 0.4-0.3 0.8-0.6 1.3-1 -0.3-0.2-0.6-0.3-0.9-0.4 -0.4-0.2-0.9-0.5-1-1 -0.1-0.4-0.3-0.5-0.6-0.5 -0.3-0.1-0.5 0.1-0.6 0.3 -0.1 0.2-0.2 0.4-0.3 0.6 -0.2 0.3-0.5 0.7-0.9 0.6 -0.9-0.2-1.9-0.2-2.9-0.2 -0.7 0-1.2 0.3-1.4 0.7 0.3 0.2 0.7-0.1 1 0.3 -1.5 0.3-1.5 0.3-1.5 0.5 0.5 0 1.1 0 1.6 0 0 0.1 0 0.1 0 0.2 -0.6 0.2-1.2 0.1-1.9 0.3 0.5 0 1 0 1.5 0 0.1 0.5-0.2 0.4-0.4 0.4 -0.2 0-0.4 0-0.6 0 0.1 0.1 0.2 0.2 0.2 0.2 0.1 0.1 0.2 0.1 0.3 0.2 -0.1 0-0.2 0.1-0.3 0.1 -0.2 0-0.4-0.1-0.6-0.1 0 0 0 0.1 0 0.1 0.5 0.4 1 0.2 1.6 0.1 0.6-0.1 1.1-0.2 1.7-0.2 1.4-0.1 1.4-0.1 1.7-0.4 -0.6 0-1 0-1.5 0 0-0.1 0-0.1 0-0.2 0.2 0 0.4-0.1 0.6 0 0.4 0.1 0.8-0.1 1.3 0 0.3 0.1 0.8 0 1 0.5 0.1 0.2 0.2 0.3 0.3 0.5 0-0.1 0-0.1 0-0.2 0.3 0 0.5-0.1 0.8-0.1 0.1 0 0.1 0.1 0.2 0.2 -0.1 0.1-0.2 0.2-0.3 0.2 -0.2 0-0.4 0-0.7 0 0.1 0.2 0.2 0.3 0.3 0.5 0.2 0.3 0.5 0.5 0.8 0.3 0.2-0.2 0.3-0.6 0.2-0.9 0-0.3-0.2-0.6-0.3-0.9 0-0.2-0.1-0.3-0.4-0.3 -0.5 0.1-0.9 0-1.4 0 -0.3 0-0.6-0.2-0.8-0.2 -0.6 0-1.2 0-1.8-0.1C50.7 43.2 50.6 43.1 50.5 43.1zM54.2 36.8c0-0.1 0.2-0.3 0.2-0.5 0-0.2 0-0.5-0.1-0.6 -0.1-0.1-0.4-0.2-0.6-0.2 -0.8 0.2-1.5 0.3-2.3 0.7 -0.9 0.4-1.9 0.8-3 0.9 -1 0.1-1.2 0.3-1.2 1.2 0 0.6 0.3 1.2 0.5 1.8 0.1 0.1 0.3 0.3 0.5 0.3 0.8 0 1.6 0 2.2-0.5 0.1-0.1 0.2-0.3 0.2-0.5 -0.1-0.4-0.2-0.8-0.4-1.3 0.2 0.1 0.3 0.1 0.4 0.2 0-0.3-0.1-0.6-0.1-0.9 0.2 0.1 0.2 0.1 0.3 0.2 0-0.1 0.1-0.3 0.1-0.4 0.1 0.1 0.2 0.2 0.3 0.2 0-0.1 0.1-0.3 0.1-0.4 0.1 0.1 0.2 0.1 0.2 0.2 0.4 0.5 0.9 1.1 1.3 1.6 0.4 0.6 1 0.8 1.6 1 0.1 0 0.4-0.1 0.5-0.2 0.1-0.1 0-0.4-0.1-0.5 -0.4-0.4-0.9-0.8-0.7-1.5 -0.3 0.2-0.7 0.2-0.9 0.5 -0.3 0.3-0.5 0.1-0.7-0.1 -0.1-0.1-0.2-0.3-0.3-0.5 -0.1-0.3 0-0.5 0.3-0.6C53.2 36.8 53.7 36.8 54.2 36.8zM47.1 25.1c0.1-0.2 0.2-0.5 0.4-0.7 0.5-0.5 0.5-0.8-0.1-1.2 0 0 0 0-0.1-0.1 -0.5-0.4-0.8-0.4-1.3-0.1 -0.2 0.1-0.5 0.3-0.8 0.3 -0.5 0-0.7 0.3-0.7 0.7 0 0.3 0 0.6 0 0.9 0 0.9 0.6 1.1 1.3 0.9 0.6-0.1 1.1-0.3 1.7-0.4 0.6 0 1.3-0.1 1.8 0.5 0.1 0.1 0.3 0.2 0.4 0.2 0.3-0.2 0.6 0 0.9 0.2 0.4 0.3 0.9 0.3 1.3 0 0.1-0.1 0.2-0.3 0.2-0.4 0-0.1-0.1-0.3-0.2-0.4 -0.3-0.1-0.6-0.2-0.9-0.3 0 0.5-0.4 0.5-0.6 0.5 -0.3 0-0.7-0.2-0.6-0.6 0.2-0.6-0.2-0.6-0.6-0.7 -0.2 0-0.3-0.1-0.5-0.1 -0.3-0.1-0.4 0-0.5 0.2 -0.1 0.3-0.3 0.5-0.4 0.8C47.5 25.3 47.4 25.3 47.1 25.1zM49.7 33.4c0.3 0 0.4 0 0.6 0.1 0.1 0 0.2 0.1 0.2 0.1 -0.1 0.7 0.3 0.9 0.8 1.1 0 0 0.1 0.1 0.1 0.1 0.4 0.6 1 0.8 1.6 0.5 0.3-0.2 0.5-0.3 0.9-0.5 0-0.1 0-0.3 0-0.6 0 0.4-0.3 0.5-0.6 0.5 -0.4 0-1 0-1-0.4 0-0.9-0.6-1-1.1-1.3 -0.1-0.1-0.2-0.2-0.4-0.3 -0.8-0.7-2-0.6-2.6 0.2 -0.3 0.4-0.6 0.8-1 1.2 -0.5 0.5-0.3 1.1-0.2 1.7 0.1 0.5 0.6 0.5 1 0.6 0.3 0 0.4-0.1 0.4-0.4 0-0.3-0.1-0.7-0.2-1 0-0.2 0-0.4-0.1-0.5 0.1 0 0.1 0 0.2 0 0.1 0.6 0.3 1.2 0.4 1.8 0 0 0 0 0 0 0-0.7 0-1.5 0-2.2 0 0 0.1 0 0.1 0 0.1 0.6 0.2 1.1 0.3 1.7 0-0.3 0-0.6 0-0.9 0-0.3-0.2-0.6 0.2-0.8 0 0.2 0.1 0.3 0.1 0.5C49.6 33.9 49.7 33.7 49.7 33.4zM50.2 28.6c0.2 0.1 0.2 0.1 0.3 0.2 0.2 0.4 0.4 0.8 1 0.6 0.1 0 0.2 0.1 0.2 0.1 0.4 0.1 0.8 0.3 1.2 0.4 0.1 0 0.4-0.2 0.5-0.4 0.2-0.3 0-0.6-0.3-0.7 -0.2 0-0.5 0-0.5 0.1 -0.2 0.5-0.5 0.6-1 0.4 -0.6-0.2-0.9-0.5-0.9-1.1 0-0.6-0.8-1-1.3-0.8 -0.6 0.3-0.9 0.2-1.2-0.4 -0.2-0.3-0.4-0.7-0.9-0.6 -0.4 0.1-0.8 0.2-1.2 0.3 -0.5 0.2-0.8 0.5-0.8 1 0 0.5 0 0.9 0.1 1.4 0.1 0.6 0.4 0.9 1.1 0.8 -0.1-0.3-0.2-0.7-0.3-1 0 0 0.1 0 0.1-0.1 0.1 0.2 0.2 0.4 0.3 0.5 0.1 0.1 0.2 0.2 0.4 0.3 0-0.2 0-0.3 0-0.5 -0.1-0.3-0.1-0.5-0.2-0.8 0.1 0 0.1 0 0.2-0.1 0.1 0.2 0.2 0.3 0.3 0.5 0 0 0.1 0 0.1 0 0-0.3-0.1-0.6-0.1-0.9 0.2 0.1 0.4 0.2 0.6 0.4 -0.1-0.2-0.1-0.3-0.1-0.4 0-0.1-0.1-0.2-0.1-0.3 0 0 0.1 0 0.1-0.1 0.5 0.7 1.4 1 1.7 1.9 0 0 0.1-0.1 0.1-0.1 0-0.2 0-0.4 0-0.7 0.3 0.2 0.2 0.8 0.8 0.8C50.2 29.2 50.2 28.9 50.2 28.6zM54.1 31.7c0.2 0.2 0.3 0.3 0.4 0.4 0.2 0.2 0.3 0.2 0.5 0 0.2-0.2 0.2-0.4 0-0.6 -0.3-0.2-0.6-0.5-0.9-0.5 -0.5 0-0.9 0.2-1.4 0.3 0 0.2 0.1 0.3 0.1 0.5 0 0.2-0.2 0.4-0.3 0.4 -0.3 0-0.6-0.1-0.9-0.2 -0.2-0.1-0.3-0.3-0.4-0.5 0-0.2 0.2-0.4 0.4-0.6 -0.7-0.2-1.3-0.5-2-0.7 -0.6-0.1-1.3-0.1-2-0.1 -0.9 0-1.5 0.5-1.7 1.4 -0.1 0.6 0.2 1.2 0.7 1.4 -0.1-0.2-0.1-0.4-0.2-0.6 0.5 0.1 0.4 0.7 0.9 0.7 0-0.2-0.1-0.4-0.1-0.6 0 0 0.1 0 0.1 0 0.1 0.1 0.2 0.2 0.3 0.3 0.4-0.3 0.6-0.7 0.5-1.3 0.1 0.1 0.2 0.2 0.2 0.3 0.2-0.1 0.3-0.1 0.5-0.2 0-0.1 0-0.3 0.1-0.5 0.2 0.2 0.4 0.3 0.6 0.5 -0.1-0.3-0.2-0.4-0.2-0.6 0 0 0.1 0 0.1 0 0.3 0.3 0.6 0.6 0.9 0.9 0 0 0.1-0.1 0.1-0.1 -0.1-0.3-0.2-0.5-0.3-0.8 0.1 0 0.1-0.1 0.2-0.1 0.1 0.2 0.2 0.3 0.3 0.5 0.1 0.1 0.1 0.3 0.2 0.2 0.5-0.1 0.4 0.2 0.5 0.5 0.1 0.4 0.4 0.6 0.8 0.6 0.2 0 0.5-0.1 0.7-0.2 0.4-0.2 0.8-0.4 1.3-0.2C54 32 54.1 31.9 54.1 31.7zM46.3 17.4c0 0.4 0 0.8 0 1.2 0 0.3-0.2 0.5-0.6 0.4 -0.4-0.1-0.7-0.2-0.9-0.6 -0.1-0.4-0.1-0.8 0.3-1.1 0.1-0.1 0.2-0.2 0.4-0.4 -0.8-0.2-1.4 0-2 0.4 -0.2 0.1-0.3 0.4-0.4 0.6 -0.1 0.3 0 0.6 0 0.9 0.1 0.7 0.5 0.9 1.2 0.7 0.5-0.1 1.1-0.2 1.5-0.1 1 0.2 1.9 0.6 2.8 1 0.3 0.1 0.6 0.2 0.7-0.1 0.1-0.2 0.1-0.6-0.2-0.7 -0.4-0.2-0.7-0.4-1.1-0.5 0 0.2 0 0.3 0 0.4 -0.1 0.2-0.1 0.3-0.2 0.4 -0.1-0.1-0.2-0.3-0.3-0.4 -0.1-0.4-0.2-0.9-0.4-1.3C47 17.7 46.8 17.3 46.3 17.4zM34.8 97.1c0.5-0.7 0.9-1.4 1.4-2.1 0.4-0.7 0.9-1.4 1.3-2.1 0.1-0.2 0-0.4 0-0.6 -0.2 0.1-0.4 0.1-0.6 0.2 -0.5 0.4-1 0.8-1.6 1.1 -0.6 0.3-1 0.9-1.4 1.4 -0.5 0.6-0.5 1.1 0.2 1.6C34.3 96.6 34.5 96.8 34.8 97.1zM45 20.1c0.2 0.3 0.3 0.6 0.4 0.8 0.1 0.1 0.2 0.1 0.3 0.2 0-0.3 0.1-0.5 0.1-0.8 0-0.2-0.3-0.4-0.4-0.4 -0.5-0.1-0.8 0-1.2 0.3 -0.5 0.3-0.6 0.8-0.6 1.3 0 0.3 0.6 0.9 0.9 1 0.6 0.2 1.2 0.1 1.7-0.3 0.3-0.2 0.7-0.2 1.1-0.1 0.3 0.1 0.5 0.3 0.8 0.5 0.3 0.3 0.7 0.4 1.1 0.3 -0.2-0.7-0.4-1.2-1-1.6 -0.5-0.4-1.1-0.7-1.6-1 0.1 0.6-0.3 1.3-0.6 1.4 -0.4 0.1-0.8 0-1-0.3C44.6 21 44.6 20.6 45 20.1zM43.9 56.1c0 0.1 0 0.1 0 0.2 0.2 0.1 0.3 0.2 0.5 0.2 0.7 0.2 1.4 0.4 2 0.6 1.2 0.3 2.3 0.4 3.3-0.4 0.5-0.4 1-1 1.4-1.5 0.1-0.1 0-0.3 0-0.5 -0.2 0-0.4 0-0.6 0.1 -0.1 0-0.2 0.2-0.3 0.3 -0.3 0.3-0.6 0.7-0.9 0.8 -0.5 0.2-1 0.1-1.5 0.1C46.5 56 45.2 56.1 43.9 56.1zM47.2 10.9c0 0-0.1 0.1-0.1 0.1 0.2 0 0.4 0 0.5 0.1 0.3 0.2 0.6 0 0.7-0.3 0-0.2-0.1-0.5-0.2-0.6 -0.6-0.5-1.3-0.9-2.1-1C45 9 44.8 9 44.4 9.8c-0.4 0.7-0.1 1.5 0.6 1.5 0.5 0.1 1 0 1.5-0.1 -0.3-0.6-0.5-1-0.7-1.4 0-0.1 0-0.2 0.1-0.3 0 0 0.2-0.1 0.2 0 0.3 0.2 0.7 0.4 0.9 0.7C47.2 10.4 47.1 10.7 47.2 10.9zM50.6 9.2c-1.5-1.3-1.3-1.2-3.1-1.5C47.2 7.8 47 8 46.9 7.9c-0.2-0.1-0.4-0.3-0.4-0.5 -0.1-0.6 0.6-0.3 0.8-0.6 -0.6-0.4-1.5-0.4-2 0.1 -0.2 0.2 0 1.3 0.2 1.4 0.6 0.2 1.3 0.4 2 0.4C48.5 8.7 49.6 8.5 50.6 9.2zM46.2 15.6c0 0.2 0 0.3 0.1 0.5 0 0.2 0 0.3 0 0.5 0 0 0.1 0 0.1 0 0.1-0.2 0.1-0.4 0.2-0.6 0.1 0.1 0.2 0.2 0.2 0.3 0.1 0.6 0.2 0.7 0.9 0.8 0-0.2 0-0.4 0-0.6 -0.6-0.1-0.7-0.2-0.7-0.8 0-0.2 0-0.5-0.1-0.6 -0.5-0.4-1-0.5-1.6-0.3 -0.2 0.1-0.5 0.2-0.7 0.1 -0.4 0-0.8 0-1 0.5 0 0.2-0.2 0.5-0.1 0.7 0.1 0.2 0.4 0.5 0.8 0.3 0.2-0.1 0.5-0.1 0.8-0.2C45.8 16.2 45.8 16.2 46.2 15.6zM36.2 80c0.6 0.2 0.6 0.2 1.2 0.8 0.5 0.5 1 0.4 1.2-0.3 0.2-0.8 0.6-1.5 1.2-2.1 0.2-0.2 0.3-0.5 0.3-0.7 -0.2-0.5-0.7-0.5-1.1-0.6 -0.2 0-0.5 0.2-0.6 0.4 -0.1 0.2-0.1 0.5 0 0.8 0.2 1-0.1 1.6-1.1 1.8C36.8 80 36.5 80 36.2 80zM45.8 13.1c0 0 0.1 0 0.1 0 0.1 0.2 0.1 0.3 0.2 0.6 0-0.4 0-0.6 0-0.9 0.6 0.1 0.2 0.7 0.5 1 0-0.3 0.1-0.5 0.1-0.8 0.1 0 0.1 0 0.2 0 0.1 0.2 0.2 0.3 0.2 0.5 0.1 0.7 0 0.7 0.7 0.9 0.1-0.8-0.2-1.4-0.9-1.7 -0.8-0.3-1.6-0.4-2.5-0.5 -0.1 0-0.3 0.1-0.3 0.3 -0.1 0.4-0.1 0.8-0.2 1.3 0 0.4 0.2 0.5 0.6 0.5 0.3 0 0.8 0.1 0.8-0.5 0-0.1 0.1-0.2 0.2-0.4 0 0 0.1 0 0.1 0 0 0.2 0.1 0.4 0.1 0.6 0 0 0.1 0 0.1 0C45.7 13.7 45.8 13.4 45.8 13.1zM33.1 73.4c0 0.1 0 0.1-0.1 0.2 0.3 0.1 0.5 0.3 0.8 0.4 0.7 0.1 1.4 0.3 2.2 0.3 0.8 0 1.5 0.1 2.2-0.4C36.6 73.4 34.9 73 33.1 73.4zM34.5 86.9c0-0.1-0.1-0.1-0.1-0.2 -1.3 0-2.7 0.3-3.9 0.8 -0.2 0.1-0.4 0.3-0.6 0.5 0.3 0.1 0.5 0.3 0.8 0.3 1.1-0.2 2.3-0.3 3.3-1C34.2 87.1 34.4 87 34.5 86.9zM50.3 40.6c0.3 0 0.4 0 0.5 0.1 0.5 0.1 1 0.4 1.4 0.3 0.4-0.2 0.6-0.8 0.9-1.2 0 0 0-0.1 0-0.1 -0.3-0.4-0.6-0.7-1-1.2 -0.2 0.3-0.5 0.5-0.5 0.7 0 0.5-0.4 0.8-0.8 1C50.8 40.4 50.6 40.4 50.3 40.6zM36.1 86.4c0 0.1 0 0.1 0 0.2 0.4 0 0.8 0 1.1-0.1 0.6-0.3 1.1-1.5 0.9-2.1 -0.1-0.3-0.4-0.5-0.6-0.7 -0.2 0.2-0.4 0.4-0.5 0.6 -0.1 0.1-0.1 0.2-0.1 0.4C37.1 85.4 36.5 85.9 36.1 86.4zM55.4 49.3c-0.5 0-0.8 0.4-0.5 0.9 0 0.1 0.1 0.2 0.1 0.3 -0.1 0.8 0.6 1.4 0.7 2.1 0 0.1 0.3 0.3 0.3 0.3 0.2-0.1 0.4-0.2 0.4-0.4 0-0.3 0-0.6-0.1-0.9C56 50.8 55.7 50.1 55.4 49.3zM36.2 80.8c0-0.1 0-0.1 0-0.2 -0.4 0-0.9-0.2-1.1-0.1 -0.8 0.6-1.7 0.5-2.6 0.4 -0.7-0.1-1.1-0.4-1.1-1.2 -0.2 0.2-0.5 0.3-0.5 0.4 0 0.2 0.2 0.4 0.3 0.6 0 0 0.1 0 0.1 0 0.6 0.3 1.1 0.6 1.7 0.6C34 81.5 35.1 81.6 36.2 80.8zM46.4 68.4c0.3-0.5 0.6-1 0.9-1.5 0-0.1-0.1-0.4-0.2-0.4 -0.5-0.1-0.9-0.2-1.4-0.2 -0.1 0-0.2 0.1-0.3 0.2C45.3 67.1 45.8 68.2 46.4 68.4zM50.7 11.9c0-0.4-0.2-0.7-0.6-0.8 -0.2-0.1-0.5-0.2-0.7-0.2 -0.1 0-0.3 0.1-0.4 0.2 -0.1 0.1 0 0.3 0.1 0.4 0.3 0.3 0.7 0.6 1 0.9 0.2 0.2 0.4 0.1 0.5-0.2C50.6 12.2 50.6 12 50.7 11.9zM48.3 62.1c-0.1 0-0.1 0-0.2 0 -0.1 0.2-0.2 0.4-0.1 0.5 0.2 0.7 0.5 1.4 0.8 2.1 0.1 0.3 0.3 0.4 0.6 0.3 0.1 0 0.1-0.4 0-0.6C49.1 63.6 48.7 62.9 48.3 62.1zM48.5 14c-0.1 1 0 1.2 0.9 1.4 0.2 0 0.5 0 0.6-0.1 0.1-0.2 0.1-0.5-0.1-0.7C49.6 14.1 49 14.1 48.5 14zM42.7 73.9c0-0.2-0.1-0.4-0.1-0.7 0-0.6-0.1-1.1-0.9-1.1 0 0-0.1 0-0.1 0 -0.2 0.3-0.5 0.6-0.6 0.9C41.6 73.4 42.2 73.7 42.7 73.9zM49.7 22.7c-0.1 0.5 0 0.7 0.4 0.9 0.5 0.3 1.1 0.3 1.5 0C51.3 22.5 50.4 22.9 49.7 22.7zM49.5 36.5c0.6-0.2 1.2-0.4 1.8-0.6 -0.1-0.3-0.1-0.5-0.2-0.7 -0.2-0.4-0.6-0.4-0.7-0.1C50.1 35.5 49.9 35.9 49.5 36.5zM34.7 80.4c-0.9-0.3-1.8 0-2.7 0C33 81 34 81 34.7 80.4zM44.6 110.6c-1.2 0.2-1.2 1.2-1.7 1.9 0.1 0 0.1 0.1 0.2 0.1C43.6 112 44.1 111.3 44.6 110.6zM43.1 100.9c-0.3 1-0.3 2.4 0 2.6C43.2 102.6 43.4 101.8 43.1 100.9zM54.6 34.4c-0.2 0.6 0.3 1.4 1 1.6C55.6 35.5 55.2 34.8 54.6 34.4zM57.2 41.9C57.2 41.8 57.2 41.8 57.2 41.9c-0.6-0.6-1.2-1.2-1.9-1.8 -0.3 0.4 0 0.7 0.3 0.8C56 41.3 56.6 41.6 57.2 41.9zM40.9 59.9c0.1 0.7 1.1 1.1 2.1 1C42.3 60.6 41.6 60.2 40.9 59.9zM49.5 26.7c-0.5-0.3-0.9-0.5-1.4-0.7C48.5 27.2 48.6 27.2 49.5 26.7zM45.7 17.4c-0.2 0.3-0.4 0.4-0.5 0.5 -0.1 0.1 0 0.3 0.1 0.4 0.1 0.1 0.3 0.2 0.4 0.2 0.1-0.1 0.2-0.3 0.2-0.4C45.9 17.9 45.8 17.7 45.7 17.4zM48.7 29.5c-0.1-0.2-0.1-0.4-0.2-0.5 -0.1-0.1-0.4-0.1-0.5-0.1 -0.1 0.1-0.2 0.3-0.3 0.5 0.1 0.1 0.3 0.1 0.4 0.1C48.2 29.5 48.4 29.5 48.7 29.5zM53.6 37.5c-0.2-0.5-0.2-0.5-0.9-0.4 0.1 0.2 0.2 0.4 0.4 0.5C53.2 37.7 53.4 37.5 53.6 37.5zM40.3 62.2c0 0.1 0 0.1 0 0.2 0.5 0.2 1 0.3 1.5 0.5 0 0 0-0.1 0-0.1C41.3 62.5 40.8 62.4 40.3 62.2zM49.7 24.2c-0.2-0.6-0.6-0.6-1-0.5 0 0 0 0.1 0 0.1C48.9 23.9 49.2 24 49.7 24.2zM51.9 28.6c-0.2-0.1-0.5-0.3-0.7-0.4C51.1 28.7 51.2 28.7 51.9 28.6zM54.1 42.8c0.3-0.3 0.4-0.6-0.2-0.8C54 42.3 54 42.5 54.1 42.8zM49 17.9c0.1-0.1 0.1-0.1 0.2-0.2 -0.2-0.2-0.4-0.4-0.6-0.5 0 0-0.1 0.1-0.1 0.1C48.7 17.5 48.9 17.7 49 17.9zM47.6 15.5c-0.1 0-0.2 0-0.2 0 0 0.2 0 0.4 0 0.5 0 0 0.2 0 0.3 0C47.6 15.9 47.6 15.7 47.6 15.5zM75.1 26.8c0.2 0 0.3-0.1 0.5 0 0.2 0.1 0.4 0.1 0.5 0.3 0.6 0.7 1.3 1.4 1.5 2.5 0.1 0.8 0.4 1.6 1.1 2.1 0.1 0.1 0.3 0.3 0.5 0.3 0.8 0.2 1.4 0.7 2 1.2 1.2 1 1.1 2.7-0.2 3.5 -0.5 0.3-1.1 0.6-1.1 1.2 0 0.3 0.1 0.7 0.2 0.9 0.6 0.8 1.4 1.3 2.4 1.4 0.7 0 1.2 0.5 1.6 1 0.5 0.8 1.2 1.1 2.1 1.2 0.3 0 0.5 0.1 0.7 0.3 -0.7 0.3-1.3 0.3-1.9 0 -0.7-0.4-1.4-0.8-2.1-1.3 -0.4-0.3-1.2-0.2-1.6 0.2 -0.7 0.7-1.4 1.4-2.2 2.1 0.3 0.6 0.7 1.3 0.8 2.2 0 0.5 0.5 0.8 0.9 1.1 0.2 0.2 0.5 0.3 0.7 0.5 -0.5 0-1.1 0-1.4-0.4 -0.5-0.5-0.9-1.1-1.2-1.7 -0.5-1.1-1.3-2-2.4-2.6 -1-0.5-2-0.7-3.1-0.5 -0.1 0-0.3 0-0.4 0.1 -0.8 0.6-1.7 0.8-2.7 0.9 -1 0.2-1.9-0.2-2.6-0.9 -0.6-0.6-1-1.3-1.3-2.1 0-0.1 0-0.2 0.1-0.3 0.1 0 0.3 0.1 0.4 0.1 0.7 1 1.6 1.7 2.7 2 1 0.3 2 0.2 3-0.1 0.6-0.2 1.1-0.5 1.7-0.6 1.1-0.3 2.2 0 3.2 0.5 0.7 0.3 1.4 0.6 2.2 0.2 0.3-0.2 0.6-0.5 0.8-0.8 0.1-0.1 0-0.4-0.2-0.5 -0.4-0.5-0.9-1-1.3-1.6 -0.3-0.5-0.3-1.1-0.1-1.7 0.3-0.8 0.8-1.3 1.5-1.6 0.8-0.4 0.9-1.1 0.2-1.8 -0.5-0.5-1.2-0.8-1.7-1.2 -0.6-0.5-1.3-0.9-1.7-1.5 -0.3-0.4-0.4-0.9-0.5-1.4 -0.1-0.5-0.2-1-0.2-1.5 -0.1-0.6-0.4-1.1-1-1.4 -0.1 0-0.2-0.1-0.3-0.2C75.1 26.9 75.1 26.8 75.1 26.8zM61.6 80.3c0.1-0.1 0.2-0.2 0.4-0.3 0.3-0.3 0.4-0.6 0.4-1 0-0.7-0.2-1.3-0.1-2 0.2-1.3 0.8-2.5 2-3.2 0.5-0.3 1.1-0.6 1.6-0.8 0.7-0.3 1.3-0.7 1.4-1.5 -0.8-0.1-1.6-0.2-2.3-0.5 -0.9-0.3-1.7-0.9-2-1.8 -0.1-0.3-0.1-0.7-0.1-1.1 -1.4 1.3-3 2.2-5.1 1.4 0 0.6 0 1 0 1.5 0 1.2-0.8 1.9-1.7 2.5 -0.1 0.1-0.3 0-0.5 0 0-0.2 0-0.4 0.1-0.4 1.2-1.1 1.2-2.7 0-4.1 -0.3-0.3-0.6-0.7-0.9-1 0-0.1 0.1-0.1 0.1-0.2 0.1-0.2 0.2-0.5 0.3-0.5 0.2 0 0.4 0.1 0.6 0.2 1.3 0.9 2.8 1.1 4.4 0.8 1.1-0.2 1.8-1 2.5-1.8 0.2-0.2 0.4-0.5 0.6-0.6 0.1-0.1 0.4-0.1 0.6 0 0.1 0 0.2 0.3 0.1 0.4 0 0.6-0.2 1.1-0.1 1.7 0.1 1.2 0.8 1.9 1.9 2.2 1 0.4 2 0.4 3 0 0.1 0 0.2-0.1 0.2-0.1 0.2 0 0.5 0 0.5 0 0.1 0.3 0.1 0.5-0.2 0.7 -0.3 0.2-0.7 0.5-0.9 0.8 -0.2 0.2-0.3 0.5-0.4 0.7 -0.3 0.7-0.8 1.3-1.6 1.5 -0.8 0.2-1.3 0.7-1.7 1.4 -0.7 1.2-1.3 2.5-1.6 3.8 -0.1 0.5-0.2 1-0.8 1.2 -0.2 0.1-0.4 0.1-0.7 0.1C61.6 80.5 61.6 80.4 61.6 80.3zM71.6 25.3c0 0.8-0.3 1.3-0.7 1.7 -0.1 0.1-0.2 0.2-0.4 0.3 -0.4 0.3-0.6 0.7-0.5 1.2 0.1 0.3 0 0.6 0 0.9 0.1 1 0.8 1.7 1.7 2 1 0.4 1.8 0.9 2 2.1 0.1 0.6-0.1 0.9-0.4 1.3 -0.3 0.2-0.6 0.4-0.8 0.7 -0.5 0.4-0.5 0.8 0 1.2 0.5 0.3 1.1 0.5 1.6 0.7 0.5 0.1 1.1 0 1.6 0.1 0.4 0.1 0.7-0.2 0.9-0.4 0.1-0.1 0.2-0.2 0.3-0.3 0.1 0 0.3 0 0.3 0 0.1 0 0 0.2 0 0.3 -0.2 0.6-0.7 0.8-1.2 1 -0.8 0.4-1.7 0.5-2.5 0.3 -0.6-0.2-1.3-0.4-1.8-0.8 -0.8-0.6-0.7-1.9 0-2.5 0.2-0.2 0.4-0.3 0.7-0.5 0.5-0.4 0.6-0.8 0.2-1.3 -0.2-0.3-0.5-0.5-0.9-0.6 -1-0.2-1.8-0.8-2.4-1.5 -0.4-0.5-0.4-1.2-0.3-1.8 0-0.2 0-0.5-0.1-0.7 -0.2-1.6-1.6-1.8-2.7-2.1 -1.2-0.3-2.1-0.9-2.5-2 -0.3-0.8-0.3-1.7-0.1-2.5 0.1-0.6 0.3-1.2 0.2-1.8 -0.1-0.5-0.5-1-0.7-1.5 -0.1-0.1-0.1-0.2-0.2-0.4 0.2 0 0.3 0 0.5 0 0 0 0.1 0.1 0.1 0.1 0.4 0.6 1 1.2 1.1 2 0 0.2 0 0.4 0 0.6 -0.2 1.4 0.2 2.7 1.1 3.9 0.5 0.7 1.3 0.8 2.1 1.1 0.5 0.2 1 0.4 1.4 0.6 0.1 0 0.2 0.1 0.3 0.1 0.7-0.2 1.3-0.5 1.8-1.1C71.4 25.5 71.4 25.4 71.6 25.3zM84.9 57.3c-0.5 0-1 0.1-1.5 0.1 -0.6 0-1.3-0.6-1.1-1.3 0.1-0.5 0.3-1.1-0.2-1.6 -0.3-0.4-0.7-0.5-1.1-0.1 -0.6 0.5-1.2 0.9-2 1 -1.6 0.3-2.5-0.5-3.2-1.9 0-0.1 0-0.2 0-0.2 0.1 0 0.2-0.1 0.2 0 0.1 0.1 0.2 0.2 0.3 0.3 0.8 1 2.6 1.3 3.7 0.4 0.4-0.3 0.8-0.7 1.5-0.7 0.8 0.1 1.6 1.1 1.5 1.8 -0.1 0.3-0.1 0.6-0.1 1 0 0.1 0 0.2 0.1 0.2 0.4 0.5 1.7 0.4 2-0.1 0.2-0.4 0.4-0.8 0.7-1.1 0.4-0.4 1-0.7 1.7-0.6 0.7 0.1 1 0.6 1.1 1.2 0 0.2 0.1 0.5 0 0.7 0 0.2-0.2 0.3-0.3 0.4 -0.1-0.1-0.3-0.2-0.4-0.3 -0.3-0.3-0.5-0.7-0.9-1 -0.4-0.3-0.8 0-1 0.4 -0.2 0.3-0.4 0.6-0.5 0.9 0 0.1-0.1 0.2 0 0.3 0.2 0.4 0.1 0.8-0.2 1.1 -0.4 0.4-0.2 0.9-0.1 1.3 0.5 1.3 0.2 2.1-1 2.7 -0.2 0.1-0.4 0.3-0.7 0.3 -1.1 0.2-1.4 1.1-1.7 2 0 0.1 0 0.3-0.1 0.4 -0.1 0.1-0.2 0.3-0.4 0.4 -0.1-0.2-0.2-0.4-0.2-0.5 0.1-0.5 0.3-1 0.4-1.5 0.1-0.3 0.3-0.7 0.4-1 0.3-0.7 0.8-1.1 1.5-1.3 0.7-0.1 0.9-0.7 0.6-1.3 -0.4-0.7-0.4-1.4 0.5-1.9C85 57.8 85 57.6 84.9 57.3zM79 76.5c0.5 0.3 0.9 0.5 1.3 0.6 1.3 0.4 2.4 0 3.5-0.8 0.6-0.5 0.9-1.2 1.1-1.9 0.1-0.2-0.1-0.5-0.2-0.8 -0.2-0.7-0.4-1.4-0.2-2.1 0.2-0.9 0.7-1.5 1.4-2 0.5-0.3 1-0.7 1.5-1 0.3-0.2 0.3-0.6 0.3-1 -0.1-0.6-0.3-1.2-0.2-1.8 0.2-0.8 0.6-1.5 1.2-2.1 0.1-0.1 0.2 0 0.3 0 0 0.1 0 0.2 0 0.3 -0.2 0.5-0.5 1-0.7 1.5 -0.3 0.8 0 1.7 0.1 2.5 0.1 0.6-0.1 1.1-0.6 1.5 -0.4 0.3-0.9 0.6-1.3 0.8 -0.8 0.4-1.6 1.5-1.2 2.6 0.2 0.6 0.3 1.2 0.4 1.9 0 0.3 0 0.7-0.2 1 -0.2 0.5-0.1 0.9 0.4 1.1 1.1 0.4 1.6 1.3 1.9 2.4 0 0.2-0.1 0.3-0.1 0.5 -0.2-0.1-0.5-0.1-0.5-0.2 -0.5-0.8-1.2-1.3-2.1-1.4 -0.7-0.1-1.4 0-2 0.1 -1.2 0.2-2.4 0.2-3.5-0.4C79.2 77.5 79.1 77 79 76.5zM80.5 75.7c0.2-0.5 0.3-1 0.6-1.5 0.5-0.8-0.1-1.7-0.8-1.9 -0.7-0.2-1.2-0.6-1.7-1.2 -0.6 0.7-1.3 1.3-2.2 1.6 -0.8 0.2-1.6 0.3-2.5 0.2 -0.5-0.1-1 0.2-1.5 0.3 -0.3 0.1-0.5 0.1-0.7 0.3 -0.4 0.3-0.8 0-1.2-0.1 0 0-0.1-0.1-0.1-0.1 0.2-0.2 0.4-0.4 0.6-0.5 1.1-0.6 2.3-1 3.6-0.8 1.7 0.2 2.6-0.5 3.2-2.1 0.4-1 0.4-1.9-0.1-2.9 -0.6-1.2-0.4-2.4 0.4-3.5 0.2-0.3 0.4-0.7 0.6-1 0.1-0.3 0.4-0.4 0.6-0.2 0.3 0.2 0.2 0.4 0 0.7 -0.3 0.6-0.7 1.3-0.9 2 -0.1 0.3 0 0.6 0.1 0.9 0.1 0.4 0.2 0.8 0.3 1.1 0.5 1 0.4 2.1 0.6 3.1 0.1 0.6 0.4 1.1 1.1 1.3 1 0.3 1.8 1.8 1.4 2.8 -0.2 0.5-0.5 1-0.8 1.4 -0.1 0.2-0.4 0.2-0.6 0.3C80.6 75.8 80.6 75.8 80.5 75.7zM69 63.7c0-0.6 0.2-1.1 0.6-1.5 0.3-0.4 0.7-0.7 1.1-1.1 0.7-0.6 1-1.4 1-2.3 0-0.9-0.1-1.8 0.4-2.5 0.3-0.6 0.7-1.1 1.1-1.6 0.1-0.2 0.4-0.2 0.6-0.3 0 0 0.2 0.1 0.2 0.1 0 0.1 0 0.3-0.1 0.3 -0.2 0.3-0.5 0.5-0.7 0.8 -0.6 0.7-0.7 1.6-0.4 2.4 0.5 1.8-0.4 2.9-1.5 4.1 -0.4 0.4-0.7 0.9-1.1 1.4 -0.1 0.1-0.1 0.4-0.1 0.4 0.1 0.1 0.4 0.1 0.5 0.1 0.4 0.1 0.8 0 1.2 0.2 0.5 0.2 0.6 0.6 0.4 1.1 -0.2 0.5-0.5 1-0.7 1.6 -0.1 0.3 0.2 1.1 0.6 1.2 0.4 0.1 0.8 0.1 1.2 0.3 0.7 0.3 1.5 0.5 1.9 1.3 0.2 0.3 0 0.5-0.2 0.7 -0.1 0-0.3-0.2-0.4-0.3 -0.3-0.7-1-0.6-1.6-0.8 -0.7-0.2-1.5-0.4-2.2-0.8 -0.7-0.4-0.9-1.2-0.4-2 0.3-0.3 0.6-0.7 0.9-1 0.1-0.1 0.1-0.3 0.1-0.4 -0.1-0.1-0.3-0.1-0.4-0.1 -0.2 0-0.4 0.1-0.6 0.1C69.6 65.1 69 64.6 69 63.7zM51 101.1c0.2 0.2 0.3 0.4 0.4 0.5 0.1 0.4 0.2 0.8 0.3 1.2 0.1 0.3 0.3 0.5 0.6 0.5 0.6 0 1.3 0 1.9 0 0.1 0 0.3 0 0.3 0.1 0.3 0.3 0.6 0.2 0.9 0 0.6-0.3 1.3-0.6 2-0.4 0.2 0.1 0.5-0.1 0.6-0.2 0.3-0.3 0.7-0.6 1-0.9 1-0.9 2.1-1.6 3.5-1.2 0.4 0.1 0.7 0 0.9-0.4 0.1-0.2 0.3-0.3 0.5-0.4 0 1-0.5 1.6-1.3 1.5 -0.9-0.1-1.9-0.1-2.7 0.6 -0.1 0.1-0.3 0.3-0.3 0.5 0 0.1 0.2 0.3 0.3 0.4 0.5 0.3 1 0.4 1.5 0.7 0.3 0.2 0.6 0.4 0.7 0.6 0.4 0.5 0.3 0.7-0.2 1.1 0-0.2 0-0.5-0.1-0.7 -0.1-0.2-0.3-0.4-0.5-0.5 -0.6-0.3-1.2-0.5-1.8-0.8 -0.1 0-0.3 0-0.4 0 -0.6 0.3-1.2 0.5-2 0.3 -0.2 0-0.4 0-0.6 0.2 -0.8 0.7-1.6 0.6-2.5 0.2 -0.2-0.1-0.4-0.1-0.6 0 -0.7 0.1-1.4 0.3-2.1-0.2C50.8 103.3 50.4 102.3 51 101.1zM70.5 110.1c0-0.2 0-0.4 0.1-0.5 0.4-0.8 0.9-1.5 1.7-2 0.4-0.2 0.8-0.4 1.2-0.5 1.6-0.3 2.9-1 3.7-2.5 0.7-1.1 1.8-1.8 2.9-2.5 0.2-0.1 0.4-0.1 0.6 0.1 0.2 0.3-0.1 0.4-0.3 0.5 -0.9 0.4-1.7 0.9-2.3 1.7 -0.4 0.5-0.7 1-1 1.5 -0.8 1.3-1.9 2.2-3.5 2.1 -1.1 0-1.8 0.6-2.4 1.4 -0.2 0.2-0.4 0.5-0.5 0.7C70.7 110.2 70.6 110.2 70.5 110.1zM82.4 58.4c-0.1 0.1-0.3 0.2-0.4 0.2 -0.9 0.3-1.5 0.9-2 1.6 -0.5 0.7-2.1 1.1-2.8 0.6 -0.5-0.4-1-0.9-1.5-1.2 -0.2-0.2-0.5-0.2-0.7-0.3 -0.1 0-0.2-0.1-0.3-0.2 0.1-0.1 0.2-0.4 0.3-0.3 0.6 0.1 1.3 0.2 1.9 0.5 0.3 0.1 0.6 0.4 0.9 0.6 0.7 0.3 1.4 0.2 1.9-0.4 0.6-0.7 1.5-0.9 2.3-1.2 0.1 0 0.3 0.1 0.4 0.1C82.4 58.3 82.4 58.4 82.4 58.4zM30.7 36.1c0.6-0.5 1.3-1 1.9-1.6 0.4-0.4 0.3-1 0.2-1.5 0-0.5-0.1-1-0.2-1.6 -0.1-0.4-0.1-0.7-0.3-1.1 -0.6-1.7-0.3-3 1-4.1 1-0.9 1.2-1.8 0.8-3.1 -0.2-0.5-0.1-1.1 0-1.7 0-0.4 0.1-0.7 0.2-1.1 0.1-0.2 0.2-0.4 0.4-0.6 0 0 0.3 0 0.3 0C35 20 35 20.1 35 20.3c-0.1 0.5-0.2 1.1-0.2 1.6 -0.1 1.1 0.6 1.6 1.5 2 0.5 0.2 1 0.2 1.6 0.4 0.1 0.3 0 0.4-0.4 0.4 -0.7 0-1.4 0.1-2.1 0.1 0 0.3 0 0.8 0 1.2 0 0.7-0.4 1.3-0.8 1.8 -0.3 0.3-0.5 0.6-0.8 0.9 -0.7 0.6-0.8 1.4-0.6 2.2 0.1 0.5 0.2 1 0.5 1.4 0.6 1.2 0.2 2.4-0.7 3.1 -1.3 1.1-1.8 2.4-1.8 4 0 0.9 0 1.8 0 2.7 -0.1 1.2-0.6 2.2-1.4 3.1 -0.2 0.2-0.5 0.4-0.7 0.7 -0.2 0.3-0.4 0.6-0.6 0.8 0.9 0.8 1.7 1.5 2.4 2.3 0.3 0.3 0.6 0.4 1 0.2 0.7-0.3 1.4-0.5 2.2-0.4 0.7 0.1 1.3 0.5 1.6 1 0.5 0.9 1.3 1.2 2.3 1.2 1.1 0 1.5 0.3 1.8 1.4 0.1 0.4 0.3 0.7 0.4 1.1 0 0.1 0.1 0.3 0 0.4 0 0.1-0.1 0.2-0.2 0.2 -0.1 0-0.2-0.1-0.2-0.2 -0.2-0.5-0.5-1.1-0.7-1.6 -0.3-0.7-0.5-0.9-1.3-0.8 -0.5 0-1 0-1.4-0.2 -0.5-0.3-0.9-0.7-1.3-1.1 -0.6-0.6-1-0.7-1.8-0.3 -0.3 0.2-0.7 0.5-1.1 0.5 -0.8 0.1-1.4-0.3-2-0.9 -0.4-0.5-0.9-1-1.5-1.4 -0.7-0.5-1.5-0.6-2.4-0.3 -1 0.3-1.9 0.2-2.9-0.2 -0.9-0.4-1.5-1-2.1-1.8 -0.1-0.1-0.2-0.2-0.2-0.3 0-0.2 0-0.4 0-0.6 0.2 0.1 0.4 0.1 0.5 0.2 1.4 1 2.9 1.6 4.7 1.1 0.5-0.1 0.6-0.3 0.7-0.8 0.1-0.7 0.6-1.1 1-1.5 1.1-1.1 1.9-2.3 2-3.9 0-1 0-2-0.3-3 -0.2-0.8-0.8-1.3-1.5-1.7 -1.4-0.7-2.7-1.9-2.6-3.6 0.1-0.7 0.3-1.3 0.5-2 0.1-0.4 0.4-0.4 0.7-0.3 -0.1 0.3-0.2 0.6-0.3 0.9 -0.3 0.8-0.3 1.6 0.1 2.4 0.3 0.6 0.8 1 1.4 1.2C29.3 34.6 30.2 35.3 30.7 36.1zM44.7 41.5c-0.1 1-1.2 1.1-1.8 0.8 -0.6-0.3-1.2-0.7-1.8-1.1 -0.4-0.3-0.9-0.4-1.3-0.2 -0.9 0.3-1.9 0.7-2.7 1.1 -0.5 0.3-0.8 0.8-0.9 1.4 -0.1 0.3-0.2 0.6-0.2 0.9 0 0-0.1 0-0.1 0 -0.1-0.1-0.2-0.2-0.2-0.4 -0.2-0.7 0.1-1.3 0.6-1.8 0.5-0.5 1-1.1 1.6-1.5 0.8-0.7 1.2-1.6 0.9-2.6 -0.3-1-0.3-1.5 0.9-2.3 0.3-0.2 0.6-0.5 0.5-0.9 -0.7 0.1-1.3 0.3-2 0.4 -0.8 0.1-1.1 0.6-0.9 1.3 0.3 1.4-0.3 2.3-1.7 2.6 -0.5 0.1-0.9 0.4-1.2 0.9 -0.1 0.2-0.3 0.3-0.5 0.5 -0.2-0.8 0.2-1.4 0.9-1.7 0.3-0.1 0.6-0.2 0.9-0.4 0.4-0.2 0.5-0.5 0.5-1 -0.1-0.9-0.2-1.7 0.6-2.4 0.5-0.4 1-0.5 1.6-0.6 0.1 0 0.3 0 0.4 0 1 0 1.4-0.6 1-1.6 -0.2-0.5-0.4-1-0.6-1.5 -0.2-0.9 0.3-1.5 0.9-2 0.9-0.8 1-1.7 0.3-2.6 -0.2-0.3-0.5-0.6-0.8-0.9 -0.5-0.6-0.5-1.9 0-2.6 0.5-0.7 1-1.3 1.8-1.6 0.2-0.1 0.4 0 0.6 0 -0.1 0.2-0.1 0.3-0.2 0.5 -0.2 0.2-0.4 0.4-0.6 0.6 -0.7 0.7-1 1.8-0.1 2.8 0.5 0.6 0.8 1.4 0.8 2.2 0 0.4-0.2 0.9-0.4 1.2 -0.2 0.4-0.5 0.7-0.8 1 -0.6 0.6-0.6 1.2-0.1 1.9 0.3 0.5 0.7 0.9 0.9 1.5 0.5 1.4 0.4 2.5-1.2 3.4 -0.7 0.4-0.8 0.8-0.6 1.6 0.1 0.3 0.1 0.6 0.1 0.8 0 0.3 0.1 0.4 0.4 0.4 0.8 0 1.4 0.4 1.8 1.1C42.4 41.6 43.4 42 44.7 41.5zM17.6 51.6c-0.1 0.2-0.1 0.4-0.3 0.6 -0.6 0.7-1.3 1.1-2.3 0.9 -0.4-0.1-0.8-0.2-1.1 0 -0.4 0.2-0.7 0.6-1 0.9 -0.3 0.4-0.5 0.9-0.8 1.3 -0.4 0.4-0.9 0.8-1.4 1 -1.2 0.6-1.4 1.6-1.1 2.7 0.2 0.7 0.6 1.3 1.1 1.9 0.6 0.7 0.9 1.4 0.7 2.2 -0.3 1 0 1.9 0.5 2.8 0 0 0 0.1 0 0.1 0 0.1 0 0.3-0.1 0.4 -0.1 0-0.3 0-0.4-0.1 -0.6-0.6-0.9-1.3-1-2.1 0-0.4 0-0.9 0.1-1.3 0.1-0.6-0.3-1-0.6-1.5 -0.5-0.6-1-1.1-1.4-1.7C8 58.9 8 58.1 8.2 57.4c0.2-1-0.3-2-1.1-2.4 -0.6-0.3-1.4 0.2-1.5 1 -0.1 0.3-0.1 0.7-0.2 1 0 0.1-0.2 0.2-0.3 0.3 -0.1-0.1-0.3-0.2-0.3-0.4 0-1.2 0.5-2.1 1.4-2.8 0.4-0.3 0.8-0.3 1.2-0.1 0.7 0.4 1.2 0.8 1.4 1.6 0 0.1 0.1 0.2 0.1 0.2 0.6-0.1 1.1-0.2 1.7-0.4 0.3-0.1 0.6-0.4 0.9-0.7 0.5-0.5 0.9-1 1.3-1.5 0.7-0.8 1.7-0.9 2.7-0.9 0.6 0 1.1-0.1 1.5-0.5 0.2-0.1 0.3-0.2 0.5-0.4C17.5 51.5 17.5 51.5 17.6 51.6zM17.4 103.2c0.1-0.4 0.2-0.8 0.2-1.2 0-0.8-0.5-1.3-1.3-1.4 -0.7-0.1-1.3-0.2-2-0.4 -0.7-0.2-1-0.6-1-1.4 0-0.4-0.1-0.6-0.5-0.5 -0.4 0.1-0.9 0.2-1.3 0.2 -0.5 0.1-1 0.2-1.4 0.1 -1.1-0.2-1.3-1.1-1.1-2.2 0.1-0.6 0.5-1.2 0.7-1.8 0.4-0.8 0.1-1.2-0.4-1.7 -0.2-0.2-0.5-0.4-0.8-0.6 -0.1-0.1-0.1-0.2-0.2-0.3 0.1 0 0.3-0.1 0.4 0 1.1 0.3 1.6 1.2 2 2.2 0.1 0.3-0.1 0.7-0.2 1.1 -0.3 1-0.1 1.9 0.7 2.4 0.3 0.2 0.5 0.2 0.9 0.1 0.4-0.2 0.8-0.3 1.2-0.3 0.6 0.1 0.9 0.3 1 1.4 0.1 0.6 0.2 0.7 0.9 0.7 0.7-0.1 1.3-0.2 1.9 0.2 1.2 0.8 1.5 2 0.9 3.2 -0.1 0.2-0.3 0.3-0.5 0.5C17.5 103.3 17.4 103.3 17.4 103.2zM14.9 104.1c0.1-0.1 0.2-0.3 0.4-0.4 0 0 0.3 0.1 0.3 0.2 0.1 1.5 1 1.8 2 2 1 0.1 1.6 1 1.9 1.8 0 0.1 0.1 0.3 0.1 0.4 0.1 0.6 0.5 1 1 1.4 0.5 0.3 0.8 0.9 1.2 1.3 0 0-0.1 0.2-0.1 0.3 -0.1 0-0.2 0-0.2-0.1 -0.3-0.7-1-0.8-1.6-1.2 -0.4-0.3-0.9-0.5-1.2-0.8 -0.2-0.2-0.3-0.5-0.4-0.7 -0.2-0.8-0.8-1.2-1.6-1.5 -0.8-0.3-1.3-1-1.6-1.7C15.1 104.7 15 104.5 14.9 104.1zM12.2 49.2c-0.1 0.6-0.3 1-0.8 1.3C10.8 51 9.5 50.7 9 50c-0.9-1-0.7-2.1-0.1-3.1 0.5-1 0.9-1.9 0.6-3 0 0 0-0.1 0-0.3 0.2 0.3 0.4 0.4 0.4 0.6 0.3 0.9 0.2 1.8-0.3 2.7 -0.2 0.4-0.4 0.8-0.5 1.3 -0.1 0.7 0.4 1.2 0.9 1.5 0.5 0.3 1.1 0.2 1.6-0.2C11.9 49.4 12.1 49.3 12.2 49.2zM41 99c0.2-0.9-0.2-1.4-0.8-1.7 -0.8-0.5-0.8-1.3-0.7-2 0-0.1 0.1-0.2 0.2-0.2 0.1 0 0.3 0.1 0.3 0.2 0 1 0.8 1.6 1.3 2.3 0.3 0.5 0.5 0.9 0.2 1.5 -0.1 0.1-0.2 0.2-0.4 0.4C41.1 99.3 41.1 99.1 41 99zM55 47.7c0 0.5-0.7 1-1.1 0.8 -0.7-0.5-0.9-0.6-0.7-1.5 0.1-0.4 0.5-0.6 0.8-0.4 0.4 0.3 0.7 0.6 1 1C55 47.6 55 47.7 55 47.7zM54.4 47.5c-0.2-0.2-0.4-0.4-0.6-0.5 -0.1-0.1-0.2 0-0.4 0.1 -0.1 0.4 0.1 0.6 0.2 0.9C54.5 48.2 54.4 48 54.4 47.5zM53.7 43.8c0.2-0.3 1-0.3 1.1 0 0 0.1 0 0.2 0 0.2 0 0-0.1 0.1-0.2 0.1C54.3 43.9 54 43.9 53.7 43.8z"
        /> </svg>
