<?xml version="1.0" encoding="utf-8"?>
<?xml-stylesheet type="text/css" media="screen" href="../css/style.css"?>
<!-- Generator: Adobe Illustrator 16.0.0, SVG Export Plug-In . SVG Version: 6.00 Build 0)  -->
<!DOCTYPE svg PUBLIC "-//W3C//DTD SVG 1.1//EN" "http://www.w3.org/Graphics/SVG/1.1/DTD/svg11.dtd">
<svg version="1.1" class="check animacion" id="Capa_1" xmlns="http://www.w3.org/2000/svg" xmlns:xlink="http://www.w3.org/1999/xlink" x="0px" y="0px"
	 width="212px" height="212px" viewBox="0 0 212 212" style="enable-background:new 0 0 212 212;" xml:space="preserve">
<style type="text/css">
<![CDATA[
	.st0{fill-rule:evenodd;clip-rule:evenodd;fill:#B90038;}
	.st1{fill-rule:evenodd;clip-rule:evenodd;fill:#FEFEFE;}
]]>
        .st0{
        	fill:#B90038;
        }
		.Logo {
  width: 150%;
  height: 100%;
  position: absolute;
  top: 0; right: -25%; bottom: 0; left: -25%;
  margin: auto;
  display:block;
  fill: url("#MyGradient");
  stroke: #3C3C3B;
  stroke-miterlimit: 5;
}

.Animate-Draw {
  fill-opacity: 0;
  animation-timing-function: ease-in-out;
  animation-fill-mode: forwards;
  animation-iteration-count: infinite;

  animation-name: DrawLine,FadeStroke,fill;
  animation-duration: 2s,2s,2s;
  animation-delay: 1s,1s,2s;
}
.Animate-Draw2 {
  fill-opacity: 0;
  animation-timing-function: ease-in-out;
  animation-fill-mode: forwards;
  animation-iteration: 1;

  animation-name: DrawLine, FadeStroke, FillIn;
  animation-duration: 4s, 1s, 1s;
  animation-delay: 4, 3.5s, 3.5s;
}
.Animate-Draw3 {
  fill-opacity: 0;
  animation-timing-function: ease-in-out;
  animation-fill-mode: forwards;
  animation-iteration: 1;

  animation-name: DrawLine, FadeStroke, FillIn,Rotacion;
  animation-duration: 4s, 1s, 1s;
  animation-delay: 4, 3.5s, 3.5s,8s;
}
#Draw-Mark {
animation-delay: 0s, 1s,1s;
}

#Draw-Frame {
  animation-delay: .5s, 3.5s, 3.5s;
  animation-duration: 3.5s, 1s, 1s;
  stroke-dashArray: 1500;
  stroke-dashoffset: 1500;
}
#Draw-Frame2 {
  animation-delay: 3.5s, 4.5s, 4.5s;
  animation-duration: 3.5s, 1s, 1s;
  stroke-dashArray: 1500;
  stroke-dashoffset: 1500;
}
#Draw-Frame3 {
  animation-delay: 3.5s, 4.5s, 4.5s;
  animation-duration: 3.5s, 1s, 1s;
  stroke-dashArray: 1500;
  stroke-dashoffset: 1500;
}
#Draw-Text {
  animation-delay: 2s, 3.5s, 3.5s;
  animation-duration: 2s, 1s, 1s;
  stroke-dashArray: 300;
  stroke-dashoffset: 300;
  //animation-duration: 4s;
}
.Movimiento{
    -webkit-animation:spin 1s linear forwards;
    -moz-animation:spin 1s linear forwards;
    animation:spin 1s linear forwards;
}
@-moz-keyframes spin { 50% { -moz-transform-origin: 7 7;-moz-transform: rotate(25 7 7); } }
@-webkit-keyframes spin { 50% { -webkit-transform-origin: 7 7;-webkit-transform: rotate(25 7 7); } }
@keyframes spin { 50% { -webkit-transform-origin: 7 7;-webkit-transform: rotate(25 7 7); transform:rotate(25 7 7); } }

@keyframes DrawLine {
  to { stroke-dashOffset: 0; fill-opacity : 1;}
}
@keyframes FadeStroke {
  to { stroke-opacity: 0;fill-opacity : 1; }
}

@keyframes FillIn {
  from { fill-opacity: 0; }
  to { fill-opacity: .8; }
}

@keyframes fill {
              0% {
                  fill: white;
              }
              100% {
                  fill: #B90038;
              }
          }
</style>

	<path class="st1" d="M1,1c69.7,0,139.3,0,209-0.1c3.4,0,4.1,0.7,4.1,4.1c-0.1,68.3-0.1,136.6,0,205c0,3.4-0.7,4.1-4.1,4.1
		c-68.3-0.1-136.6-0.1-205,0c-3.4,0-4.1-0.7-4.1-4.1C1,140.3,1,70.7,1,1z"/>
	<path class="st0" d="M8,107.6C8,52.1,51.9,7.2,108.3,7.1c55.6-0.1,100.1,43.8,100.2,100.2c0.2,56.6-44.7,100.4-99.9,100.5
		C52.7,208,8.2,163.6,8,107.6z"/>
	<path class="st1" d="M108.4,12c52.1,0.7,95.2,42.3,95,95.6c-0.1,53.1-42.9,96-96.9,95.2C55.5,202,12.9,160.3,13.1,107
		C13.2,54.7,55.7,12.6,108.4,12z"/>

	<path class="st0 Logo Animate-Draw" id="Draw-Mark" d="M101.6,136.9c-2.2,0.5-3.6-0.7-4.9-2.1c-5.5-5.6-11.1-11-16.6-16.6c-3.6-3.6-3.1-6.2,1.6-10.8
		c4.4-4.3,6.1-4.4,9.9-0.6c2.4,2.3,4.9,4.5,7,7.1c2.1,2.6,3.4,1.9,5.4-0.2c6.5-6.9,13.1-13.6,19.8-20.4c4.6-4.6,6.2-4.5,11,0.4
		c5.3,5.2,5.4,6.8,0.8,11.4c-9.8,9.9-19.8,19.8-29.6,29.7C104.8,136,103.5,137.4,101.6,136.9z"/>

</svg>
