<?xml version="1.0" encoding="utf-8"?>
<!-- Generator: Adobe Illustrator 16.0.0, SVG Export Plug-In . SVG Version: 6.00 Build 0)  -->
<!DOCTYPE svg PUBLIC "-//W3C//DTD SVG 1.1//EN" "http://www.w3.org/Graphics/SVG/1.1/DTD/svg11.dtd">
<svg version="1.1" id="Capa_1" xmlns="http://www.w3.org/2000/svg" xmlns:xlink="http://www.w3.org/1999/xlink" x="0px" y="0px"
	 width="480.7px" height="87.5px" viewBox="0 0 480.7 87.5" style="enable-background:new 0 0 480.7 87.5;" xml:space="preserve">
<style type="text/css">
<![CDATA[
	.st0{font-size:10.5927;}
	.st1{font-family:'Aspira-Regular';}
	.st2{fill:#FFFFFF;}
	.st3{fill:none;}
	.st4{letter-spacing:1;}
	.st5{fill:#3F3E40;}
]]>
</style>
<g>
	<g>
		<text transform="matrix(1 0 0 1 46.2566 85.0371)" class="st5 st1 st0 st4">NEUROCIRUGÍA</text>
		<text transform="matrix(1 0 0 1 174.0085 85.0371)" class="st5 st1 st0 st4">NEUROLOGÍA</text>
		<text transform="matrix(1 0 0 1 288.2004 85.0371)" class="st5 st1 st0 st4">COLUMNA VERTEBRAL</text>
		<circle class="st5" cx="274.4" cy="81.8" r="1"/>
		<circle class="st5" cx="160.8" cy="81.8" r="1"/>
	</g>
	<g>
		<path class="st3" d="M25.3,6.1c-0.9-1.3-2-2.4-3.3-3.2c-1.3-0.8-2.6-1.5-4.1-1.7C17.4,1,16.7,1,16.1,0.9c-0.7-0.1-1.5-0.1-2.5-0.1
			c-0.3,0-0.7,0-1.1,0c-0.4,0-0.8,0-1.2,0.1c-0.4,0-0.7,0.1-1.1,0.1C9.8,1,9.6,1.1,9.4,1.1C9.2,2.5,9.1,4.5,9.1,6.9
			c0,2.5,0,5.4,0,8.8c0,1.8,0,3.5,0,5s0,2.7,0,3.7c0,0.4,0,0.8,0.1,1.3c0,0.5,0.1,0.9,0.2,1.4c0.1,0.4,0.1,0.8,0.3,1.2
			c0.1,0.4,0.3,0.6,0.5,0.8c0.6,0.6,1.3,0.9,2.2,1.1c0.9,0.2,1.7,0.2,2.5,0.2c0.7,0,1.5,0,2.2-0.1c0.8-0.1,1.5-0.2,2.1-0.4
			c3.1-0.9,5.4-2.6,6.9-5.2c1.5-2.6,2.3-5.7,2.3-9.5c0-1.7-0.3-3.3-0.8-4.9C27,8.8,26.2,7.4,25.3,6.1z"/>
		<path class="st3" d="M467.7,21.9c-0.7,0.5-1.4,1-1.9,1.6s-0.8,1.3-0.8,2s0.3,1.4,0.8,2s1.2,0.9,2,0.9c0.7,0,1.4-0.1,2-0.3
			c0.6-0.2,1.1-0.5,1.6-1c0.3-0.3,0.5-0.7,0.5-1.2v-6.6c-0.5,0.4-1.2,0.8-1.9,1.2C469.1,21,468.4,21.4,467.7,21.9z"/>
		<path class="st5" d="M30.9,6.4c-0.8-1.1-1.7-2.1-2.8-2.9c-1.1-0.8-2.2-1.5-3.4-2c-0.9-0.4-1.8-0.7-2.8-0.9C21,0.4,20,0.3,19.1,0.2
			c-0.9-0.1-1.9-0.1-2.8-0.1s-1.8,0-2.7,0c-3.2,0-5.9,0-8.2,0c-2.3,0-4,0-5.2,0v0.4c0.7,0.1,1.4,0.2,2,0.4C2.8,1.1,3.3,1.5,3.7,2
			C3.9,2.3,4,2.5,4.1,2.9c0.1,0.4,0.1,0.8,0.2,1.2c0,0.4,0.1,0.9,0.1,1.4s0,1,0,1.5v8.4c0,0.8,0,1.6,0,2.5s0,1.7,0,2.5
			c0,0.8,0,1.6,0,2.3c0,0.7,0,1.2,0,1.6c0,0.5,0,0.9,0,1.4s-0.1,0.9-0.1,1.4C4.1,27.6,4,28,3.9,28.3c-0.1,0.3-0.2,0.6-0.3,0.7
			c-0.3,0.4-0.9,0.7-1.5,1c-0.7,0.3-1.4,0.5-2.1,0.6V31h15.7c1.3,0,2.7-0.1,4.1-0.3c1.4-0.2,2.8-0.5,4.1-1c1.3-0.5,2.6-1.1,3.7-1.8
			c1.2-0.8,2.2-1.7,3.1-2.9c0.9-1.2,1.6-2.6,2.1-4.2c0.5-1.6,0.8-3.5,0.8-5.7c0-1.9-0.2-3.5-0.7-5C32.4,8.8,31.7,7.5,30.9,6.4z
			 M26,24.7c-1.5,2.6-3.8,4.3-6.9,5.2c-0.7,0.2-1.4,0.3-2.1,0.4c-0.8,0.1-1.5,0.1-2.2,0.1c-0.8,0-1.6-0.1-2.5-0.2
			c-0.9-0.2-1.6-0.5-2.2-1.1c-0.2-0.2-0.3-0.4-0.5-0.8c-0.1-0.4-0.2-0.8-0.3-1.2s-0.1-0.9-0.2-1.4c0-0.5-0.1-0.9-0.1-1.3
			c0-0.9,0-2.2,0-3.7s0-3.2,0-5c0-3.4,0-6.3,0-8.8s0.1-4.4,0.3-5.8C9.6,1.1,9.8,1,10.2,1c0.3,0,0.7-0.1,1.1-0.1s0.8-0.1,1.2-0.1
			c0.4,0,0.8,0,1.1,0c1,0,1.8,0,2.5,0.1C16.7,1,17.4,1,17.9,1.2C19.4,1.5,20.8,2,22,2.9s2.3,2,3.3,3.2c0.9,1.3,1.6,2.7,2.1,4.3
			s0.8,3.2,0.8,4.9C28.3,19,27.5,22.1,26,24.7z"/>
		<path class="st5" d="M50.2,10.3c-0.9,0-1.7,0.2-2.4,0.7s-1.3,1.1-1.8,1.7c-0.5,0.7-0.9,1.3-1.2,2c-0.3,0.7-0.5,1.2-0.7,1.5H44
			l0.1-6h-0.3l-5.6,2.2v0.3c0.3,0.1,0.7,0.3,1,0.5c0.3,0.2,0.6,0.4,0.9,0.5c0.2,0.1,0.3,0.3,0.4,0.4c0,0.1,0.1,0.3,0.1,0.5v14.5
			c0,0.5-0.2,0.8-0.7,1c-0.5,0.2-1,0.3-1.7,0.4V31h9.6v-0.4c-0.3-0.1-0.6-0.1-1-0.1s-0.8,0-1.1-0.1c-0.4-0.1-0.7-0.2-1-0.3
			c-0.3-0.1-0.5-0.3-0.6-0.6V17.1c0.2-0.4,0.4-0.9,0.6-1.4c0.2-0.5,0.5-0.9,0.8-1.3s0.6-0.7,0.9-0.9c0.3-0.2,0.7-0.4,1-0.4
			c0.4,0,0.7,0.1,0.9,0.2c0.2,0.2,0.4,0.3,0.6,0.5c0.2,0.2,0.4,0.4,0.7,0.5c0.3,0.2,0.6,0.2,1.1,0.2s0.9-0.2,1.3-0.6
			c0.4-0.4,0.6-0.9,0.6-1.6c0-0.7-0.3-1.2-0.8-1.6C51.5,10.5,50.9,10.3,50.2,10.3z"/>
		<path class="st5" d="M59.8,26c-0.7,0-1.4,0.3-1.8,0.8c-0.5,0.5-0.7,1.1-0.7,1.9c0,0.7,0.2,1.3,0.7,1.8c0.5,0.4,1.1,0.7,1.8,0.7
			s1.3-0.2,1.8-0.6s0.7-1,0.7-1.7c0-0.7-0.2-1.4-0.7-1.9C61.1,26.3,60.5,26,59.8,26z"/>
		<path class="st5" d="M79.6,0.6C80.4,0.7,81.3,0.9,82,1c0.8,0.2,1.4,0.6,1.9,1.1c0.2,0.2,0.3,0.5,0.4,1c0.1,0.4,0.1,0.9,0.2,1.4
			c0.1,0.5,0.1,1.1,0.1,1.7c0,0.6,0,1.2,0,1.7v9.4c0,0.9,0,1.8,0,2.8s0,1.9,0,2.9c0,0.9,0,1.7,0,2.5s0,1.4,0,1.8
			c0,0.9-0.1,1.8-0.2,2.7c-0.1,0.9-0.2,1.7-0.4,2.4c-0.2,0.7-0.6,1.4-1.1,1.9s-1.2,0.8-2,0.8c-0.3,0-0.5-0.1-0.8-0.2
			s-0.5-0.3-0.7-0.5v-0.1c0.7-0.1,1.2-0.3,1.7-0.7c0.5-0.3,0.7-0.9,0.7-1.6c0-0.6-0.2-1.2-0.7-1.7s-1-0.7-1.7-0.7
			c-0.7,0-1.4,0.2-2,0.7c-0.6,0.5-0.9,1.1-0.9,1.9c0,0.6,0.1,1.1,0.4,1.6c0.2,0.4,0.6,0.8,1,1c0.4,0.2,0.9,0.4,1.4,0.6
			c0.5,0.2,1,0.2,1.5,0.2c0.9,0,2-0.2,3.1-0.5c1.1-0.4,2.2-0.9,3.2-1.7c0.8-0.6,1.5-1.3,2-2.1c0.5-0.8,0.8-1.7,0.8-2.7V17.2
			c0-1,0-1.9,0-2.8s0-1.7,0-2.5c0-0.8,0-1.6,0-2.4s0-1.6,0-2.4c0-0.7,0.1-1.5,0.1-2.4c0-0.9,0.2-1.5,0.4-2.1c0.4-0.8,1-1.3,1.8-1.5
			c0.8-0.2,1.5-0.4,2.2-0.5V0.1H79.6V0.6z"/>
		<path class="st5" d="M108.2,28.8c-1.6,0-2.7-0.5-3.2-1.4c-0.6-0.9-0.9-2.3-0.9-4.2V10.7h-6.6v0.5c0.3,0,0.5,0.1,0.8,0.1
			s0.6,0.1,0.8,0.1c0.3,0.1,0.5,0.1,0.7,0.3c0.2,0.1,0.4,0.3,0.5,0.6c0.1,0.1,0.1,0.2,0.1,0.4c0,0.2,0,0.4,0.1,0.6
			c0,0.2,0,0.4,0,0.6c0,0.2,0,0.4,0,0.5v10.5c0,2.1,0.4,3.7,1.3,4.8c0.9,1.1,2.2,1.6,4.1,1.6c0.8,0,1.6-0.1,2.3-0.4
			c0.5-0.2,1-0.4,1.4-0.7v-1.5C109.2,28.7,108.7,28.8,108.2,28.8z"/>
		<path class="st5" d="M116.8,28.6c-0.2-0.1-0.3-0.3-0.4-0.4c0-0.1-0.1-0.3-0.1-0.5v-17h-7.2v0.5c0.6,0.1,1.2,0.1,1.8,0.2
			c0.6,0.1,1.1,0.2,1.4,0.3c0.2,0.2,0.3,0.6,0.3,1c0.1,0.4,0.1,0.8,0.1,1.1v5.7l0,0V31h0.3l6.1-1.1v-0.3c-0.3-0.1-0.8-0.3-1.3-0.6
			C117.4,28.9,117,28.7,116.8,28.6z"/>
		<path class="st5" d="M141.1,27.9c-0.3,0.3-0.8,0.4-1.5,0.4c-0.6,0-1.1-0.2-1.5-0.6c-0.4-0.4-0.7-1.3-0.7-2.6c0-1,0-1.9,0-2.7
			c0-0.8,0-1.6,0-2.4s0-1.6,0-2.4c0-0.8,0-1.8,0-2.8c0-0.5,0-1,0-1.5s-0.1-0.9-0.2-1.1c-0.3-0.6-0.8-1.1-1.4-1.4
			c-0.7-0.4-1.4-0.6-2.1-0.6c-0.4,0-0.9,0.1-1.4,0.3c-0.6,0.2-1.2,0.4-1.9,0.7c-0.7,0.3-1.4,0.6-2.2,1c-0.8,0.4-1.5,0.8-2.3,1.2
			c-0.2,0.1-0.5,0.3-0.8,0.5c-0.3,0.2-0.6,0.4-0.8,0.6c-0.3,0.2-0.5,0.5-0.6,0.8c-0.2,0.3-0.3,0.6-0.3,0.9c0,0.4,0.2,0.8,0.5,1.1
			c0.3,0.3,0.7,0.5,1.2,0.5s0.9-0.2,1.4-0.5c0.4-0.3,0.6-0.7,0.6-1.1v-1.9c0-0.2,0.1-0.4,0.3-0.6c0.2-0.2,0.5-0.5,0.8-0.7
			c0.3-0.2,0.7-0.4,1.2-0.6c0.4-0.2,0.9-0.2,1.4-0.2c0.7,0,1.2,0.1,1.7,0.3c0.4,0.2,0.8,0.4,1,0.6c0.2,0.2,0.4,0.5,0.5,0.7
			c0.1,0.2,0.1,0.4,0.1,0.4v4.2l0,0v8.9c0,1.4,0.4,2.3,1.1,2.9c0.8,0.6,1.6,0.9,2.6,0.9c0.6,0,1.2-0.1,1.7-0.3
			c0.5-0.2,0.9-0.5,1.3-0.9s0.7-0.9,0.9-1.4c0.2-0.5,0.4-1,0.4-1.6h-0.3C141.7,27.3,141.4,27.6,141.1,27.9z"/>
		<path class="st5" d="M130,28.4c-0.8,0-1.5-0.3-2-0.9s-0.8-1.3-0.8-2s0.3-1.4,0.8-2s1.2-1.1,1.9-1.6c0.3-0.2,0.6-0.4,1-0.6v-0.8
			c-0.4,0.2-0.7,0.4-1.2,0.7c-0.7,0.4-1.6,0.9-2.5,1.5c-0.9,0.6-1.7,1.3-2.4,2c-0.6,0.7-1,1.5-1,2.3c0,0.7,0.1,1.4,0.4,1.9
			c0.2,0.5,0.6,0.9,0.9,1.3c0.4,0.3,0.8,0.6,1.3,0.7s0.9,0.2,1.4,0.2c0.8,0,1.5-0.1,2.1-0.4c0.3-0.1,0.6-0.3,0.9-0.4v-1.9
			C130.5,28.4,130.3,28.4,130,28.4z"/>
		<path class="st5" d="M150.6,10.3h-0.3l-5.6,2v0.3c0.3,0.1,0.7,0.3,1,0.5c0.3,0.2,0.6,0.4,0.9,0.5c0.2,0.1,0.3,0.3,0.4,0.4
			c0,0.1,0.1,0.3,0.1,0.5v14.8c0,0.5-0.2,0.8-0.7,1c-0.5,0.2-1,0.3-1.7,0.4V31h8.3v-0.4c-0.3-0.1-0.6-0.1-0.8-0.1
			c-0.3,0-0.5,0-0.7-0.1s-0.4-0.1-0.5-0.3c-0.1-0.1-0.2-0.3-0.3-0.6L150.6,10.3z"/>
		<path class="st5" d="M163.7,30.4c-0.3-0.1-0.5-0.2-0.7-0.3s-0.3-0.3-0.3-0.5V16.9c0-1.9-0.4-3.5-1.3-4.8c-0.9-1.2-2.2-1.8-3.8-1.8
			c-0.8,0-1.5,0.2-2.2,0.5c-0.6,0.2-1.1,0.5-1.6,0.9v1.6c0.4-0.1,0.8-0.1,1.3-0.1c1.5,0,2.5,0.5,3.2,1.5c0.6,1,0.9,2.4,0.9,4v10.8
			c0,0.5-0.2,0.8-0.7,0.9s-1.1,0.2-1.8,0.3V31h8.7v-0.4c-0.3,0-0.5-0.1-0.8-0.1S164,30.5,163.7,30.4z"/>
		<path class="st5" d="M217.2,29.6c-0.3-0.2-0.6-0.5-0.8-0.7c-0.2-0.2-0.3-0.4-0.3-0.4c-0.2-0.3-0.3-0.8-0.4-1.3
			c-0.1-0.5-0.1-1.1-0.1-1.7c0-1.7,0-3.3,0-4.8s0-3.1,0-4.6c0-1.3,0-2.6,0-3.9c0-1.3,0-2.6,0-4c0-1,0.1-2,0.1-3
			c0.1-1,0.2-1.8,0.3-2.3c0.2-0.6,0.7-1.2,1.3-1.6c0.6-0.5,1.5-0.7,2.7-0.7V0.1h-9.1c-0.1,0.2-0.4,1.1-1.1,2.5
			c-0.6,1.4-1.4,3.3-2.4,5.4c-1,2.2-2,4.6-3.2,7.3c-1.2,2.7-2.4,5.4-3.7,8.1L190.3,0.1h-9.1v0.4c0.3,0.1,0.8,0.2,1.2,0.3
			c0.4,0.1,0.9,0.3,1.4,0.6c0.5,0.3,0.8,0.7,1.1,1.2c0.3,0.5,0.5,1.2,0.5,2c0,0.8,0,1.5,0,2.1c0,0.6,0,1.1,0,1.7c0,0.5,0,1.1,0,1.6
			c0,0.6,0,1.3,0,2.1c0,1.9,0,3.7,0,5.4s-0.1,3.1-0.1,4.4c0,1.5-0.1,2.7-0.3,3.7s-0.4,1.9-0.8,2.6c-0.4,0.7-0.9,1.2-1.5,1.6
			c-0.6,0.4-1.4,0.7-2.4,0.9V31h11.2v-0.4c-1.2-0.2-2.2-0.5-2.9-0.8c-0.7-0.4-1.2-0.9-1.6-1.6c-0.3-0.7-0.6-1.5-0.6-2.5
			c-0.1-1-0.1-2.2-0.1-3.5c0-2.1,0-3.9,0-5.5c0-1.6,0-3.1,0-4.5c0-1.4,0-2.8,0-4.3s0-3.1,0-5c0.1,0.3,0.4,0.9,0.8,1.8
			c0.4,0.9,0.9,2,1.5,3.3c0.6,1.3,1.3,2.8,2,4.5s1.5,3.5,2.4,5.4c0.9,1.9,1.7,3.9,2.6,6c0.9,2.1,1.8,4.2,2.7,6.3h0.3
			c0.1-0.2,0.2-0.5,0.4-1.1c0.2-0.5,0.5-1.1,0.7-1.8c0.3-0.6,0.5-1.3,0.8-1.9s0.5-1.1,0.6-1.4c0.9-2.1,1.8-4.1,2.6-5.8
			c0.8-1.8,1.6-3.5,2.3-5.2c0.8-1.7,1.6-3.4,2.3-5.2c0.8-1.8,1.7-3.7,2.6-5.8v12.2c0,1.8,0,3.6,0,5.3s0,3.5-0.1,5.4
			c0,0.6-0.1,1.1-0.2,1.7c-0.1,0.6-0.2,1-0.4,1.4c-0.3,0.6-0.8,1.1-1.7,1.6c-0.8,0.5-1.9,0.7-3.1,0.8V31h14.7v-0.4
			c-0.7,0-1.3-0.1-1.8-0.3C218,30.1,217.6,29.9,217.2,29.6z"/>
		<path class="st5" d="M242.9,27.9c-0.3,0.3-0.8,0.4-1.5,0.4c-0.6,0-1.1-0.2-1.5-0.6c-0.4-0.4-0.7-1.3-0.7-2.6c0-1,0-1.9,0-2.7
			c0-0.8,0-1.6,0-2.4s0-1.6,0-2.4c0-0.8,0-1.8,0-2.8c0-0.5,0-1,0-1.5s-0.1-0.9-0.2-1.1c-0.3-0.6-0.8-1.1-1.4-1.4
			c-0.7-0.4-1.4-0.6-2.1-0.6c-0.4,0-0.9,0.1-1.4,0.3c-0.6,0.2-1.2,0.4-1.9,0.7c-0.7,0.3-1.4,0.6-2.2,1c-0.8,0.4-1.5,0.8-2.3,1.2
			c-0.2,0.1-0.5,0.3-0.8,0.5c-0.3,0.2-0.6,0.4-0.8,0.6c-0.3,0.2-0.5,0.5-0.6,0.8c-0.2,0.3-0.3,0.6-0.3,0.9c0,0.4,0.2,0.8,0.5,1.1
			c0.3,0.3,0.7,0.5,1.2,0.5s0.9-0.2,1.4-0.5c0.4-0.3,0.6-0.7,0.6-1.1v-1.9c0-0.2,0.1-0.4,0.3-0.6c0.2-0.2,0.5-0.5,0.8-0.7
			s0.7-0.4,1.2-0.6c0.4-0.2,0.9-0.2,1.4-0.2c0.7,0,1.2,0.1,1.7,0.3c0.4,0.2,0.8,0.4,1,0.6c0.2,0.2,0.4,0.5,0.5,0.7
			c0.1,0.2,0.2,0.4,0.2,0.4v3.5v1v0.7V26v1.2c0,1.4,0.4,2.4,1.1,3c0.8,0.6,1.6,0.9,2.6,0.9c0.6,0,1.2-0.1,1.7-0.3
			c0.5-0.2,0.9-0.5,1.3-0.9c0.4-0.4,0.7-0.9,0.9-1.4s0.4-1,0.4-1.6h-0.3C243.4,27.3,243.2,27.6,242.9,27.9z"/>
		<path class="st5" d="M231.7,28.4c-0.8,0-1.5-0.3-2-0.9s-0.8-1.3-0.8-2s0.3-1.4,0.8-2s1.2-1.1,1.9-1.6c0.3-0.2,0.6-0.4,1-0.6v-0.8
			c-0.4,0.2-0.7,0.4-1.2,0.7c-0.7,0.4-1.6,0.9-2.5,1.5c-0.9,0.6-1.7,1.3-2.4,2c-0.6,0.7-1,1.5-1,2.3c0,0.7,0.1,1.4,0.4,1.9
			c0.2,0.5,0.6,0.9,0.9,1.3c0.4,0.3,0.8,0.6,1.3,0.7s0.9,0.2,1.4,0.2c0.8,0,1.5-0.1,2.1-0.4c0.3-0.1,0.6-0.3,0.9-0.4v-1.9
			C232.3,28.4,232,28.4,231.7,28.4z"/>
		<path class="st5" d="M265.5,30.4c-0.3-0.1-0.5-0.2-0.7-0.3s-0.3-0.3-0.3-0.5V16.9c0-1.9-0.4-3.5-1.3-4.8c-0.9-1.2-2.2-1.8-3.8-1.8
			c-0.8,0-1.5,0.2-2.2,0.5c-0.6,0.2-1.1,0.6-1.6,0.9v1.5c0.4-0.1,0.8-0.1,1.3-0.1c1.5,0,2.5,0.5,3.2,1.5c0.6,1,0.9,2.4,0.9,4v10.8
			c0,0.5-0.2,0.8-0.7,0.9c-0.5,0.1-1.1,0.2-1.8,0.3V31h8.7v-0.4c-0.3,0-0.5-0.1-0.8-0.1C266,30.5,265.7,30.5,265.5,30.4z"/>
		<path class="st5" d="M252.3,10.3h-0.2l-5.6,2v0.3c0.3,0.1,0.7,0.3,1,0.5c0.3,0.2,0.6,0.4,0.9,0.5c0.2,0.1,0.3,0.3,0.4,0.4
			c0,0.1,0.1,0.3,0.1,0.5v14.8c0,0.5-0.2,0.8-0.7,1c-0.5,0.2-1,0.3-1.7,0.4V31h8.3v-0.4c-0.3-0.1-0.6-0.1-0.8-0.1
			c-0.3,0-0.5,0-0.7-0.1s-0.4-0.1-0.5-0.3c-0.1-0.1-0.2-0.3-0.3-0.6L252.3,10.3z"/>
		<path class="st5" d="M289.1,28.6c-0.2-0.1-0.3-0.3-0.4-0.4c0-0.1-0.1-0.3-0.1-0.5v-17h-7.2v0.5c0.6,0.1,1.2,0.1,1.8,0.2
			c0.6,0.1,1.1,0.2,1.4,0.3c0.2,0.2,0.3,0.6,0.3,1c0.1,0.4,0.1,0.8,0.1,1.1V20l0,0v11h0.3l6.1-1.1v-0.3c-0.3-0.1-0.8-0.3-1.3-0.6
			C289.7,28.9,289.3,28.7,289.1,28.6z"/>
		<path class="st5" d="M280.4,28.8c-1.6,0-2.7-0.5-3.2-1.4c-0.6-0.9-0.9-2.3-0.9-4.2V10.7h-6.6v0.5c0.3,0,0.5,0.1,0.8,0.1
			s0.6,0.1,0.8,0.1c0.3,0.1,0.5,0.1,0.7,0.3c0.2,0.1,0.4,0.3,0.5,0.6c0.1,0.1,0.1,0.2,0.1,0.4c0,0.2,0,0.4,0.1,0.6
			c0,0.2,0,0.4,0,0.6c0,0.2,0,0.4,0,0.5v10.5c0,2.1,0.4,3.7,1.3,4.8c0.9,1.1,2.2,1.6,4.1,1.6c0.8,0,1.6-0.1,2.3-0.4
			c0.5-0.2,1-0.4,1.4-0.7v-1.5C281.4,28.7,281,28.8,280.4,28.8z"/>
		<path class="st5" d="M310.5,27.1c-1.1,0.7-2.3,1.1-3.8,1.1c-1.3,0-2.5-0.2-3.5-0.7s-1.8-1.2-2.5-2c-0.7-0.8-1.2-1.8-1.5-2.9
			c-0.3-1.1-0.5-2.3-0.5-3.5c0-0.3,0-0.6,0-0.9c0-0.3,0.1-1.4,0.1-1.4l0,0l0,0l0,0c0.1-0.3,0.2-0.8,0.5-1.4s0.6-1.3,1.1-1.9
			s1-1.2,1.7-1.7c0.6-0.5,1.4-0.7,2.2-0.7c1.2,0,2.2,0.4,2.9,1.1c0.7,0.8,1.1,1.7,1.1,2.7c0,0.4,0,0.7-0.1,0.9
			c-0.1,0.2-0.3,0.4-0.5,0.6c-0.3,0.1-0.6,0.2-1,0.2c-0.4,0-0.8,0-1.2,0c-0.7,0-1.3,0-1.8,0s-1.1,0-1.6,0c0,0,0,0-0.1,0v0.6h10.5
			c-0.1-1.2-0.4-2.2-0.8-3.1c-0.5-0.9-1-1.6-1.8-2.2c-0.7-0.6-1.6-1-2.6-1.3c-1-0.3-2-0.4-3.2-0.4c-1.4,0-2.6,0.3-3.8,0.9
			c-1.1,0.6-2.1,1.4-2.9,2.3c-0.8,0.9-1.4,2-1.8,3.2c-0.4,1.2-0.6,2.4-0.6,3.6c0,1.5,0.2,2.9,0.7,4.2c0.5,1.3,1.1,2.5,2,3.5
			c0.8,1,1.9,1.8,3.1,2.3s2.5,0.8,4,0.8c1.2,0,2.2-0.2,3.2-0.6s1.8-1,2.5-1.6c0.7-0.7,1.2-1.4,1.6-2.2c0.4-0.8,0.7-1.5,0.8-2.1
			l-0.3-0.1C312.2,25.5,311.5,26.4,310.5,27.1z"/>
		<path class="st5" d="M323.1,30.4c-0.3-0.1-0.4-0.2-0.6-0.3c-0.1-0.1-0.2-0.4-0.2-0.6V0H322l-6.1,2v0.3c0.3,0.1,0.8,0.4,1.3,0.7
			s0.9,0.5,1.2,0.7c0.2,0.1,0.3,0.3,0.4,0.4c0.1,0.1,0.1,0.3,0.1,0.5v24.7c0,0.5-0.2,0.8-0.6,1c-0.4,0.2-1.3,0.3-2.6,0.4V31h10v-0.5
			c-0.5-0.1-1-0.1-1.4-0.1C323.6,30.5,323.3,30.4,323.1,30.4z"/>
		<path class="st5" d="M366.6,26c-0.7-1-1.5-2.1-2.3-3.3c-0.9-1.3-1.7-2.4-2.4-3.5c-0.4-0.6-0.9-1.1-1.3-1.6
			c-0.5-0.5-0.9-0.9-1.4-1.1v-0.1c0.9-0.3,1.8-0.7,2.7-1.2c0.9-0.5,1.6-1,2.3-1.7c0.6-0.6,1.2-1.4,1.5-2.2c0.4-0.8,0.6-1.8,0.6-2.9
			c0-1.7-0.4-3.1-1.2-4.3c-0.8-1.1-1.8-2-3-2.7c-1.2-0.7-2.6-1-4.1-1.2c-1.5-0.1-3.2-0.2-5.1-0.2c-0.8,0-1.8,0-3,0s-2.5,0-3.7,0
			c-1.2,0-2.3,0-3.3,0c-0.9,0-1.5,0-1.8,0v0.4c0.8,0.1,1.4,0.3,2,0.4c0.5,0.2,1,0.5,1.4,0.9c0.2,0.2,0.3,0.5,0.4,0.8
			c0.1,0.4,0.2,0.8,0.2,1.3s0.1,1,0.1,1.5s0,1.1,0,1.6v8.4c0,0.8,0,1.6,0,2.5c0,0.9,0,1.7,0,2.5c0,0.8,0,1.6,0,2.3
			c0,0.7,0,1.2,0,1.6c0,0.5,0,0.9,0,1.4s-0.1,0.9-0.1,1.4c0,0.4-0.1,0.8-0.2,1.2c-0.1,0.3-0.2,0.6-0.3,0.8c-0.4,0.5-0.9,0.8-1.5,1
			c-0.7,0.2-1.3,0.4-2.1,0.5V31h13.7v-0.4c-1.2-0.1-2.1-0.3-2.7-0.7c-0.7-0.4-1.1-0.8-1.3-1.1c-0.3-0.4-0.4-1-0.5-1.6
			c0-0.7-0.1-1.4-0.1-2.4c0-0.9,0-2.1,0-3.5c0-1.4,0-3,0-4.9l0,0v-0.6l0,0c0-0.2,0-0.8,0-1.6c0-0.9,0-1.9,0-3.1c0-1.2,0-2.4,0-3.6
			c0-1.3,0-2.4,0.1-3.4c0-0.7,0.1-1.2,0.1-1.5c0-0.4,0-0.6,0-0.8c0-0.2,0-0.4,0.1-0.5c0-0.1,0.1-0.3,0.1-0.5c0.2,0,0.5-0.1,0.9-0.1
			c0.4,0,0.9,0,1.5,0c0.8,0,1.6,0.1,2.4,0.2s1.5,0.4,2.2,0.7c1.4,0.7,2.4,1.5,3.1,2.7c0.7,1.1,1.1,2.4,1.1,3.8
			c0,0.8-0.1,1.5-0.3,2.2c-0.2,0.7-0.5,1.4-0.9,2c-0.4,0.6-1,1.2-1.6,1.7c-0.7,0.5-1.4,0.9-2.4,1.2c-0.9,0.3-1.9,0.5-2.9,0.6l0,0V17
			c0.4,0.2,0.7,0.4,1.1,0.7c0.7,0.6,1.3,1.2,1.9,1.8c0.7,0.8,1.3,1.5,1.8,2.2c0.5,0.6,1,1.3,1.4,1.9c0.4,0.6,0.9,1.3,1.3,1.9
			s0.9,1.4,1.4,2.2c0.5,0.7,0.8,1.2,1,1.5c0.2,0.3,0.4,0.6,0.5,0.8c0.1,0.2,0.3,0.3,0.4,0.5c0.1,0.1,0.3,0.3,0.6,0.6h8.8v-0.4
			c-1.3-0.2-2.5-0.6-3.5-1.3C368.7,28.6,367.7,27.5,366.6,26z"/>
		<path class="st5" d="M382.2,30.4c-0.3-0.1-0.5-0.1-0.7-0.3c-0.2-0.1-0.3-0.3-0.4-0.6V10.3h-0.3l-5.8,1.9v0.3
			c0.4,0.1,0.8,0.3,1.1,0.5c0.4,0.2,0.7,0.3,0.9,0.5c0.2,0.1,0.3,0.3,0.4,0.5c0,0.2,0.1,0.4,0.1,0.6v14.7c0,0.3-0.1,0.5-0.3,0.6
			c-0.2,0.2-0.4,0.3-0.7,0.4c-0.3,0.1-0.6,0.2-0.9,0.2s-0.7,0.1-1,0.1V31h9.2v-0.4c-0.3-0.1-0.6-0.1-0.9-0.1
			C382.7,30.5,382.4,30.5,382.2,30.4z"/>
		<path class="st5" d="M379.2,5.8c0.7,0,1.2-0.2,1.7-0.7c0.4-0.4,0.7-1,0.7-1.7c0-0.7-0.2-1.2-0.7-1.6c-0.4-0.4-1-0.6-1.7-0.6
			c-0.7,0-1.2,0.2-1.7,0.6c-0.4,0.4-0.7,1-0.7,1.6s0.2,1.2,0.7,1.6C378,5.6,378.5,5.8,379.2,5.8z"/>
		<path class="st5" d="M403.1,27.1c-1.1,0.7-2.3,1.1-3.8,1.1c-1.3,0-2.5-0.2-3.5-0.7s-1.8-1.2-2.5-2s-1.2-1.8-1.5-2.9
			s-0.5-2.3-0.5-3.5c0-0.3,0-0.6,0-0.9c0-0.3,0.1-1.4,0.1-1.4c0.1-0.3,0.2-0.8,0.5-1.5c0.3-0.6,0.6-1.3,1.1-1.9s1-1.2,1.7-1.7
			c0.7-0.5,1.4-0.7,2.2-0.7c1.2,0,2.2,0.4,2.9,1.1c0.7,0.8,1.1,1.7,1.1,2.7c0,0.4-0.1,0.7-0.2,0.9c-0.1,0.2-0.3,0.4-0.5,0.6
			c-0.3,0.1-0.6,0.2-1,0.2c-0.4,0-0.8,0-1.2,0c-0.7,0-1.3,0-1.8,0s-1.1,0-1.6,0c0,0,0,0-0.1,0v0.6H405c-0.1-1.2-0.4-2.2-0.8-3.1
			c-0.5-0.9-1.1-1.6-1.8-2.2c-0.7-0.6-1.6-1-2.6-1.3s-2-0.4-3.2-0.4c-1.4,0-2.6,0.3-3.8,0.9c-1.1,0.6-2.1,1.4-2.9,2.3
			c-0.8,0.9-1.4,2-1.8,3.2s-0.6,2.4-0.6,3.6c0,1.5,0.2,2.9,0.7,4.2c0.5,1.3,1.1,2.5,2,3.5c0.8,1,1.9,1.8,3.1,2.3s2.5,0.8,4,0.8
			c1.2,0,2.2-0.2,3.2-0.6c1-0.4,1.8-1,2.5-1.6c0.7-0.7,1.2-1.4,1.6-2.2s0.7-1.5,0.8-2.1l-0.3-0.1C404.9,25.5,404.1,26.4,403.1,27.1z
			"/>
		<path class="st5" d="M419,19.1c-0.5-0.1-1.2-0.3-1.9-0.5c-0.7-0.2-1.4-0.3-2.1-0.5c-0.9-0.2-1.7-0.6-2.3-1
			c-0.6-0.5-0.9-1.2-0.9-2.3c0-0.7,0.1-1.2,0.3-1.7s0.5-0.9,0.9-1.2c0.4-0.3,0.8-0.6,1.2-0.8c0.5-0.2,1-0.3,1.4-0.3
			c0.8,0,1.5,0.1,2.1,0.4c0.6,0.3,1.2,0.7,1.7,1.2s0.9,1.2,1.3,1.9c0.4,0.7,0.8,1.5,1.2,2.4l0.3-0.1l-0.5-5.3
			c-0.8-0.3-1.7-0.6-2.6-0.8s-2-0.3-3.2-0.3c-0.9,0-1.8,0.1-2.7,0.4c-0.8,0.3-1.6,0.7-2.2,1.2c-0.6,0.5-1.1,1.1-1.5,1.8
			c-0.4,0.7-0.6,1.5-0.6,2.4c0,1.3,0.3,2.4,1,3.3c0.7,0.9,1.5,1.6,2.6,1.9c0.6,0.2,1.2,0.4,1.9,0.6c0.7,0.2,1.5,0.3,2.2,0.5
			c1,0.2,1.7,0.6,2.3,1.2s0.8,1.3,0.8,2.2c0,1.6-0.4,2.8-1.2,3.6c-0.8,0.8-1.9,1.2-3.3,1.2c-0.9,0-1.8-0.2-2.4-0.6
			c-0.7-0.4-1.3-0.9-1.8-1.6c-0.5-0.6-0.9-1.3-1.2-2.1c-0.3-0.8-0.6-1.5-0.9-2.2h-0.3v5.7c0.9,0.4,2,0.8,3.1,1
			c1.1,0.2,2.3,0.3,3.6,0.3c1.1,0,2.1-0.1,3-0.3c1-0.2,1.8-0.6,2.6-1.1c0.7-0.5,1.3-1.2,1.8-2c0.4-0.8,0.7-1.8,0.7-2.9
			c0-1.5-0.5-2.7-1.4-3.7C421.4,20.1,420.3,19.4,419,19.1z"/>
		<path class="st5" d="M440,13.4l1.3-2.6h-7.9V7h-0.3l-6.2,5.9v0.5h3.1c0,1.9,0,4,0,6.5c0,2.4,0,5,0,7.7c0,0.5,0.1,0.9,0.4,1.4
			c0.3,0.4,0.6,0.8,1,1.2c0.4,0.4,0.9,0.6,1.5,0.8c0.6,0.2,1.1,0.3,1.7,0.3c0.9,0,1.7-0.1,2.4-0.3c0.7-0.2,1.3-0.5,1.8-0.9
			s0.9-0.8,1.2-1.3c0.3-0.5,0.5-0.9,0.7-1.4l-0.3-0.1c-0.4,0.6-0.9,1-1.4,1.3c-0.5,0.3-1.2,0.4-2.1,0.4c-1,0-1.8-0.3-2.4-1
			c-0.6-0.7-0.9-1.7-0.9-3.2V13.4H440z"/>
		<path class="st5" d="M455.6,10.3c-0.9,0-1.7,0.2-2.4,0.7c-0.7,0.5-1.3,1.1-1.8,1.7c-0.5,0.7-0.9,1.3-1.2,2
			c-0.3,0.7-0.5,1.2-0.7,1.5h-0.1l0.1-6h-0.3l-5.6,2.2v0.3c0.3,0.1,0.7,0.3,1,0.5c0.3,0.2,0.6,0.4,0.9,0.5c0.2,0.1,0.3,0.3,0.4,0.4
			c0,0.1,0.1,0.3,0.1,0.5v14.5c0,0.5-0.2,0.8-0.7,1c-0.5,0.2-1,0.3-1.7,0.4V31h9.6v-0.4c-0.3-0.1-0.6-0.1-1-0.1
			c-0.4,0-0.8,0-1.1-0.1c-0.4-0.1-0.7-0.2-1-0.3s-0.5-0.3-0.6-0.6V17.1c0.2-0.4,0.4-0.9,0.6-1.4s0.5-0.9,0.8-1.3s0.6-0.7,0.9-0.9
			c0.3-0.2,0.7-0.4,1-0.4c0.4,0,0.7,0.1,0.9,0.2c0.2,0.2,0.4,0.3,0.6,0.5c0.2,0.2,0.4,0.4,0.7,0.5c0.3,0.2,0.6,0.2,1.1,0.2
			s0.9-0.2,1.3-0.6s0.6-0.9,0.6-1.6c0-0.7-0.3-1.2-0.8-1.6C456.9,10.5,456.3,10.3,455.6,10.3z"/>
		<path class="st2" d="M298.9,16.8L298.9,16.8L298.9,16.8L298.9,16.8z"/>
		<path class="st5" d="M479.7,27.9c-0.3,0.3-0.8,0.4-1.5,0.4c-0.6,0-1.1-0.2-1.5-0.6c-0.4-0.4-0.7-1.3-0.7-2.6c0-1,0-1.9,0-2.7
			c0-0.8,0-1.6,0-2.4s0-1.6,0-2.4c0-0.8,0-1.8,0-2.8c0-0.5,0-1,0-1.5s-0.1-0.9-0.2-1.1c-0.3-0.6-0.8-1.1-1.4-1.4
			c-0.7-0.4-1.4-0.6-2.1-0.6c-0.4,0-0.9,0.1-1.4,0.3c-0.6,0.2-1.2,0.4-1.9,0.7c-0.7,0.3-1.4,0.6-2.2,1c-0.8,0.4-1.5,0.8-2.3,1.2
			c-0.2,0.1-0.5,0.3-0.8,0.5c-0.3,0.2-0.6,0.4-0.8,0.6c-0.3,0.2-0.5,0.5-0.6,0.8c-0.2,0.3-0.3,0.6-0.3,0.9c0,0.4,0.2,0.8,0.5,1.1
			c0.3,0.3,0.7,0.5,1.2,0.5s0.9-0.2,1.4-0.5c0.4-0.3,0.6-0.7,0.6-1.1v-1.9c0-0.2,0.1-0.4,0.3-0.6c0.2-0.2,0.5-0.5,0.8-0.7
			s0.7-0.4,1.2-0.6c0.4-0.2,0.9-0.2,1.4-0.2c0.7,0,1.2,0.1,1.7,0.3c0.4,0.2,0.8,0.4,1,0.6c0.2,0.2,0.4,0.5,0.5,0.7
			c0.1,0.2,0.1,0.4,0.1,0.4v3.5v1v0.7V26v1.2c0,1.4,0.4,2.4,1.1,3c0.8,0.6,1.6,0.9,2.6,0.9c0.6,0,1.2-0.1,1.7-0.3
			c0.5-0.2,0.9-0.5,1.3-0.9c0.4-0.4,0.7-0.9,0.9-1.4s0.4-1,0.4-1.6h-0.3C480.3,27.2,480.1,27.6,479.7,27.9z"/>
		<path class="st5" d="M468.6,28.4c-0.8,0-1.5-0.3-2-0.9s-0.8-1.3-0.8-2s0.3-1.4,0.8-2s1.2-1.1,1.9-1.6c0.3-0.2,0.6-0.4,1-0.6v-0.8
			c-0.4,0.2-0.7,0.4-1.2,0.7c-0.7,0.4-1.6,0.9-2.5,1.5c-0.9,0.6-1.7,1.3-2.4,2c-0.6,0.7-1,1.5-1,2.3c0,0.7,0.1,1.4,0.4,1.9
			c0.2,0.5,0.6,0.9,0.9,1.3c0.4,0.3,0.8,0.6,1.3,0.7s0.9,0.2,1.4,0.2c0.8,0,1.5-0.1,2.1-0.4c0.3-0.1,0.6-0.3,0.9-0.4v-1.9
			C469.2,28.4,468.9,28.4,468.6,28.4z"/>
	</g>
	<g>
		<line class="st3" x1="222.8" y1="54.8" x2="257.8" y2="54.8"/>
		<rect x="222.8" y="53.8" class="st5" width="35" height="2"/>
	</g>
</g>
</svg>
